ReemKufi.glyphspackage
{
glyphname = exclam;
layers = (
{
layerId = "A6CBEFC3-C9E0-479E-A224-60A030287C4A";
shapes = (
{
closed = 1;
nodes = (
(36,199,l),
(161,199,l),
(161,765,l),
(36,765,l)
);
},
{
closed = 1;
nodes = (
(150,-14,o),
(182,14,o),
(182,57,c),
(182,98,o),
(149,130,o),
(102,130,c),
(55,130,o),
(20,98,o),
(20,57,c),
(20,14,o),
(54,-14,o),
(102,-14,c)
);
}
);
width = 202;
},
{
layerId = master01;
shapes = (
{
closed = 1;
nodes = (
(54,189,l),
(144,189,l),
(144,760,l),
(54,760,l)
);
},
{
closed = 1;
nodes = (
(138,1,o),
(164,24,o),
(164,57,c),
(164,89,o),
(138,114,o),
(102,114,c),
(66,114,o),
(38,89,o),
(38,57,c),
(38,24,o),
(65,1,o),
(102,1,c)
);
}
);
width = 202;
}
);
unicode = 33;
}
{
glyphname = quotedbl;
layers = (
{
layerId = "A6CBEFC3-C9E0-479E-A224-60A030287C4A";
shapes = (
{
closed = 1;
nodes = (
(64,734,l),
(64,481,l),
(182,481,l),
(183,566,o),
(185,650,o),
(186,734,c)
);
},
{
closed = 1;
nodes = (
(200,734,l),
(200,481,l),
(318,481,l),
(319,566,o),
(321,650,o),
(322,734,c)
);
}
);
width = 366;
},
{
layerId = master01;
shapes = (
{
closed = 1;
nodes = (
(64,730,l),
(64,478,l),
(150,478,l),
(151,563,o),
(153,646,o),
(154,730,c)
);
},
{
closed = 1;
nodes = (
(199,730,l),
(199,478,l),
(285,478,l),
(286,563,o),
(288,646,o),
(289,730,c)
);
}
);
width = 343;
}
);
unicode = 34;
}
{
glyphname = numbersign;
layers = (
{
layerId = "A6CBEFC3-C9E0-479E-A224-60A030287C4A";
shapes = (
{
closed = 1;
nodes = (
(161,656,l),
(153,596,o),
(146,539,o),
(138,479,c),
(59,479,l),
(54,439,o),
(51,398,o),
(46,358,c),
(125,358,l),
(122,336,o),
(120,314,o),
(117,292,c),
(38,292,l),
(34,251,o),
(28,211,o),
(23,170,c),
(102,170,l),
(96,113,o),
(88,57,o),
(82,0,c),
(209,0,l),
(214,57,o),
(223,113,o),
(229,170,c),
(290,170,l),
(284,113,o),
(276,57,o),
(270,0,c),
(396,0,l),
(402,57,o),
(410,113,o),
(416,170,c),
(501,170,l),
(505,211,o),
(511,251,o),
(516,292,c),
(431,292,l),
(433,314,o),
(436,336,o),
(439,358,c),
(524,358,l),
(529,398,o),
(532,439,o),
(536,479,c),
(452,479,l),
(460,539,o),
(467,596,o),
(475,656,c),
(348,656,l),
(341,596,o),
(333,539,o),
(326,479,c),
(264,479,l),
(272,539,o),
(279,596,o),
(287,656,c)
);
},
{
closed = 1;
nodes = (
(312,358,l),
(310,336,o),
(307,314,o),
(305,292,c),
(243,292,l),
(246,314,o),
(249,336,o),
(251,358,c)
);
}
);
width = 582;
},
{
layerId = master01;
shapes = (
{
closed = 1;
nodes = (
(172,652,l),
(164,588,o),
(156,526,o),
(148,461,c),
(57,461,l),
(54,432,o),
(51,402,o),
(48,373,c),
(138,373,l),
(134,341,o),
(131,308,o),
(127,276,c),
(35,276,l),
(33,246,o),
(28,217,o),
(25,187,c),
(115,187,l),
(109,124,o),
(101,62,o),
(94,0,c),
(186,0,l),
(192,62,o),
(201,124,o),
(208,187,c),
(302,187,l),
(295,124,o),
(287,62,o),
(281,0,c),
(372,0,l),
(379,62,o),
(387,124,o),
(394,187,c),
(495,187,l),
(497,217,o),
(502,246,o),
(505,276,c),
(405,276,l),
(408,308,o),
(412,341,o),
(416,373,c),
(518,373,l),
(521,402,o),
(523,432,o),
(526,461,c),
(426,461,l),
(434,526,o),
(442,588,o),
(450,652,c),
(358,652,l),
(351,588,o),
(342,526,o),
(335,461,c),
(239,461,l),
(248,526,o),
(255,588,o),
(263,652,c)
);
},
{
closed = 1;
nodes = (
(324,373,l),
(321,341,o),
(317,308,o),
(313,276,c),
(218,276,l),
(222,308,o),
(226,341,o),
(230,373,c)
);
}
);
width = 579;
}
);
unicode = 35;
}
{
glyphname = dollar;
layers = (
{
layerId = "A6CBEFC3-C9E0-479E-A224-60A030287C4A";
shapes = (
{
closed = 1;
nodes = (
(316,-68,l),
(316,324,l),
(356,385,l),
(356,804,l),
(272,804,l),
(272,413,l),
(232,366,l),
(232,-68,l)
);
},
{
ref = S;
}
);
width = 567;
},
{
layerId = master01;
shapes = (
{
closed = 1;
nodes = (
(318,-68,l),
(318,343,l),
(341,388,l),
(341,792,l),
(279,792,l),
(279,404,l),
(256,369,l),
(256,-68,l)
);
},
{
alignment = -1;
ref = S;
}
);
width = 567;
}
);
unicode = 36;
}
{
glyphname = percent;
layers = (
{
layerId = "A6CBEFC3-C9E0-479E-A224-60A030287C4A";
shapes = (
{
closed = 1;
nodes = (
(306,294,o),
(357,376,o),
(357,484,c),
(357,591,o),
(306,673,o),
(196,673,c),
(85,673,o),
(35,591,o),
(35,484,c),
(35,376,o),
(85,294,o),
(196,294,c)
);
},
{
closed = 1;
nodes = (
(157,547,o),
(165,574,o),
(196,574,c),
(227,574,o),
(234,547,o),
(234,484,c),
(234,429,o),
(227,392,o),
(196,392,c),
(165,392,o),
(157,429,o),
(157,484,c)
);
},
{
closed = 1;
nodes = (
(724,-28,o),
(775,54,o),
(775,162,c),
(775,269,o),
(724,351,o),
(614,351,c),
(503,351,o),
(453,269,o),
(453,162,c),
(453,54,o),
(503,-28,o),
(614,-28,c)
);
},
{
closed = 1;
nodes = (
(575,225,o),
(583,252,o),
(614,252,c),
(645,252,o),
(652,225,o),
(652,162,c),
(652,107,o),
(645,70,o),
(614,70,c),
(583,70,o),
(575,107,o),
(575,162,c)
);
},
{
closed = 1;
nodes = (
(589,673,l),
(105,0,l),
(242,-2,l),
(728,673,l)
);
}
);
width = 810;
},
{
layerId = master01;
shapes = (
{
closed = 1;
nodes = (
(297,271,o),
(349,343,o),
(349,445,c),
(349,546,o),
(298,619,o),
(204,619,c),
(108,619,o),
(58,546,o),
(58,445,c),
(58,343,o),
(108,271,o),
(204,271,c)
);
},
{
closed = 1;
nodes = (
(147,515,o),
(165,546,o),
(204,546,c),
(241,546,o),
(259,513,o),
(259,445,c),
(259,382,o),
(241,343,o),
(204,343,c),
(165,343,o),
(147,382,o),
(147,445,c)
);
},
{
closed = 1;
nodes = (
(679,-18,o),
(731,54,o),
(731,156,c),
(731,257,o),
(680,330,o),
(586,330,c),
(491,330,o),
(441,257,o),
(441,156,c),
(441,54,o),
(491,-18,o),
(586,-18,c)
);
},
{
closed = 1;
nodes = (
(529,225,o),
(548,257,o),
(586,257,c),
(624,257,o),
(642,223,o),
(642,156,c),
(642,93,o),
(624,54,o),
(586,54,c),
(548,54,o),
(529,93,o),
(529,156,c)
);
},
{
closed = 1;
nodes = (
(564,620,l),
(137,0,l),
(237,-2,l),
(665,620,l)
);
}
);
width = 785;
}
);
unicode = 37;
}
{
glyphname = ampersand;
layers = (
{
layerId = "A6CBEFC3-C9E0-479E-A224-60A030287C4A";
shapes = (
{
closed = 1;
nodes = (
(345,498,ls),
(339,507,o),
(311,549,o),
(311,577,cs),
(311,609,o),
(330,641,o),
(375,641,cs),
(411,641,o),
(448,612,o),
(490,567,c),
(563,664,l),
(520,718,o),
(446,763,o),
(352,763,cs),
(222,763,o),
(161,670,o),
(161,591,cs),
(161,529,o),
(202,464,o),
(223,436,c),
(547,0,l),
(547,0,o),
(678,0,o),
(715,0,c)
);
},
{
closed = 1;
nodes = (
(309,448,l),
(179,444,o),
(45,346,o),
(45,214,cs),
(45,81,o),
(153,-12,o),
(292,-12,cs),
(410,-12,o),
(483,43,o),
(519,111,c),
(426,188,l),
(407,149,o),
(377,118,o),
(312,118,cs),
(247,118,o),
(195,160,o),
(195,222,cs),
(195,280,o),
(245,335,o),
(310,335,c)
);
},
{
closed = 1;
nodes = (
(431,198,l),
(536,136,l),
(660,448,l),
(528,448,l)
);
}
);
width = 740;
},
{
layerId = master01;
shapes = (
{
closed = 1;
nodes = (
(303,500,ls),
(299,506,o),
(271,549,o),
(271,585,cs),
(271,631,o),
(303,670,o),
(359,670,cs),
(397,670,o),
(436,645,o),
(477,607,c),
(529,677,l),
(489,721,o),
(424,758,o),
(343,758,cs),
(227,758,o),
(163,676,o),
(163,593,cs),
(163,537,o),
(196,483,o),
(215,455,c),
(558,0,l),
(558,0,o),
(654,0,o),
(679,0,c)
);
},
{
closed = 1;
nodes = (
(305,428,l),
(180,424,o),
(55,331,o),
(55,205,cs),
(55,81,o),
(158,-10,o),
(295,-10,cs),
(406,-10,o),
(483,42,o),
(518,108,c),
(451,167,l),
(430,121,o),
(382,84,o),
(309,84,cs),
(229,84,o),
(164,135,o),
(164,210,cs),
(164,285,o),
(233,346,o),
(307,346,c)
);
},
{
closed = 1;
nodes = (
(455,173,l),
(530,126,l),
(649,428,l),
(552,428,l)
);
}
);
width = 728;
}
);
unicode = 38;
}
{
glyphname = quotesingle;
layers = (
{
layerId = "A6CBEFC3-C9E0-479E-A224-60A030287C4A";
shapes = (
{
closed = 1;
nodes = (
(28,734,l),
(28,481,l),
(148,481,l),
(149,566,o),
(151,650,o),
(152,734,c)
);
}
);
width = 175;
},
{
layerId = master01;
shapes = (
{
closed = 1;
nodes = (
(40,730,l),
(40,478,l),
(127,478,l),
(128,563,o),
(130,646,o),
(131,730,c)
);
}
);
width = 166;
}
);
unicode = 39;
}
{
glyphname = parenleft;
layers = (
{
layerId = "A6CBEFC3-C9E0-479E-A224-60A030287C4A";
shapes = (
{
closed = 1;
nodes = (
(358,-114,l),
(280,-25,o),
(221,112,o),
(221,296,cs),
(221,480,o),
(280,617,o),
(358,707,c),
(243,760,l),
(158,670,o),
(75,500,o),
(75,296,cs),
(75,92,o),
(158,-77,o),
(243,-168,c)
);
}
);
width = 408;
},
{
layerId = master01;
shapes = (
{
closed = 1;
nodes = (
(345,-122,l),
(267,-33,o),
(203,109,o),
(203,295,cs),
(203,480,o),
(267,623,o),
(345,712,c),
(264,756,l),
(179,666,o),
(97,497,o),
(97,295,cs),
(97,92,o),
(179,-76,o),
(264,-166,c)
);
}
);
width = 404;
}
);
unicode = 40;
}
{
glyphname = parenright;
layers = (
{
layerId = "A6CBEFC3-C9E0-479E-A224-60A030287C4A";
shapes = (
{
closed = 1;
nodes = (
(250,-78,o),
(333,92,o),
(333,296,cs),
(333,500,o),
(250,669,o),
(165,760,c),
(50,706,l),
(128,617,o),
(187,480,o),
(187,296,cs),
(187,112,o),
(128,-25,o),
(50,-115,c),
(165,-168,l)
);
}
);
width = 408;
},
{
layerId = master01;
shapes = (
{
closed = 1;
nodes = (
(234,-77,o),
(316,92,o),
(316,295,cs),
(316,497,o),
(234,666,o),
(149,756,c),
(69,711,l),
(146,623,o),
(211,480,o),
(211,295,cs),
(211,109,o),
(146,-33,o),
(69,-123,c),
(149,-166,l)
);
}
);
width = 405;
}
);
unicode = 41;
}
{
glyphname = asterisk;
layers = (
{
layerId = "A6CBEFC3-C9E0-479E-A224-60A030287C4A";
shapes = (
{
closed = 1;
nodes = (
(128,434,l),
(208,434,l),
(208,457,o),
(209,480,o),
(209,503,c),
(230,491,o),
(250,478,o),
(271,466,c),
(285,490,o),
(299,515,o),
(313,539,c),
(292,551,o),
(271,563,o),
(250,575,c),
(272,587,o),
(293,600,o),
(315,612,c),
(302,635,o),
(288,658,o),
(275,681,c),
(254,669,o),
(232,657,o),
(211,645,c),
(211,670,o),
(212,695,o),
(212,720,c),
(128,720,l),
(128,645,l),
(107,657,o),
(86,670,o),
(65,682,c),
(52,659,o),
(39,636,o),
(26,613,c),
(46,601,o),
(67,588,o),
(87,576,c),
(66,565,o),
(46,553,o),
(25,542,c),
(39,518,o),
(53,493,o),
(67,469,c),
(87,481,o),
(108,492,o),
(128,504,c)
);
}
);
width = 335;
},
{
layerId = master01;
shapes = (
{
closed = 1;
nodes = (
(137,434,l),
(197,434,l),
(197,463,o),
(198,492,o),
(198,521,c),
(224,506,o),
(250,490,o),
(275,475,c),
(286,493,o),
(296,512,o),
(307,530,c),
(281,545,o),
(255,560,o),
(229,575,c),
(256,590,o),
(282,606,o),
(309,621,c),
(299,638,o),
(288,655,o),
(279,672,c),
(253,658,o),
(226,642,o),
(200,628,c),
(200,659,o),
(201,689,o),
(201,720,c),
(137,720,l),
(137,628,l),
(111,643,o),
(85,658,o),
(59,673,c),
(49,656,o),
(39,639,o),
(30,622,c),
(55,607,o),
(81,591,o),
(106,576,c),
(81,562,o),
(55,547,o),
(29,533,c),
(40,515,o),
(50,496,o),
(61,478,c),
(87,493,o),
(112,507,o),
(137,522,c)
);
}
);
width = 335;
}
);
unicode = 42;
}
{
glyphname = plus;
layers = (
{
layerId = "A6CBEFC3-C9E0-479E-A224-60A030287C4A";
shapes = (
{
closed = 1;
nodes = (
(208,295,l),
(88,295,l),
(88,174,l),
(208,174,l),
(208,52,l),
(335,52,l),
(335,174,l),
(455,174,l),
(455,295,l),
(335,295,l),
(335,419,l),
(208,419,l)
);
}
);
width = 554;
},
{
layerId = master01;
shapes = (
{
closed = 1;
nodes = (
(224,278,l),
(88,278,l),
(88,190,l),
(224,190,l),
(224,52,l),
(316,52,l),
(316,190,l),
(452,190,l),
(452,278,l),
(316,278,l),
(316,416,l),
(224,416,l)
);
}
);
width = 551;
}
);
unicode = 43;
}
{
glyphname = comma;
kernLeft = period;
layers = (
{
layerId = "A6CBEFC3-C9E0-479E-A224-60A030287C4A";
shapes = (
{
closed = 1;
nodes = (
(67,88,l),
(40,17,o),
(15,-52,o),
(-12,-122,c),
(100,-122,l),
(129,-52,o),
(158,17,o),
(188,88,c)
);
}
);
width = 205;
},
{
layerId = master01;
shapes = (
{
closed = 1;
nodes = (
(78,88,l),
(52,17,o),
(27,-52,o),
(0,-122,c),
(82,-122,l),
(111,-52,o),
(140,17,o),
(169,88,c)
);
}
);
width = 203;
}
);
unicode = 44;
}
{
glyphname = hyphen;
layers = (
{
layerId = "A6CBEFC3-C9E0-479E-A224-60A030287C4A";
shapes = (
{
closed = 1;
nodes = (
(54,168,l),
(242,168,l),
(242,290,l),
(54,290,l)
);
}
);
width = 306;
},
{
layerId = master01;
shapes = (
{
closed = 1;
nodes = (
(54,173,l),
(240,173,l),
(240,261,l),
(54,261,l)
);
}
);
width = 304;
}
);
unicode = 45;
}
{
glyphname = period;
kernLeft = period;
layers = (
{
layerId = "A6CBEFC3-C9E0-479E-A224-60A030287C4A";
shapes = (
{
closed = 1;
nodes = (
(120,0,o),
(157,28,o),
(157,72,cs),
(157,113,o),
(120,145,o),
(87,145,cs),
(51,145,o),
(15,113,o),
(15,72,cs),
(15,28,o),
(51,0,o),
(87,0,cs)
);
}
);
width = 172;
},
{
layerId = master01;
shapes = (
{
closed = 1;
nodes = (
(113,0,o),
(141,22,o),
(141,56,cs),
(141,88,o),
(113,113,o),
(87,113,cs),
(59,113,o),
(31,88,o),
(31,56,cs),
(31,22,o),
(59,0,o),
(87,0,cs)
);
}
);
width = 169;
}
);
unicode = 46;
}
{
glyphname = slash;
layers = (
{
layerId = "A6CBEFC3-C9E0-479E-A224-60A030287C4A";
shapes = (
{
closed = 1;
nodes = (
(301,751,l),
(206,494,o),
(112,238,o),
(17,-19,c),
(143,-19,l),
(238,238,o),
(332,494,o),
(427,751,c)
);
}
);
width = 421;
},
{
layerId = master01;
shapes = (
{
closed = 1;
nodes = (
(299,746,l),
(205,491,o),
(112,236,o),
(17,-19,c),
(109,-19,l),
(203,236,o),
(296,491,o),
(390,746,c)
);
}
);
width = 390;
}
);
unicode = 47;
}
{
glyphname = zero;
layers = (
{
layerId = "A6CBEFC3-C9E0-479E-A224-60A030287C4A";
shapes = (
{
closed = 1;
nodes = (
(465,-2,o),
(593,97,o),
(593,335,c),
(593,564,o),
(467,672,o),
(314,671,c),
(154,672,o),
(35,590,o),
(35,335,cs),
(35,106,o),
(161,-2,o),
(314,-1,c)
);
},
{
closed = 1;
nodes = (
(214,138,o),
(186,226,o),
(186,336,c),
(186,445,o),
(214,531,o),
(313,531,c),
(412,531,o),
(442,448,o),
(442,339,c),
(442,226,o),
(413,138,o),
(313,138,c)
);
}
);
width = 628;
},
{
layerId = master01;
shapes = (
{
closed = 1;
nodes = (
(473,-4,o),
(589,116,o),
(589,332,c),
(589,542,o),
(474,667,o),
(312,666,c),
(146,667,o),
(35,560,o),
(35,332,cs),
(35,122,o),
(151,-4,o),
(312,-3,c)
);
},
{
closed = 1;
nodes = (
(199,97,o),
(144,195,o),
(144,332,c),
(144,469,o),
(199,565,o),
(311,565,c),
(424,565,o),
(480,471,o),
(480,334,c),
(480,195,o),
(425,97,o),
(311,98,c)
);
}
);
width = 624;
}
);
unicode = 48;
}
{
glyphname = one;
layers = (
{
layerId = "A6CBEFC3-C9E0-479E-A224-60A030287C4A";
shapes = (
{
closed = 1;
nodes = (
(50,523,l),
(103,523,l),
(103,0,l),
(249,0,l),
(249,663,l),
(50,663,l)
);
}
);
width = 344;
},
{
layerId = master01;
shapes = (
{
closed = 1;
nodes = (
(53,558,l),
(124,558,l),
(124,0,l),
(229,0,l),
(229,659,l),
(53,659,l)
);
}
);
width = 332;
}
);
metricRight = H;
unicode = 49;
}
{
glyphname = two;
layers = (
{
layerId = "A6CBEFC3-C9E0-479E-A224-60A030287C4A";
shapes = (
{
closed = 1;
nodes = (
(533,0,l),
(533,140,l),
(287,140,l),
(353,121,l),
(442,230,o),
(525,330,o),
(525,451,cs),
(525,565,o),
(434,671,o),
(297,671,cs),
(128,671,o),
(35,561,o),
(35,452,cs),
(35,403,o),
(68,303,o),
(126,275,c),
(215,356,l),
(191,381,o),
(176,413,o),
(176,456,cs),
(176,492,o),
(210,531,o),
(272,531,cs),
(333,531,o),
(374,496,o),
(374,439,cs),
(374,310,o),
(218,168,o),
(54,0,c)
);
}
);
width = 583;
},
{
layerId = master01;
shapes = (
{
closed = 1;
nodes = (
(507,0,l),
(507,101,l),
(222,101,l),
(269,86,l),
(373,206,o),
(487,324,o),
(487,455,cs),
(487,568,o),
(403,667,o),
(276,667,cs),
(123,667,o),
(40,566,o),
(40,457,cs),
(40,407,o),
(68,327,o),
(116,297,c),
(181,356,l),
(156,381,o),
(142,416,o),
(142,460,cs),
(142,506,o),
(175,566,o),
(259,566,cs),
(321,566,o),
(379,529,o),
(379,447,cs),
(379,315,o),
(220,167,o),
(54,0,c)
);
}
);
width = 551;
}
);
unicode = 50;
}
{
glyphname = three;
layers = (
{
background = {
shapes = (
{
closed = 1;
nodes = (
(95,663,l),
(95,523,l),
(304,523,l),
(262,540,l),
(145,316,l),
(145,316,l),
(165,321,o),
(184,326,o),
(224,326,cs),
(282,326,o),
(317,288,o),
(317,230,cs),
(317,166,o),
(269,132,o),
(225,132,cs),
(179,132,o),
(134,162,o),
(114,187,c),
(40,67,l),
(83,22,o),
(153,-8,o),
(219,-8,cs),
(344,-8,o),
(467,76,o),
(467,221,cs),
(467,313,o),
(430,405,o),
(320,436,c),
(306,375,l),
(456,663,l)
);
}
);
};
layerId = "A6CBEFC3-C9E0-479E-A224-60A030287C4A";
shapes = (
{
closed = 1;
nodes = (
(95,663,l),
(95,523,l),
(304,523,l),
(262,540,l),
(145,321,l),
(148,317,l),
(168,322,o),
(184,326,o),
(224,326,cs),
(282,326,o),
(317,288,o),
(317,230,cs),
(317,166,o),
(269,132,o),
(225,132,cs),
(179,132,o),
(134,162,o),
(114,187,c),
(40,67,l),
(83,22,o),
(163,-8,o),
(229,-8,cs),
(354,-8,o),
(467,76,o),
(467,221,cs),
(467,386,o),
(363,428,o),
(270,426,cs),
(257,426,o),
(240,423,o),
(227,418,c),
(306,375,l),
(456,663,l)
);
}
);
width = 527;
},
{
layerId = master01;
shapes = (
{
closed = 1;
nodes = (
(92,659,l),
(92,558,l),
(328,558,l),
(296,572,l),
(146,334,l),
(150,330,l),
(171,338,o),
(194,344,o),
(233,344,cs),
(307,344,o),
(353,298,o),
(353,225,cs),
(353,143,o),
(294,93,o),
(225,93,cs),
(176,93,o),
(128,121,o),
(104,150,c),
(51,64,l),
(92,21,o),
(163,-8,o),
(227,-8,cs),
(354,-8,o),
(461,78,o),
(461,219,cs),
(461,370,o),
(363,420,o),
(265,417,cs),
(245,417,o),
(224,413,o),
(207,405,c),
(268,375,l),
(440,659,l)
);
}
);
width = 524;
}
);
unicode = 51;
}
{
glyphname = four;
layers = (
{
layerId = "A6CBEFC3-C9E0-479E-A224-60A030287C4A";
shapes = (
{
closed = 1;
nodes = (
(288,145,l),
(288,0,l),
(434,0,l),
(434,145,l),
(513,145,l),
(513,255,l),
(434,255,l),
(434,671,l),
(433,671,l),
(10,146,l),
(10,145,l)
);
},
{
closed = 1;
nodes = (
(288,359,l),
(288,255,l),
(204,255,l),
(218,249,l),
(295,352,l)
);
}
);
width = 553;
},
{
layerId = master01;
shapes = (
{
closed = 1;
nodes = (
(313,157,l),
(313,0,l),
(418,0,l),
(418,157,l),
(503,157,l),
(503,237,l),
(418,237,l),
(418,667,l),
(417,667,l),
(12,158,l),
(12,157,l)
);
},
{
closed = 1;
nodes = (
(313,448,l),
(313,237,l),
(150,237,l),
(165,232,l),
(319,432,l)
);
}
);
width = 538;
}
);
unicode = 52;
}
{
glyphname = five;
layers = (
{
layerId = "A6CBEFC3-C9E0-479E-A224-60A030287C4A";
shapes = (
{
closed = 1;
nodes = (
(368,-8,o),
(468,93,o),
(468,226,cs),
(468,346,o),
(388,449,o),
(249,450,cs),
(232,450,o),
(214,449,o),
(196,446,c),
(213,416,l),
(213,523,l),
(419,523,l),
(419,663,l),
(88,663,l),
(88,291,l),
(89,291,l),
(140,318,o),
(173,328,o),
(214,328,cs),
(278,328,o),
(318,285,o),
(318,221,cs),
(318,162,o),
(277,132,o),
(231,132,cs),
(189,132,o),
(139,154,o),
(115,183,c),
(40,67,l),
(81,26,o),
(163,-8,o),
(242,-8,cs)
);
}
);
width = 518;
},
{
layerId = master01;
shapes = (
{
closed = 1;
nodes = (
(370,-8,o),
(463,90,o),
(463,216,cs),
(463,334,o),
(391,432,o),
(255,433,cs),
(230,433,o),
(202,429,o),
(180,422,c),
(194,400,l),
(194,558,l),
(420,558,l),
(420,659,l),
(103,659,l),
(103,307,l),
(104,307,l),
(148,332,o),
(185,345,o),
(230,345,cs),
(312,345,o),
(355,289,o),
(355,213,cs),
(355,141,o),
(305,92,o),
(236,92,cs),
(192,92,o),
(143,113,o),
(116,143,c),
(61,61,l),
(101,22,o),
(173,-8,o),
(244,-8,cs)
);
}
);
width = 522;
}
);
unicode = 53;
}
{
glyphname = six;
layers = (
{
background = {
shapes = (
{
closed = 0;
nodes = (
(275,449,l),
(302,471,o),
(420,534,o),
(454,557,c),
(429,588,o),
(403,621,o),
(377,652,c),
(282,583,o),
(50,444,o),
(50,222,cs),
(50,222,ls),
(50,52,o),
(186,-8,o),
(280,-8,cs),
(404,-8,o),
(511,96,o),
(511,223,cs),
(511,350,o),
(404,449,o),
(279,449,cs),
(278,449,o),
(277,449,o),
(275,449,c)
);
},
{
closed = 1;
nodes = (
(180,222,ls),
(180,281,o),
(224,328,o),
(280,328,cs),
(336,328,o),
(386,281,o),
(386,222,cs),
(386,164,o),
(337,113,o),
(280,113,cs),
(223,113,o),
(180,164,o),
(180,222,cs)
);
}
);
};
layerId = "A6CBEFC3-C9E0-479E-A224-60A030287C4A";
shapes = (
{
closed = 1;
nodes = (
(410,-8,o),
(531,75,o),
(531,223,cs),
(531,350,o),
(432,437,o),
(336,437,cs),
(234,437,o),
(184,388,o),
(148,304,c),
(184,300,l),
(184,388,o),
(254,513,o),
(414,576,c),
(317,681,l),
(159,587,o),
(30,444,o),
(30,287,cs),
(30,96,o),
(141,-8,o),
(286,-8,cs)
);
},
{
closed = 1;
nodes = (
(223,122,o),
(180,167,o),
(180,215,cs),
(180,239,ls),
(180,279,o),
(224,315,o),
(280,315,cs),
(336,315,o),
(380,284,o),
(380,222,cs),
(380,157,o),
(337,122,o),
(280,122,cs)
);
}
);
width = 561;
},
{
layerId = master01;
shapes = (
{
closed = 1;
nodes = (
(397,-8,o),
(508,77,o),
(508,214,cs),
(508,336,o),
(412,424,o),
(311,424,cs),
(219,424,o),
(164,381,o),
(128,305,c),
(154,301,l),
(164,392,o),
(244,512,o),
(407,590,c),
(337,666,l),
(183,568,o),
(36,428,o),
(36,258,cs),
(36,92,o),
(141,-8,o),
(276,-8,cs)
);
},
{
closed = 1;
nodes = (
(200,86,o),
(144,143,o),
(144,208,cs),
(144,227,ls),
(144,287,o),
(200,336,o),
(272,336,cs),
(343,336,o),
(400,288,o),
(400,213,cs),
(400,136,o),
(343,86,o),
(272,86,cs)
);
}
);
width = 548;
}
);
unicode = 54;
}
{
glyphname = seven;
layers = (
{
layerId = "A6CBEFC3-C9E0-479E-A224-60A030287C4A";
shapes = (
{
closed = 1;
nodes = (
(40,663,l),
(40,523,l),
(331,523,l),
(284,540,l),
(79,0,l),
(241,0,l),
(488,663,l)
);
}
);
width = 503;
},
{
layerId = master01;
shapes = (
{
closed = 1;
nodes = (
(32,659,l),
(32,558,l),
(355,558,l),
(319,573,l),
(87,0,l),
(205,0,l),
(466,659,l)
);
}
);
width = 492;
}
);
unicode = 55;
}
{
glyphname = eight;
layers = (
{
layerId = "A6CBEFC3-C9E0-479E-A224-60A030287C4A";
shapes = (
{
closed = 1;
nodes = (
(15,215,ls),
(15,99,o),
(119,-8,o),
(265,-8,cs),
(410,-8,o),
(517,99,o),
(517,215,cs),
(517,316,o),
(449,369,o),
(402,400,c),
(434,432,o),
(459,457,o),
(459,524,cs),
(459,607,o),
(371,671,o),
(267,671,cs),
(163,671,o),
(78,607,o),
(78,517,cs),
(78,457,o),
(101,431,o),
(131,400,c),
(84,372,o),
(15,318,o),
(15,215,cs)
);
},
{
closed = 1;
nodes = (
(164,221,ls),
(164,283,o),
(216,330,o),
(272,328,cs),
(328,326,o),
(372,278,o),
(372,221,cs),
(372,162,o),
(323,114,o),
(266,114,cs),
(210,114,o),
(164,162,o),
(164,221,cs)
);
},
{
closed = 1;
nodes = (
(219,499,ls),
(219,526,o),
(245,550,o),
(270,550,cs),
(295,550,o),
(320,526,o),
(320,499,cs),
(320,472,o),
(294,449,o),
(270,449,cs),
(246,449,o),
(219,472,o),
(219,499,cs)
);
}
);
width = 532;
},
{
layerId = master01;
shapes = (
{
closed = 1;
nodes = (
(26,209,ls),
(26,94,o),
(126,-8,o),
(261,-8,cs),
(396,-8,o),
(499,94,o),
(499,209,cs),
(499,308,o),
(431,369,o),
(371,397,c),
(410,424,o),
(438,457,o),
(438,520,cs),
(438,603,o),
(361,667,o),
(262,667,cs),
(162,667,o),
(86,603,o),
(86,515,cs),
(86,457,o),
(114,423,o),
(152,397,c),
(93,370,o),
(26,309,o),
(26,209,cs)
);
},
{
closed = 1;
nodes = (
(133,213,ls),
(133,288,o),
(195,346,o),
(265,345,cs),
(337,343,o),
(394,284,o),
(394,213,cs),
(394,141,o),
(333,80,o),
(261,80,cs),
(190,80,o),
(133,141,o),
(133,213,cs)
);
},
{
closed = 1;
nodes = (
(188,503,ls),
(188,547,o),
(224,579,o),
(264,579,cs),
(304,579,o),
(338,547,o),
(338,503,cs),
(338,464,o),
(303,432,o),
(264,432,cs),
(225,432,o),
(188,464,o),
(188,503,cs)
);
}
);
width = 524;
}
);
unicode = 56;
}
{
glyphname = nine;
layers = (
{
background = {
shapes = (
{
closed = 1;
nodes = (
(509,422,l),
(509,592,o),
(373,652,o),
(279,652,cs),
(155,652,o),
(48,548,o),
(48,421,cs),
(48,294,o),
(155,195,o),
(280,195,cs),
(281,195,o),
(282,195,o),
(284,195,c),
(257,173,o),
(139,110,o),
(105,87,c),
(130,56,o),
(156,23,o),
(182,-8,c),
(277,61,o),
(509,200,o),
(509,422,c)
);
},
{
closed = 1;
nodes = (
(379,422,l),
(379,363,o),
(335,316,o),
(279,316,cs),
(223,316,o),
(173,363,o),
(173,422,cs),
(173,480,o),
(222,531,o),
(279,531,cs),
(336,531,o),
(379,480,o),
(379,422,c)
);
}
);
};
layerId = "A6CBEFC3-C9E0-479E-A224-60A030287C4A";
shapes = (
{
closed = 1;
nodes = (
(327,207,o),
(377,256,o),
(413,340,c),
(377,344,l),
(377,254,o),
(267,153,o),
(107,88,c),
(204,-17,l),
(362,81,o),
(531,202,o),
(531,422,cs),
(531,564,o),
(420,671,o),
(275,671,cs),
(151,671,o),
(30,581,o),
(30,421,cs),
(30,294,o),
(129,207,o),
(225,207,cs)
);
},
{
closed = 1;
nodes = (
(225,329,o),
(181,364,o),
(181,433,cs),
(181,503,o),
(224,541,o),
(281,541,cs),
(338,541,o),
(381,492,o),
(381,440,cs),
(381,417,ls),
(381,372,o),
(337,329,o),
(281,329,cs)
);
}
);
width = 546;
},
{
layerId = master01;
shapes = (
{
closed = 1;
nodes = (
(330,214,o),
(379,256,o),
(418,333,c),
(389,334,l),
(380,249,o),
(275,144,o),
(110,63,c),
(180,-14,l),
(335,88,o),
(508,213,o),
(508,424,cs),
(508,560,o),
(404,657,o),
(269,657,cs),
(148,657,o),
(36,568,o),
(36,424,cs),
(36,302,o),
(133,214,o),
(234,214,cs)
);
},
{
closed = 1;
nodes = (
(202,303,o),
(145,352,o),
(145,431,cs),
(145,511,o),
(201,563,o),
(273,563,cs),
(343,563,o),
(399,507,o),
(401,439,cs),
(401,419,ls),
(401,352,o),
(347,303,o),
(273,303,cs)
);
}
);
width = 539;
}
);
unicode = 57;
}
{
glyphname = colon;
layers = (
{
layerId = "A6CBEFC3-C9E0-479E-A224-60A030287C4A";
shapes = (
{
closed = 1;
nodes = (
(120,285,o),
(157,313,o),
(157,357,cs),
(157,398,o),
(120,430,o),
(87,430,cs),
(51,430,o),
(15,398,o),
(15,357,cs),
(15,313,o),
(51,285,o),
(87,285,cs)
);
},
{
closed = 1;
nodes = (
(120,0,o),
(157,28,o),
(157,72,cs),
(157,113,o),
(120,145,o),
(87,145,cs),
(51,145,o),
(15,113,o),
(15,72,cs),
(15,28,o),
(51,0,o),
(87,0,cs)
);
}
);
width = 179;
},
{
layerId = master01;
shapes = (
{
closed = 1;
nodes = (
(112,274,o),
(141,296,o),
(141,330,cs),
(141,362,o),
(112,387,o),
(87,387,cs),
(58,387,o),
(31,362,o),
(31,330,cs),
(31,296,o),
(58,274,o),
(87,274,cs)
);
},
{
closed = 1;
nodes = (
(112,0,o),
(141,22,o),
(141,56,cs),
(141,88,o),
(112,113,o),
(87,113,cs),
(58,113,o),
(31,88,o),
(31,56,cs),
(31,22,o),
(58,0,o),
(87,0,cs)
);
}
);
width = 178;
}
);
unicode = 58;
}
{
glyphname = semicolon;
layers = (
{
layerId = "A6CBEFC3-C9E0-479E-A224-60A030287C4A";
shapes = (
{
closed = 1;
nodes = (
(86,-122,l),
(115,-52,o),
(144,17,o),
(174,88,c),
(53,88,l),
(26,17,o),
(1,-52,o),
(-26,-122,c)
);
},
{
closed = 1;
nodes = (
(157,255,o),
(193,283,o),
(193,327,cs),
(193,368,o),
(157,400,o),
(123,400,cs),
(88,400,o),
(52,368,o),
(52,327,cs),
(52,283,o),
(88,255,o),
(123,255,cs)
);
}
);
width = 205;
},
{
layerId = master01;
shapes = (
{
closed = 1;
nodes = (
(68,-122,l),
(97,-52,o),
(125,17,o),
(155,88,c),
(64,88,l),
(37,17,o),
(12,-52,o),
(-14,-122,c)
);
},
{
closed = 1;
nodes = (
(145,253,o),
(173,275,o),
(173,309,cs),
(173,341,o),
(145,366,o),
(118,366,cs),
(91,366,o),
(63,341,o),
(63,309,cs),
(63,275,o),
(91,253,o),
(118,253,cs)
);
}
);
width = 204;
}
);
unicode = 59;
}
{
glyphname = less;
layers = (
{
layerId = "A6CBEFC3-C9E0-479E-A224-60A030287C4A";
shapes = (
{
closed = 1;
nodes = (
(475,499,l),
(30,242,l),
(475,-14,l),
(475,137,l),
(298,242,l),
(475,347,l)
);
}
);
width = 555;
},
{
layerId = master01;
shapes = (
{
closed = 1;
nodes = (
(499,496,l),
(56,241,l),
(499,-14,l),
(499,95,l),
(250,241,l),
(499,386,l)
);
}
);
width = 594;
}
);
unicode = 60;
}
{
glyphname = equal;
layers = (
{
layerId = "A6CBEFC3-C9E0-479E-A224-60A030287C4A";
shapes = (
{
closed = 1;
nodes = (
(102,290,l),
(618,290,l),
(618,412,l),
(102,412,l)
);
},
{
closed = 1;
nodes = (
(102,92,l),
(618,92,l),
(618,214,l),
(102,214,l)
);
}
);
width = 722;
},
{
layerId = master01;
shapes = (
{
closed = 1;
nodes = (
(102,307,l),
(614,307,l),
(614,395,l),
(102,395,l)
);
},
{
closed = 1;
nodes = (
(102,110,l),
(614,110,l),
(614,198,l),
(102,198,l)
);
}
);
width = 718;
}
);
unicode = 61;
}
{
glyphname = greater;
layers = (
{
layerId = "A6CBEFC3-C9E0-479E-A224-60A030287C4A";
shapes = (
{
closed = 1;
nodes = (
(80,-14,l),
(525,243,l),
(80,499,l),
(80,348,l),
(257,243,l),
(80,138,l)
);
}
);
width = 555;
},
{
layerId = master01;
shapes = (
{
closed = 1;
nodes = (
(91,-14,l),
(534,241,l),
(91,496,l),
(91,387,l),
(341,241,l),
(91,96,l)
);
}
);
width = 584;
}
);
unicode = 62;
}
{
glyphname = question;
layers = (
{
layerId = "A6CBEFC3-C9E0-479E-A224-60A030287C4A";
shapes = (
{
closed = 1;
nodes = (
(282,197,l),
(282,218,l),
(282,294,o),
(313,333,o),
(348,368,cs),
(392,413,o),
(444,452,o),
(444,561,c),
(444,692,o),
(355,746,o),
(242,747,c),
(87,748,o),
(25,627,o),
(10,579,c),
(125,525,l),
(143,570,o),
(169,617,o),
(227,617,c),
(257,617,o),
(295,591,o),
(295,548,c),
(295,495,o),
(262,467,o),
(226,434,cs),
(186,395,o),
(142,349,o),
(142,250,c),
(142,197,l)
);
},
{
closed = 1;
nodes = (
(260,-14,o),
(292,14,o),
(292,57,c),
(292,98,o),
(259,130,o),
(212,130,c),
(165,130,o),
(130,98,o),
(130,57,c),
(130,14,o),
(164,-14,o),
(212,-14,c)
);
}
);
width = 464;
},
{
layerId = master01;
shapes = (
{
closed = 1;
nodes = (
(264,187,l),
(264,226,l),
(264,305,o),
(297,333,o),
(338,369,cs),
(387,413,o),
(434,456,o),
(434,553,c),
(434,677,o),
(346,742,o),
(234,742,c),
(100,743,o),
(35,642,o),
(16,585,c),
(100,547,l),
(119,601,o),
(159,649,o),
(224,649,c),
(276,649,o),
(327,607,o),
(327,545,c),
(327,485,o),
(293,452,o),
(252,418,cs),
(208,379,o),
(163,346,o),
(163,248,c),
(163,187,l)
);
},
{
closed = 1;
nodes = (
(251,1,o),
(276,24,o),
(276,57,c),
(276,89,o),
(250,114,o),
(214,114,c),
(178,114,o),
(151,89,o),
(151,57,c),
(151,24,o),
(177,1,o),
(214,1,c)
);
}
);
width = 460;
}
);
unicode = 63;
}
{
glyphname = at;
layers = (
{
layerId = "A6CBEFC3-C9E0-479E-A224-60A030287C4A";
shapes = (
{
closed = 1;
nodes = (
(552,-226,o),
(674,-197,o),
(755,-131,c),
(699,-52,l),
(634,-93,o),
(557,-118,o),
(481,-118,cs),
(312,-118,o),
(164,-33,o),
(164,182,cs),
(164,294,o),
(237,571,o),
(595,571,cs),
(800,571,o),
(894,451,o),
(894,312,cs),
(894,196,o),
(838,120,o),
(789,120,cs),
(766,120,o),
(757,137,o),
(762,172,cs),
(799,437,l),
(665,437,l),
(649,390,l),
(625,425,o),
(594,459,o),
(507,459,cs),
(355,459,o),
(253,343,o),
(253,191,cs),
(253,61,o),
(337,-12,o),
(448,-12,cs),
(529,-12,o),
(611,48,o),
(641,90,c),
(617,152,l),
(602,60,o),
(667,-8,o),
(753,-8,c),
(915,-8,o),
(1023,139,o),
(1023,312,cs),
(1023,516,o),
(881,680,o),
(615,680,cs),
(199,680,o),
(38,401,o),
(38,178,cs),
(38,-100,o),
(241,-226,o),
(460,-226,cs)
);
},
{
closed = 1;
nodes = (
(444,102,o),
(402,149,o),
(402,210,cs),
(402,279,o),
(456,345,o),
(531,345,c),
(584,345,o),
(622,318,o),
(632,275,c),
(617,168,l),
(588,124,o),
(557,102,o),
(504,102,c)
);
}
);
width = 1061;
},
{
layerId = master01;
shapes = (
{
closed = 1;
nodes = (
(531,-220,o),
(640,-192,o),
(718,-132,c),
(677,-73,l),
(611,-115,o),
(534,-141,o),
(456,-141,cs),
(273,-141,o),
(135,-45,o),
(135,167,cs),
(135,292,o),
(228,571,o),
(583,571,cs),
(786,571,o),
(895,446,o),
(895,295,cs),
(895,175,o),
(829,84,o),
(765,84,cs),
(729,84,o),
(720,112,o),
(725,149,cs),
(763,418,l),
(667,418,l),
(650,350,l),
(627,396,o),
(585,435,o),
(498,435,cs),
(357,435,o),
(257,324,o),
(257,183,cs),
(256,64,o),
(337,-10,o),
(447,-10,cs),
(527,-10,o),
(608,49,o),
(640,100,c),
(622,147,l),
(606,55,o),
(658,-8,o),
(740,-8,c),
(886,-8,o),
(989,133,o),
(989,295,cs),
(989,494,o),
(845,651,o),
(598,651,cs),
(197,651,o),
(43,370,o),
(43,164,cs),
(43,-94,o),
(222,-220,o),
(441,-220,cs)
);
},
{
closed = 1;
nodes = (
(414,73,o),
(364,126,o),
(364,197,cs),
(364,279,o),
(430,353,o),
(514,353,c),
(580,353,o),
(628,313,o),
(636,258,c),
(625,172,l),
(600,111,o),
(549,73,o),
(486,73,c)
);
}
);
width = 1032;
}
);
metricLeft = o;
metricRight = o;
unicode = 64;
}
{
glyphname = A;
kernLeft = A;
kernRight = A;
layers = (
{
anchors = (
{
name = bottom;
pos = (348,0);
},
{
name = ogonek;
pos = (620,10);
},
{
name = top;
pos = (348,776);
}
);
layerId = "A6CBEFC3-C9E0-479E-A224-60A030287C4A";
shapes = (
{
closed = 1;
nodes = (
(155,0,l),
(409,610,l),
(304,538,l),
(516,0,l),
(684,0,l),
(352,765,l),
(344,765,l),
(12,0,l)
);
},
{
closed = 1;
nodes = (
(194,144,l),
(511,144,l),
(460,266,l),
(239,266,l)
);
}
);
width = 696;
},
{
anchors = (
{
name = bottom;
pos = (350,0);
},
{
name = ogonek;
pos = (623,10);
},
{
name = top;
pos = (350,752);
}
);
layerId = master01;
shapes = (
{
closed = 1;
nodes = (
(132,0,l),
(394,640,l),
(319,591,l),
(551,0,l),
(672,0,l),
(353,755,l),
(347,755,l),
(28,0,l)
);
},
{
closed = 1;
nodes = (
(190,182,l),
(517,182,l),
(481,272,l),
(221,272,l)
);
}
);
width = 700;
}
);
unicode = 65;
}
{
glyphname = B;
kernRight = B;
layers = (
{
anchors = (
{
name = bottom;
pos = (336,0);
},
{
name = top;
pos = (336,736);
}
);
layerId = "A6CBEFC3-C9E0-479E-A224-60A030287C4A";
shapes = (
{
closed = 1;
nodes = (
(95,736,l),
(95,0,l),
(340,0,l),
(471,0,o),
(597,57,o),
(597,217,c),
(597,346,o),
(464,425,o),
(283,425,c),
(306,347,l),
(453,347,o),
(562,415,o),
(562,551,c),
(562,673,o),
(464,736,o),
(311,736,c)
);
},
{
closed = 1;
nodes = (
(240,435,l),
(240,596,l),
(318,596,l),
(375,596,o),
(412,571,o),
(412,520,c),
(412,476,o),
(385,435,o),
(328,435,c)
);
},
{
closed = 1;
nodes = (
(240,135,l),
(240,295,l),
(323,295,l),
(385,295,o),
(447,280,o),
(447,217,c),
(447,160,o),
(397,135,o),
(333,135,c)
);
}
);
width = 647;
},
{
anchors = (
{
name = bottom;
pos = (317,0);
},
{
name = top;
pos = (317,725);
}
);
layerId = master01;
shapes = (
{
closed = 1;
nodes = (
(103,725,l),
(103,0,l),
(322,0,l),
(447,0,o),
(566,59,o),
(566,205,c),
(566,325,o),
(450,399,o),
(299,403,c),
(314,347,l),
(444,353,o),
(530,424,o),
(530,542,c),
(530,666,o),
(440,725,o),
(294,725,c)
);
},
{
closed = 1;
nodes = (
(207,411,l),
(207,624,l),
(299,624,l),
(374,624,o),
(422,592,o),
(422,520,c),
(422,461,o),
(389,411,o),
(313,411,c)
);
},
{
closed = 1;
nodes = (
(207,97,l),
(207,310,l),
(310,310,l),
(382,310,o),
(458,284,o),
(458,204,c),
(458,131,o),
(395,97,o),
(317,97,c)
);
}
);
width = 624;
}
);
metricLeft = H;
metricRight = O;
unicode = 66;
}
{
glyphname = C;
kernLeft = O;
layers = (
{
anchors = (
{
name = bottom;
pos = (399,0);
},
{
name = top;
pos = (389,756);
}
);
layerId = "A6CBEFC3-C9E0-479E-A224-60A030287C4A";
shapes = (
{
closed = 1;
nodes = (
(587,191,l),
(558,163,o),
(501,132,o),
(422,132,cs),
(287,132,o),
(201,228,o),
(201,370,cs),
(201,503,o),
(300,604,o),
(413,604,c),
(485,604,o),
(542,569,o),
(575,544,c),
(632,681,l),
(584,711,o),
(506,744,o),
(408,744,cs),
(194,744,o),
(50,586,o),
(50,362,cs),
(50,163,o),
(186,-4,o),
(419,-8,cs),
(532,-10,o),
(622,41,o),
(647,61,c)
);
}
);
width = 697;
},
{
anchors = (
{
name = bottom;
pos = (404,0);
},
{
name = top;
pos = (397,742);
}
);
layerId = master01;
shapes = (
{
closed = 1;
nodes = (
(592,149,l),
(556,120,o),
(499,93,o),
(424,93,cs),
(267,93,o),
(167,208,o),
(167,362,cs),
(167,514,o),
(282,632,o),
(419,632,c),
(488,632,o),
(546,602,o),
(585,576,c),
(627,674,l),
(577,705,o),
(504,733,o),
(416,733,cs),
(207,733,o),
(58,575,o),
(58,357,cs),
(58,160,o),
(196,-5,o),
(422,-8,cs),
(522,-10,o),
(603,32,o),
(637,55,c)
);
}
);
width = 695;
}
);
metricLeft = O;
metricRight = O;
unicode = 67;
}
{
glyphname = D;
kernRight = O;
layers = (
{
anchors = (
{
name = bottom;
pos = (398,0);
},
{
name = center;
pos = (167,368);
},
{
name = top;
pos = (318,736);
}
);
layerId = "A6CBEFC3-C9E0-479E-A224-60A030287C4A";
shapes = (
{
closed = 1;
nodes = (
(351,0,l),
(551,0,o),
(721,136,o),
(721,355,c),
(721,540,o),
(612,736,o),
(315,736,c),
(95,736,l),
(95,0,l)
);
},
{
closed = 1;
nodes = (
(240,597,l),
(358,597,l),
(425,597,o),
(571,557,o),
(571,365,c),
(571,217,o),
(473,140,o),
(326,140,c),
(240,140,l)
);
}
);
width = 771;
},
{
anchors = (
{
name = bottom;
pos = (383,0);
},
{
name = center;
pos = (154,363);
},
{
name = top;
pos = (309,725);
}
);
layerId = master01;
shapes = (
{
closed = 1;
nodes = (
(339,0,l),
(532,0,o),
(699,136,o),
(699,353,c),
(699,530,o),
(591,725,o),
(304,725,c),
(103,725,l),
(103,0,l)
);
},
{
closed = 1;
nodes = (
(207,624,l),
(332,624,l),
(459,624,o),
(591,540,o),
(591,360,c),
(591,194,o),
(476,101,o),
(319,101,c),
(207,101,l)
);
}
);
width = 757;
}
);
metricLeft = H;
metricRight = O;
unicode = 68;
}
{
glyphname = E;
layers = (
{
anchors = (
{
name = bottom;
pos = (346,0);
},
{
name = ogonek;
pos = (547,10);
},
{
name = top;
pos = (346,756);
},
{
name = topleft;
pos = (45,736);
}
);
layerId = "A6CBEFC3-C9E0-479E-A224-60A030287C4A";
shapes = (
{
closed = 1;
nodes = (
(95,0,l),
(611,0,l),
(611,140,l),
(240,140,l),
(240,299,l),
(556,299,l),
(556,439,l),
(240,439,l),
(240,596,l),
(597,596,l),
(597,736,l),
(95,736,l)
);
}
);
width = 666;
},
{
anchors = (
{
name = bottom;
pos = (336,0);
},
{
name = ogonek;
pos = (542,10);
},
{
name = top;
pos = (336,739);
},
{
name = topleft;
pos = (31,725);
}
);
layerId = master01;
shapes = (
{
closed = 1;
nodes = (
(103,0,l),
(592,0,l),
(592,101,l),
(207,101,l),
(207,314,l),
(538,314,l),
(538,415,l),
(207,415,l),
(207,624,l),
(578,624,l),
(578,725,l),
(103,725,l)
);
}
);
width = 655;
}
);
metricLeft = H;
unicode = 69;
}
{
glyphname = F;
kernRight = F;
layers = (
{
anchors = (
{
name = bottom;
pos = (313,0);
},
{
name = top;
pos = (313,736);
}
);
layerId = "A6CBEFC3-C9E0-479E-A224-60A030287C4A";
shapes = (
{
closed = 1;
nodes = (
(95,0,l),
(240,0,l),
(240,289,l),
(513,289,l),
(513,429,l),
(240,429,l),
(240,596,l),
(555,596,l),
(555,736,l),
(95,736,l)
);
}
);
width = 600;
},
{
anchors = (
{
name = bottom;
pos = (305,0);
},
{
name = top;
pos = (305,725);
}
);
layerId = master01;
shapes = (
{
closed = 1;
nodes = (
(103,0,l),
(207,0,l),
(207,304,l),
(495,304,l),
(495,404,l),
(207,404,l),
(207,624,l),
(537,624,l),
(537,725,l),
(103,725,l)
);
}
);
width = 591;
}
);
metricLeft = H;
unicode = 70;
}
{
glyphname = G;
kernLeft = O;
layers = (
{
anchors = (
{
name = bottom;
pos = (381,0);
},
{
name = top;
pos = (411,736);
}
);
layerId = "A6CBEFC3-C9E0-479E-A224-60A030287C4A";
shapes = (
{
closed = 1;
nodes = (
(692,385,l),
(418,385,l),
(418,245,l),
(545,245,l),
(545,156,l),
(521,142,o),
(485,137,o),
(444,137,c),
(301,137,o),
(200,221,o),
(200,360,c),
(200,518,o),
(288,598,o),
(447,598,c),
(494,598,o),
(574,575,o),
(611,555,c),
(658,690,l),
(603,720,o),
(523,744,o),
(428,744,c),
(227,744,o),
(50,616,o),
(50,347,c),
(50,141,o),
(201,-8,o),
(440,-8,c),
(530,-8,o),
(657,37,o),
(692,74,c)
);
}
);
width = 762;
},
{
anchors = (
{
name = bottom;
pos = (384,0);
},
{
name = top;
pos = (408,725);
}
);
layerId = master01;
shapes = (
{
closed = 1;
nodes = (
(674,359,l),
(427,359,l),
(427,258,l),
(568,258,l),
(568,124,l),
(536,105,o),
(487,96,o),
(439,96,c),
(277,96,o),
(166,202,o),
(166,356,c),
(166,524,o),
(274,628,o),
(442,628,c),
(494,628,o),
(569,607,o),
(610,583,c),
(645,680,l),
(590,711,o),
(515,733,o),
(429,733,c),
(230,733,o),
(58,595,o),
(58,347,c),
(58,144,o),
(205,-8,o),
(437,-8,c),
(520,-8,o),
(633,29,o),
(674,64,c)
);
}
);
width = 753;
}
);
metricLeft = O;
unicode = 71;
}
{
glyphname = H;
layers = (
{
anchors = (
{
name = bottom;
pos = (405,0);
},
{
name = center;
pos = (405,368);
},
{
name = top;
pos = (405,736);
},
{
name = topleft;
pos = (45,736);
}
);
layerId = "A6CBEFC3-C9E0-479E-A224-60A030287C4A";
shapes = (
{
closed = 1;
nodes = (
(569,736,l),
(569,439,l),
(240,439,l),
(240,736,l),
(95,736,l),
(95,0,l),
(240,0,l),
(240,299,l),
(569,299,l),
(569,0,l),
(714,0,l),
(714,736,l)
);
}
);
width = 809;
},
{
anchors = (
{
name = bottom;
pos = (393,0);
},
{
name = center;
pos = (393,363);
},
{
name = top;
pos = (393,725);
},
{
name = topleft;
pos = (31,725);
}
);
layerId = master01;
shapes = (
{
closed = 1;
nodes = (
(578,725,l),
(578,414,l),
(207,414,l),
(207,725,l),
(103,725,l),
(103,0,l),
(207,0,l),
(207,314,l),
(578,314,l),
(578,0,l),
(683,0,l),
(683,725,l)
);
}
);
width = 786;
}
);
unicode = 72;
}
{
glyphname = I;
layers = (
{
anchors = (
{
name = bottom;
pos = (168,0);
},
{
name = ogonek;
pos = (213,10);
},
{
name = top;
pos = (168,756);
},
{
name = topleft;
pos = (45,736);
}
);
layerId = "A6CBEFC3-C9E0-479E-A224-60A030287C4A";
shapes = (
{
closed = 1;
nodes = (
(95,0,l),
(240,0,l),
(240,736,l),
(95,736,l)
);
}
);
width = 335;
},
{
anchors = (
{
name = bottom;
pos = (155,0);
},
{
name = ogonek;
pos = (183,10);
},
{
name = top;
pos = (155,739);
},
{
name = topleft;
pos = (31,725);
}
);
layerId = master01;
shapes = (
{
closed = 1;
nodes = (
(103,0,l),
(207,0,l),
(207,725,l),
(103,725,l)
);
}
);
width = 310;
}
);
metricLeft = H;
metricRight = H;
unicode = 73;
}
{
glyphname = J;
layers = (
{
anchors = (
{
name = bottom;
pos = (168,0);
},
{
name = top;
pos = (238,756);
}
);
layerId = "A6CBEFC3-C9E0-479E-A224-60A030287C4A";
shapes = (
{
closed = 1;
nodes = (
(305,736,l),
(159,736,l),
(159,158,ls),
(159,38,o),
(96,-7,o),
(5,-12,c),
(5,-153,l),
(182,-148,o),
(305,-37,o),
(305,155,cs)
);
}
);
width = 400;
},
{
anchors = (
{
name = bottom;
pos = (168,0);
},
{
name = top;
pos = (217,739);
}
);
layerId = master01;
shapes = (
{
closed = 1;
nodes = (
(268,725,l),
(163,725,l),
(163,138,ls),
(163,13,o),
(96,-43,o),
(3,-48,c),
(3,-150,l),
(157,-145,o),
(268,-43,o),
(268,135,cs)
);
}
);
width = 371;
}
);
metricRight = H;
unicode = 74;
}
{
glyphname = K;
kernRight = K;
layers = (
{
anchors = (
{
name = bottom;
pos = (330,0);
},
{
name = top;
pos = (380,736);
}
);
layerId = "A6CBEFC3-C9E0-479E-A224-60A030287C4A";
shapes = (
{
closed = 1;
nodes = (
(242,736,l),
(95,736,l),
(95,0,l),
(242,0,l),
(242,278,l),
(278,314,l),
(505,0,l),
(689,0,l),
(384,406,l),
(688,736,l),
(500,736,l),
(260,465,l),
(238,437,l),
(242,474,l)
);
}
);
width = 704;
},
{
anchors = (
{
name = bottom;
pos = (322,0);
},
{
name = top;
pos = (356,725);
}
);
layerId = master01;
shapes = (
{
closed = 1;
nodes = (
(209,725,l),
(103,725,l),
(103,0,l),
(209,0,l),
(208,290,l),
(265,345,l),
(523,0,l),
(656,0,l),
(342,411,l),
(642,725,l),
(506,725,l),
(220,423,l),
(206,403,l),
(209,439,l)
);
}
);
width = 683;
}
);
metricLeft = H;
unicode = 75;
}
{
glyphname = L;
kernRight = L;
layers = (
{
anchors = (
{
name = bottom;
pos = (328,0);
},
{
name = center;
pos = (328,368);
},
{
name = top;
pos = (165,756);
},
{
name = topright;
pos = (611,736);
}
);
layerId = "A6CBEFC3-C9E0-479E-A224-60A030287C4A";
shapes = (
{
closed = 1;
nodes = (
(95,0,l),
(586,0,l),
(586,140,l),
(240,140,l),
(240,736,l),
(95,736,l)
);
}
);
width = 641;
},
{
anchors = (
{
name = bottom;
pos = (323,0);
},
{
name = center;
pos = (323,363);
},
{
name = top;
pos = (153,739);
},
{
name = topright;
pos = (614,725);
}
);
layerId = master01;
shapes = (
{
closed = 1;
nodes = (
(103,0,l),
(571,0,l),
(571,101,l),
(207,101,l),
(207,725,l),
(103,725,l)
);
}
);
width = 625;
}
);
metricLeft = H;
unicode = 76;
}
{
glyphname = M;
layers = (
{
anchors = (
{
name = bottom;
pos = (474,0);
},
{
name = top;
pos = (474,736);
}
);
layerId = "A6CBEFC3-C9E0-479E-A224-60A030287C4A";
shapes = (
{
closed = 1;
nodes = (
(235,0,l),
(235,433,l),
(210,364,l),
(466,10,l),
(468,10,l),
(717,364,l),
(708,439,l),
(708,0,l),
(853,0,l),
(853,766,l),
(851,766,l),
(443,200,l),
(505,186,l),
(96,766,l),
(95,766,l),
(95,0,l)
);
}
);
width = 948;
},
{
anchors = (
{
name = bottom;
pos = (465,0);
},
{
name = top;
pos = (465,725);
}
);
layerId = master01;
shapes = (
{
closed = 1;
nodes = (
(204,0,l),
(204,508,l),
(186,459,l),
(460,78,l),
(462,78,l),
(730,459,l),
(724,512,l),
(724,0,l),
(828,0,l),
(828,749,l),
(826,749,l),
(443,213,l),
(488,204,l),
(104,749,l),
(103,749,l),
(103,0,l)
);
}
);
width = 931;
}
);
metricLeft = H;
metricRight = H;
unicode = 77;
}
{
glyphname = N;
layers = (
{
anchors = (
{
name = bottom;
pos = (427,0);
},
{
name = top;
pos = (407,736);
}
);
layerId = "A6CBEFC3-C9E0-479E-A224-60A030287C4A";
shapes = (
{
closed = 1;
nodes = (
(758,-30,l),
(758,736,l),
(612,736,l),
(615,277,l),
(647,263,l),
(101,765,l),
(95,765,l),
(95,0,l),
(242,0,l),
(239,450,l),
(196,474,l),
(754,-30,l)
);
}
);
width = 853;
},
{
anchors = (
{
name = bottom;
pos = (421,0);
},
{
name = top;
pos = (407,725);
}
);
layerId = master01;
shapes = (
{
closed = 1;
nodes = (
(737,-25,l),
(737,725,l),
(633,725,l),
(635,196,l),
(659,190,l),
(107,748,l),
(103,748,l),
(103,0,l),
(208,0,l),
(206,523,l),
(175,533,l),
(734,-25,l)
);
}
);
width = 840;
}
);
metricLeft = H;
metricRight = H;
unicode = 78;
}
{
glyphname = O;
kernLeft = O;
kernRight = O;
layers = (
{
anchors = (
{
name = bottom;
pos = (426,0);
},
{
name = center;
pos = (426,368);
},
{
name = ogonek;
pos = (597,10);
},
{
name = top;
pos = (426,746);
},
{
name = topleft;
pos = (20,736);
},
{
name = topright;
pos = (503,840);
}
);
annotations = (
{
pos = (300.18,381.51);
type = Text;
}
);
layerId = "A6CBEFC3-C9E0-479E-A224-60A030287C4A";
shapes = (
{
closed = 1;
nodes = (
(50,159,o),
(218,-8,o),
(425,-8,c),
(630,-8,o),
(802,160,o),
(802,367,c),
(802,570,o),
(630,744,o),
(425,744,c),
(218,744,o),
(50,570,o),
(50,367,c)
);
},
{
closed = 1;
nodes = (
(200,500,o),
(298,604,o),
(426,604,c),
(553,604,o),
(652,500,o),
(652,367,c),
(652,236,o),
(556,132,o),
(430,132,c),
(300,132,o),
(200,237,o),
(200,367,c)
);
}
);
width = 852;
},
{
anchors = (
{
name = bottom;
pos = (428,0);
},
{
name = center;
pos = (428,363);
},
{
name = ogonek;
pos = (575,10);
},
{
name = top;
pos = (428,732);
},
{
name = topleft;
pos = (22,725);
},
{
name = topright;
pos = (511,835);
}
);
layerId = master01;
shapes = (
{
closed = 1;
nodes = (
(58,154,o),
(223,-8,o),
(427,-8,c),
(630,-8,o),
(799,157,o),
(799,362,c),
(799,563,o),
(630,733,o),
(427,733,c),
(223,733,o),
(58,563,o),
(58,362,c)
);
},
{
closed = 1;
nodes = (
(166,510,o),
(279,632,o),
(428,632,c),
(574,632,o),
(691,512,o),
(691,362,c),
(691,212,o),
(576,93,o),
(430,93,c),
(282,93,o),
(166,213,o),
(166,361,c)
);
}
);
width = 857;
}
);
unicode = 79;
}
{
glyphname = P;
kernRight = P;
layers = (
{
anchors = (
{
name = bottom;
pos = (331,0);
},
{
name = top;
pos = (331,736);
}
);
layerId = "A6CBEFC3-C9E0-479E-A224-60A030287C4A";
shapes = (
{
closed = 1;
nodes = (
(95,736,l),
(95,0,l),
(240,0,l),
(240,233,l),
(344,233,ls),
(536,233,o),
(601,367,o),
(601,488,cs),
(601,639,o),
(500,736,o),
(318,736,cs)
);
},
{
closed = 1;
nodes = (
(240,374,l),
(240,596,l),
(344,596,ls),
(446,596,o),
(456,513,o),
(456,484,cs),
(456,446,o),
(431,374,o),
(343,374,cs)
);
}
);
width = 636;
},
{
anchors = (
{
name = bottom;
pos = (307,0);
},
{
name = top;
pos = (307,725);
}
);
layerId = master01;
shapes = (
{
closed = 1;
nodes = (
(103,725,l),
(103,0,l),
(207,0,l),
(207,260,l),
(314,260,ls),
(492,260,o),
(557,382,o),
(557,497,cs),
(557,641,o),
(461,725,o),
(301,725,cs)
);
},
{
closed = 1;
nodes = (
(207,362,l),
(207,624,l),
(318,624,ls),
(422,624,o),
(453,549,o),
(453,495,cs),
(453,446,o),
(423,362,o),
(313,362,cs)
);
}
);
width = 602;
}
);
metricLeft = H;
unicode = 80;
}
{
glyphname = Q;
kernLeft = O;
layers = (
{
anchors = (
{
name = bottom;
pos = (435,0);
},
{
name = top;
pos = (435,736);
}
);
layerId = "A6CBEFC3-C9E0-479E-A224-60A030287C4A";
shapes = (
{
closed = 1;
nodes = (
(425,0,l),
(843,0,l),
(843,142,l),
(615,142,l)
);
},
{
closed = 1;
nodes = (
(50,160,o),
(218,-8,o),
(425,-8,c),
(630,-8,o),
(802,160,o),
(802,367,c),
(802,570,o),
(630,744,o),
(425,744,c),
(218,744,o),
(50,570,o),
(50,367,c)
);
},
{
closed = 1;
nodes = (
(200,496,o),
(298,600,o),
(426,600,c),
(553,600,o),
(652,496,o),
(652,367,c),
(652,237,o),
(556,133,o),
(430,133,c),
(300,133,o),
(200,238,o),
(200,367,c)
);
}
);
width = 893;
},
{
anchors = (
{
name = bottom;
pos = (436,0);
},
{
name = top;
pos = (436,725);
}
);
layerId = master01;
shapes = (
{
closed = 1;
nodes = (
(447,0,l),
(831,0,l),
(831,102,l),
(586,102,l)
);
},
{
closed = 1;
nodes = (
(58,154,o),
(223,-8,o),
(427,-8,c),
(630,-8,o),
(799,157,o),
(799,362,c),
(799,563,o),
(630,733,o),
(427,733,c),
(223,733,o),
(58,563,o),
(58,362,c)
);
},
{
closed = 1;
nodes = (
(166,507,o),
(279,629,o),
(428,629,c),
(574,629,o),
(691,509,o),
(691,362,c),
(691,213,o),
(576,94,o),
(430,94,c),
(282,94,o),
(166,214,o),
(166,361,c)
);
}
);
width = 889;
}
);
metricLeft = O;
metricRight = O;
unicode = 81;
}
{
glyphname = R;
kernRight = R;
layers = (
{
anchors = (
{
name = bottom;
pos = (361,0);
},
{
name = top;
pos = (321,756);
}
);
layerId = "A6CBEFC3-C9E0-479E-A224-60A030287C4A";
shapes = (
{
closed = 1;
nodes = (
(95,736,l),
(95,0,l),
(240,0,l),
(240,234,l),
(344,234,l),
(540,234,o),
(606,367,o),
(606,488,c),
(606,639,o),
(503,736,o),
(318,736,c)
);
},
{
closed = 1;
nodes = (
(240,374,l),
(240,596,l),
(344,596,l),
(446,596,o),
(456,514,o),
(456,483,c),
(456,441,o),
(431,374,o),
(343,374,c)
);
},
{
closed = 1;
nodes = (
(306,280,l),
(492,0,l),
(661,0,l),
(479,284,l)
);
}
);
width = 686;
},
{
anchors = (
{
name = bottom;
pos = (330,0);
},
{
name = top;
pos = (303,739);
}
);
layerId = master01;
shapes = (
{
closed = 1;
nodes = (
(103,725,l),
(103,0,l),
(207,0,l),
(207,261,l),
(314,261,l),
(498,261,o),
(561,382,o),
(561,497,c),
(561,644,o),
(452,725,o),
(300,725,c)
);
},
{
closed = 1;
nodes = (
(207,362,l),
(207,624,l),
(318,624,l),
(420,624,o),
(453,546,o),
(453,493,c),
(453,438,o),
(423,362,o),
(312,362,c)
);
},
{
closed = 1;
nodes = (
(309,298,l),
(500,0,l),
(622,0,l),
(434,300,l)
);
}
);
width = 664;
}
);
metricLeft = H;
unicode = 82;
}
{
glyphname = S;
kernRight = S;
layers = (
{
anchors = (
{
name = bottom;
pos = (289,-10);
},
{
name = top;
pos = (289,736);
}
);
layerId = "A6CBEFC3-C9E0-479E-A224-60A030287C4A";
shapes = (
{
closed = 1;
nodes = (
(543,669,l),
(484,708,o),
(418,740,o),
(299,740,c),
(162,733,o),
(70,652,o),
(70,524,c),
(70,383,o),
(188,337,o),
(278,302,cs),
(336,279,o),
(385,247,o),
(385,203,c),
(385,139,o),
(323,120,o),
(271,120,c),
(219,120,o),
(147,146,o),
(96,184,c),
(32,71,l),
(109,16,o),
(200,-8,o),
(284,-8,c),
(448,-8,o),
(536,91,o),
(536,203,c),
(536,343,o),
(447,391,o),
(361,423,cs),
(290,449,o),
(220,483,o),
(220,535,c),
(220,586,o),
(258,611,o),
(321,611,c),
(372,611,o),
(432,589,o),
(488,558,c)
);
}
);
width = 583;
},
{
anchors = (
{
name = bottom;
pos = (290,-7);
},
{
name = top;
pos = (290,731);
}
);
layerId = master01;
shapes = (
{
closed = 1;
nodes = (
(519,669,l),
(464,702,o),
(394,729,o),
(298,729,c),
(171,724,o),
(82,649,o),
(82,532,c),
(82,404,o),
(192,361,o),
(283,327,cs),
(353,300,o),
(417,266,o),
(417,198,c),
(417,116,o),
(343,84,o),
(276,84,c),
(215,84,o),
(140,115,o),
(93,151,c),
(46,68,l),
(106,26,o),
(193,-8,o),
(286,-8,c),
(436,-8,o),
(526,83,o),
(526,198,c),
(526,335,o),
(432,381,o),
(343,414,cs),
(265,443,o),
(190,477,o),
(190,540,c),
(190,600,o),
(237,636,o),
(313,636,c),
(368,636,o),
(429,615,o),
(480,588,c)
);
}
);
width = 582;
}
);
unicode = 83;
}
{
glyphname = T;
kernLeft = T;
kernRight = T;
layers = (
{
anchors = (
{
name = bottom;
pos = (293,0);
},
{
name = center;
pos = (293,368);
},
{
name = top;
pos = (293,736);
}
);
layerId = "A6CBEFC3-C9E0-479E-A224-60A030287C4A";
shapes = (
{
closed = 1;
nodes = (
(45,596,l),
(217,596,l),
(217,0,l),
(362,0,l),
(362,596,l),
(541,596,l),
(541,736,l),
(45,736,l)
);
}
);
width = 586;
},
{
anchors = (
{
name = bottom;
pos = (291,0);
},
{
name = center;
pos = (291,363);
},
{
name = top;
pos = (291,725);
}
);
layerId = master01;
shapes = (
{
closed = 1;
nodes = (
(50,624,l),
(236,624,l),
(236,0,l),
(341,0,l),
(341,624,l),
(533,624,l),
(533,725,l),
(50,725,l)
);
}
);
width = 582;
}
);
unicode = 84;
}
{
glyphname = U;
kernLeft = U;
kernRight = U;
layers = (
{
anchors = (
{
name = bottom;
pos = (378,0);
},
{
name = ogonek;
pos = (542,10);
},
{
name = top;
pos = (378,756);
},
{
name = topright;
pos = (660,769);
}
);
layerId = "A6CBEFC3-C9E0-479E-A224-60A030287C4A";
shapes = (
{
closed = 1;
nodes = (
(225,736,l),
(80,736,l),
(80,269,ls),
(80,107,o),
(212,-8,o),
(377,-8,cs),
(543,-8,o),
(676,107,o),
(676,269,cs),
(676,736,l),
(533,736,l),
(533,272,ls),
(533,202,o),
(466,133,o),
(377,133,cs),
(295,133,o),
(225,202,o),
(225,272,cs)
);
}
);
width = 756;
},
{
anchors = (
{
name = bottom;
pos = (368,0);
},
{
name = ogonek;
pos = (516,10);
},
{
name = top;
pos = (368,739);
},
{
name = topright;
pos = (636,786);
}
);
layerId = master01;
shapes = (
{
closed = 1;
nodes = (
(197,725,l),
(92,725,l),
(92,256,ls),
(92,97,o),
(213,-8,o),
(367,-8,cs),
(521,-8,o),
(643,97,o),
(643,256,cs),
(643,725,l),
(540,725,l),
(540,259,ls),
(540,166,o),
(466,94,o),
(367,94,cs),
(272,94,o),
(197,166,o),
(197,259,cs)
);
}
);
width = 735;
}
);
unicode = 85;
}
{
glyphname = V;
kernLeft = V;
kernRight = V;
layers = (
{
anchors = (
{
name = bottom;
pos = (368,0);
},
{
name = top;
pos = (368,736);
}
);
layerId = "A6CBEFC3-C9E0-479E-A224-60A030287C4A";
shapes = (
{
closed = 1;
nodes = (
(32,736,l),
(368,-34,l),
(704,736,l),
(532,736,l),
(337,223,l),
(421,206,l),
(206,736,l)
);
}
);
width = 736;
},
{
anchors = (
{
name = bottom;
pos = (361,0);
},
{
name = top;
pos = (361,725);
}
);
layerId = master01;
shapes = (
{
closed = 1;
nodes = (
(39,725,l),
(361,-34,l),
(683,725,l),
(559,725,l),
(339,150,l),
(399,138,l),
(164,725,l)
);
}
);
width = 722;
}
);
unicode = 86;
}
{
glyphname = W;
kernLeft = W;
kernRight = W;
layers = (
{
anchors = (
{
name = bottom;
pos = (512,0);
},
{
name = top;
pos = (512,746);
}
);
layerId = "A6CBEFC3-C9E0-479E-A224-60A030287C4A";
shapes = (
{
closed = 1;
nodes = (
(328,-34,l),
(540,421,l),
(473,620,l),
(336,279,l),
(359,269,l),
(202,731,l),
(32,731,l)
);
},
{
closed = 1;
nodes = (
(707,-32,l),
(991,731,l),
(835,731,l),
(700,288,l),
(726,284,l),
(545,731,l),
(401,731,l)
);
}
);
width = 1023;
},
{
anchors = (
{
name = bottom;
pos = (506,0);
},
{
name = top;
pos = (506,732);
}
);
layerId = master01;
shapes = (
{
closed = 1;
nodes = (
(328,-34,l),
(523,415,l),
(475,557,l),
(333,191,l),
(351,184,l),
(161,721,l),
(39,721,l)
);
},
{
closed = 1;
nodes = (
(687,-32,l),
(971,721,l),
(859,721,l),
(681,196,l),
(702,192,l),
(495,721,l),
(391,721,l)
);
}
);
width = 1010;
}
);
metricLeft = V;
metricRight = V;
unicode = 87;
}
{
glyphname = X;
kernLeft = X;
layers = (
{
anchors = (
{
name = bottom;
pos = (363,0);
},
{
name = top;
pos = (363,736);
}
);
layerId = "A6CBEFC3-C9E0-479E-A224-60A030287C4A";
shapes = (
{
closed = 1;
nodes = (
(513,0,l),
(700,0,l),
(220,736,l),
(35,736,l)
);
},
{
closed = 1;
nodes = (
(205,0,l),
(355,266,l),
(287,412,l),
(25,0,l)
);
},
{
closed = 1;
nodes = (
(440,341,l),
(693,736,l),
(517,736,l),
(365,466,l)
);
}
);
width = 725;
},
{
anchors = (
{
name = bottom;
pos = (340,0);
},
{
name = top;
pos = (340,725);
}
);
layerId = master01;
shapes = (
{
closed = 1;
nodes = (
(513,0,l),
(648,0,l),
(175,725,l),
(43,725,l)
);
},
{
closed = 1;
nodes = (
(162,0,l),
(336,294,l),
(285,396,l),
(33,0,l)
);
},
{
closed = 1;
nodes = (
(395,346,l),
(638,725,l),
(512,725,l),
(340,435,l)
);
}
);
width = 681;
}
);
unicode = 88;
}
{
glyphname = Y;
kernLeft = Y;
kernRight = Y;
layers = (
{
anchors = (
{
name = bottom;
pos = (361,0);
},
{
name = top;
pos = (381,756);
},
{
name = topleft;
pos = (10,736);
}
);
layerId = "A6CBEFC3-C9E0-479E-A224-60A030287C4A";
shapes = (
{
closed = 1;
nodes = (
(286,0,l),
(431,0,l),
(431,229,l),
(707,736,l),
(528,736,l),
(341,351,l),
(384,354,l),
(194,736,l),
(15,736,l),
(286,229,l)
);
}
);
width = 722;
},
{
anchors = (
{
name = bottom;
pos = (348,0);
},
{
name = top;
pos = (362,737);
},
{
name = topleft;
pos = (16,725);
}
);
layerId = master01;
shapes = (
{
closed = 1;
nodes = (
(294,0,l),
(399,0,l),
(399,239,l),
(670,725,l),
(542,725,l),
(333,327,l),
(366,329,l),
(155,725,l),
(26,725,l),
(294,239,l)
);
}
);
width = 696;
}
);
unicode = 89;
}
{
glyphname = Z;
layers = (
{
anchors = (
{
name = bottom;
pos = (361,0);
},
{
name = top;
pos = (361,736);
}
);
layerId = "A6CBEFC3-C9E0-479E-A224-60A030287C4A";
shapes = (
{
closed = 1;
nodes = (
(671,0,l),
(671,140,l),
(276,140,l),
(284,124,l),
(672,736,l),
(263,736,l),
(239,736,o),
(231,730,o),
(231,759,cs),
(231,773,l),
(98,773,l),
(98,668,ls),
(98,627,o),
(152,596,o),
(195,596,cs),
(460,596,l),
(444,636,l),
(444,636,o),
(45,0,o),
(45,0,c)
);
}
);
width = 722;
},
{
anchors = (
{
name = bottom;
pos = (357,0);
},
{
name = top;
pos = (357,725);
}
);
layerId = master01;
shapes = (
{
closed = 1;
nodes = (
(660,0,l),
(660,101,l),
(215,101,l),
(221,88,l),
(651,725,l),
(221,725,l),
(198,725,o),
(190,724,o),
(190,748,cs),
(190,761,l),
(93,761,l),
(93,687,ls),
(93,648,o),
(136,624,o),
(177,624,cs),
(499,624,l),
(486,653,l),
(435,586,o),
(100,71,o),
(50,0,c)
);
}
);
width = 714;
}
);
unicode = 90;
}
{
glyphname = bracketleft;
layers = (
{
layerId = "A6CBEFC3-C9E0-479E-A224-60A030287C4A";
shapes = (
{
closed = 1;
nodes = (
(95,-152,l),
(329,-152,l),
(329,-23,l),
(240,-23,l),
(240,631,l),
(329,631,l),
(329,761,l),
(95,761,l)
);
}
);
width = 374;
},
{
layerId = master01;
shapes = (
{
closed = 1;
nodes = (
(103,-151,l),
(315,-151,l),
(315,-57,l),
(208,-57,l),
(208,662,l),
(315,662,l),
(315,756,l),
(103,756,l)
);
}
);
width = 364;
}
);
metricLeft = H;
unicode = 91;
}
{
glyphname = backslash;
layers = (
{
layerId = "A6CBEFC3-C9E0-479E-A224-60A030287C4A";
shapes = (
{
closed = 1;
nodes = (
(-10,751,l),
(85,494,o),
(179,238,o),
(274,-19,c),
(416,-19,l),
(321,238,o),
(227,494,o),
(132,751,c)
);
}
);
width = 430;
},
{
layerId = master01;
shapes = (
{
closed = 1;
nodes = (
(-2,746,l),
(93,491,o),
(186,236,o),
(280,-19,c),
(383,-19,l),
(289,236,o),
(195,491,o),
(101,746,c)
);
}
);
width = 396;
}
);
unicode = 92;
}
{
glyphname = bracketright;
layers = (
{
layerId = "A6CBEFC3-C9E0-479E-A224-60A030287C4A";
shapes = (
{
closed = 1;
nodes = (
(279,761,l),
(45,761,l),
(45,632,l),
(134,632,l),
(134,-22,l),
(45,-22,l),
(45,-152,l),
(279,-152,l)
);
}
);
width = 374;
},
{
layerId = master01;
shapes = (
{
closed = 1;
nodes = (
(262,756,l),
(50,756,l),
(50,663,l),
(157,663,l),
(157,-57,l),
(50,-57,l),
(50,-151,l),
(262,-151,l)
);
}
);
width = 365;
}
);
metricRight = H;
unicode = 93;
}
{
glyphname = asciicircum;
layers = (
{
layerId = "A6CBEFC3-C9E0-479E-A224-60A030287C4A";
shapes = (
{
closed = 1;
nodes = (
(359,489,l),
(236,673,l),
(114,489,l),
(199,489,l),
(236,534,l),
(274,489,l)
);
}
);
width = 479;
},
{
layerId = master01;
shapes = (
{
closed = 1;
nodes = (
(357,486,l),
(235,669,l),
(114,486,l),
(177,486,l),
(235,565,l),
(293,486,l)
);
}
);
width = 476;
}
);
unicode = 94;
}
{
glyphname = underscore;
layers = (
{
layerId = "A6CBEFC3-C9E0-479E-A224-60A030287C4A";
shapes = (
{
closed = 1;
nodes = (
(102,0,l),
(510,0,l),
(510,121,l),
(102,121,l)
);
}
);
width = 612;
},
{
layerId = master01;
shapes = (
{
closed = 1;
nodes = (
(102,0,l),
(507,0,l),
(507,88,l),
(102,88,l)
);
}
);
width = 608;
}
);
unicode = 95;
}
{
glyphname = grave;
layers = (
{
layerId = "A6CBEFC3-C9E0-479E-A224-60A030287C4A";
shapes = (
{
closed = 1;
nodes = (
(162,489,l),
(247,489,l),
(185,624,l),
(30,624,l)
);
}
);
width = 317;
},
{
layerId = master01;
shapes = (
{
closed = 1;
nodes = (
(136,486,l),
(199,486,l),
(128,620,l),
(17,620,l)
);
}
);
width = 281;
}
);
unicode = 96;
}
{
glyphname = a;
kernLeft = o;
layers = (
{
anchors = (
{
name = bottom;
pos = (307,0);
},
{
name = ogonek;
pos = (629,10);
},
{
name = top;
pos = (327,457);
}
);
layerId = "A6CBEFC3-C9E0-479E-A224-60A030287C4A";
shapes = (
{
closed = 1;
nodes = (
(359,-12,o),
(408,65,o),
(413,65,c),
(402,95,l),
(402,0,l),
(542,0,l),
(542,437,l),
(412,437,l),
(399,373,l),
(405,390,l),
(376,425,o),
(338,459,o),
(251,459,c),
(140,459,o),
(38,366,o),
(38,218,c),
(38,59,o),
(134,-12,o),
(256,-12,c)
);
},
{
closed = 1;
nodes = (
(234,102,o),
(180,155,o),
(180,225,c),
(180,295,o),
(231,345,o),
(291,345,c),
(344,345,o),
(386,318,o),
(402,275,c),
(402,168,l),
(380,124,o),
(346,102,o),
(296,102,c)
);
}
);
width = 614;
},
{
anchors = (
{
name = bottom;
pos = (296,0);
},
{
name = ogonek;
pos = (583,10);
},
{
name = top;
pos = (309,432);
}
);
layerId = master01;
shapes = (
{
closed = 1;
nodes = (
(351,-10,o),
(410,59,o),
(421,81,c),
(411,106,l),
(411,0,l),
(512,0,l),
(512,418,l),
(419,418,l),
(409,334,l),
(415,350,l),
(387,396,o),
(336,435,o),
(256,435,c),
(141,435,o),
(43,349,o),
(43,209,c),
(43,65,o),
(136,-10,o),
(254,-10,c)
);
},
{
closed = 1;
nodes = (
(208,73,o),
(146,134,o),
(146,214,c),
(146,296,o),
(206,353,o),
(278,353,c),
(342,353,o),
(395,313,o),
(411,258,c),
(411,172,l),
(396,111,o),
(347,73,o),
(281,73,c)
);
}
);
width = 591;
}
);
metricLeft = o;
metricRight = n;
unicode = 97;
}
{
glyphname = b;
layers = (
{
anchors = (
{
name = bottom;
pos = (313,0);
},
{
name = top;
pos = (313,437);
}
);
layerId = "A6CBEFC3-C9E0-479E-A224-60A030287C4A";
shapes = (
{
closed = 1;
nodes = (
(479,-12,o),
(586,79,o),
(586,228,c),
(586,376,o),
(491,459,o),
(378,459,c),
(304,459,o),
(246,436,o),
(211,407,c),
(211,362,l),
(211,789,l),
(72,789,l),
(72,0,l),
(212,0,l),
(212,85,l),
(201,55,l),
(238,15,o),
(285,-12,o),
(359,-12,c)
);
},
{
closed = 1;
nodes = (
(273,106,o),
(236,128,o),
(212,172,c),
(212,279,l),
(229,322,o),
(273,349,o),
(328,349,c),
(390,349,o),
(444,299,o),
(444,229,c),
(444,159,o),
(390,106,o),
(328,106,c)
);
}
);
width = 624;
},
{
anchors = (
{
name = bottom;
pos = (300,0);
},
{
name = top;
pos = (300,418);
}
);
layerId = master01;
shapes = (
{
closed = 1;
nodes = (
(453,-10,o),
(555,74,o),
(555,216,c),
(555,351,o),
(462,435,o),
(351,435,c),
(274,435,o),
(210,405,o),
(177,363,c),
(180,326,l),
(180,777,l),
(79,777,l),
(79,0,l),
(180,0,l),
(180,103,l),
(170,74,l),
(204,25,o),
(261,-10,o),
(338,-10,c)
);
},
{
closed = 1;
nodes = (
(247,75,o),
(197,116,o),
(180,172,c),
(180,260,l),
(196,317,o),
(249,355,o),
(316,355,c),
(393,355,o),
(452,295,o),
(452,216,c),
(452,135,o),
(394,75,o),
(316,75,c)
);
}
);
width = 598;
}
);
metricLeft = n;
metricRight = o;
unicode = 98;
}
{
glyphname = c;
kernLeft = o;
layers = (
{
anchors = (
{
name = bottom;
pos = (238,0);
},
{
name = top;
pos = (256,447);
}
);
layerId = "A6CBEFC3-C9E0-479E-A224-60A030287C4A";
shapes = (
{
closed = 1;
nodes = (
(373,127,l),
(354,111,o),
(328,102,o),
(297,102,cs),
(225,102,o),
(178,154,o),
(178,219,cs),
(178,287,o),
(225,335,o),
(283,335,cs),
(327,335,o),
(360,316,o),
(379,301,c),
(447,391,l),
(406,426,o),
(349,449,o),
(270,449,cs),
(151,449,o),
(38,365,o),
(38,219,cs),
(38,73,o),
(135,-12,o),
(285,-12,cs),
(341,-12,o),
(404,8,o),
(443,39,c)
);
}
);
width = 479;
},
{
anchors = (
{
name = bottom;
pos = (229,0);
},
{
name = top;
pos = (254,425);
}
);
layerId = master01;
shapes = (
{
closed = 1;
nodes = (
(370,102,l),
(347,84,o),
(317,73,o),
(282,73,cs),
(201,73,o),
(144,133,o),
(144,209,cs),
(144,287,o),
(201,346,o),
(273,346,cs),
(316,346,o),
(351,328,o),
(374,310,c),
(424,375,l),
(385,408,o),
(333,428,o),
(264,428,cs),
(148,428,o),
(43,344,o),
(43,209,cs),
(43,75,o),
(137,-10,o),
(274,-10,cs),
(327,-10,o),
(383,8,o),
(421,39,c)
);
}
);
width = 460;
}
);
metricLeft = o;
unicode = 99;
}
{
glyphname = d;
kernLeft = o;
layers = (
{
anchors = (
{
name = bottom;
pos = (312,0);
},
{
name = center;
pos = (479,642);
},
{
name = top;
pos = (312,437);
},
{
name = topright;
pos = (607,437);
}
);
layerId = "A6CBEFC3-C9E0-479E-A224-60A030287C4A";
shapes = (
{
closed = 1;
nodes = (
(323,-12,o),
(378,17,o),
(423,55,c),
(412,85,l),
(412,0,l),
(552,0,l),
(552,789,l),
(413,789,l),
(413,362,l),
(413,406,l),
(378,442,o),
(324,459,o),
(268,459,c),
(135,459,o),
(38,375,o),
(38,227,c),
(38,78,o),
(128,-12,o),
(250,-12,c)
);
},
{
closed = 1;
nodes = (
(234,106,o),
(180,159,o),
(180,229,c),
(180,299,o),
(234,349,o),
(296,349,c),
(352,349,o),
(396,322,o),
(412,279,c),
(412,172,l),
(388,128,o),
(352,106,o),
(296,106,c)
);
}
);
width = 624;
},
{
anchors = (
{
name = bottom;
pos = (299,0);
},
{
name = center;
pos = (466,637);
},
{
name = top;
pos = (299,418);
},
{
name = topright;
pos = (578,418);
}
);
layerId = master01;
shapes = (
{
closed = 1;
nodes = (
(326,-10,o),
(388,25,o),
(428,73,c),
(417,100,l),
(417,0,l),
(519,0,l),
(519,777,l),
(418,777,l),
(418,326,l),
(422,361,l),
(389,408,o),
(326,435,o),
(262,435,c),
(138,435,o),
(43,354,o),
(43,215,c),
(43,78,o),
(132,-10,o),
(250,-10,c)
);
},
{
closed = 1;
nodes = (
(208,75,o),
(146,137,o),
(146,216,c),
(146,298,o),
(208,355,o),
(281,355,c),
(348,355,o),
(402,315,o),
(417,259,c),
(417,176,l),
(401,115,o),
(351,75,o),
(281,75,c)
);
}
);
width = 598;
}
);
metricLeft = o;
metricRight = n;
unicode = 100;
}
{
glyphname = e;
kernLeft = o;
layers = (
{
anchors = (
{
name = bottom;
pos = (278,0);
},
{
name = ogonek;
pos = (475,10);
},
{
name = top;
pos = (290,458);
}
);
layerId = "A6CBEFC3-C9E0-479E-A224-60A030287C4A";
shapes = (
{
closed = 1;
nodes = (
(335,-12,o),
(392,5,o),
(439,32,c),
(377,136,l),
(349,118,o),
(321,107,o),
(290,107,c),
(226,107,o),
(176,149,o),
(176,231,c),
(176,303,o),
(216,349,o),
(279,349,c),
(334,349,o),
(358,318,o),
(369,284,c),
(398,297,l),
(152,214,l),
(183,138,l),
(523,246,l),
(499,383,o),
(415,458,o),
(290,458,c),
(150,458,o),
(38,354,o),
(38,223,c),
(38,85,o),
(127,-12,o),
(287,-12,c)
);
}
);
width = 553;
},
{
anchors = (
{
name = bottom;
pos = (264,0);
},
{
name = ogonek;
pos = (456,10);
},
{
name = top;
pos = (272,432);
}
);
layerId = master01;
shapes = (
{
closed = 1;
nodes = (
(325,-10,o),
(379,8,o),
(422,36,c),
(376,111,l),
(346,89,o),
(313,76,o),
(277,76,c),
(200,76,o),
(143,133,o),
(143,218,c),
(143,298,o),
(195,355,o),
(270,355,c),
(330,355,o),
(363,318,o),
(379,276,c),
(400,290,l),
(126,190,l),
(150,132,l),
(491,250,l),
(465,367,o),
(389,435,o),
(277,435,c),
(147,435,o),
(43,336,o),
(43,212,c),
(43,83,o),
(131,-10,o),
(275,-10,c)
);
}
);
width = 525;
}
);
metricLeft = o;
unicode = 101;
}
{
glyphname = f;
kernRight = f;
layers = (
{
anchors = (
{
name = bottom;
pos = (218,0);
},
{
name = top;
pos = (218,437);
}
);
layerId = "A6CBEFC3-C9E0-479E-A224-60A030287C4A";
shapes = (
{
closed = 1;
nodes = (
(254,0,l),
(254,315,l),
(386,315,l),
(386,439,l),
(254,439,l),
(254,587,l),
(254,645,o),
(282,671,o),
(322,671,c),
(338,671,o),
(357,666,o),
(371,649,c),
(430,750,l),
(395,775,o),
(344,786,o),
(307,786,c),
(182,786,o),
(114,705,o),
(114,591,c),
(114,439,l),
(40,439,l),
(40,315,l),
(114,315,l),
(114,0,l)
);
}
);
width = 435;
},
{
anchors = (
{
name = bottom;
pos = (194,0);
},
{
name = top;
pos = (194,418);
}
);
layerId = master01;
shapes = (
{
closed = 1;
nodes = (
(215,0,l),
(215,328,l),
(347,328,l),
(347,418,l),
(215,418,l),
(215,587,l),
(215,664,o),
(244,694,o),
(291,694,c),
(306,694,o),
(322,690,o),
(334,677,c),
(377,750,l),
(349,768,o),
(310,777,o),
(281,777,c),
(172,777,o),
(114,708,o),
(114,589,c),
(114,418,l),
(43,418,l),
(43,328,l),
(114,328,l),
(114,0,l)
);
}
);
width = 388;
}
);
unicode = 102;
}
{
glyphname = g;
kernLeft = o;
layers = (
{
anchors = (
{
name = bottom;
pos = (316,0);
},
{
name = top;
pos = (316,457);
}
);
layerId = "A6CBEFC3-C9E0-479E-A224-60A030287C4A";
shapes = (
{
closed = 1;
nodes = (
(441,-220,o),
(561,-128,o),
(561,0,c),
(561,437,l),
(432,437,l),
(417,389,l),
(422,402,l),
(394,434,o),
(337,459,o),
(261,459,c),
(147,459,o),
(38,358,o),
(38,221,c),
(38,87,o),
(139,-12,o),
(258,-12,c),
(349,-12,o),
(404,28,o),
(426,73,c),
(421,98,l),
(421,2,l),
(421,-64,o),
(362,-98,o),
(296,-98,c),
(229,-98,o),
(192,-66,o),
(162,-38,c),
(80,-134,l),
(124,-170,o),
(180,-220,o),
(298,-220,c)
);
},
{
closed = 1;
nodes = (
(179,295,o),
(232,345,o),
(300,345,c),
(357,345,o),
(402,318,o),
(421,275,c),
(421,168,l),
(396,124,o),
(357,102,o),
(300,102,c),
(232,102,o),
(179,155,o),
(179,225,c)
);
}
);
width = 633;
},
{
anchors = (
{
name = bottom;
pos = (302,0);
},
{
name = top;
pos = (302,432);
}
);
layerId = master01;
shapes = (
{
closed = 1;
nodes = (
(430,-208,o),
(525,-118,o),
(525,-3,c),
(525,418,l),
(432,418,l),
(422,343,l),
(427,360,l),
(399,404,o),
(335,435,o),
(261,435,c),
(146,435,o),
(43,341,o),
(43,211,c),
(43,85,o),
(139,-10,o),
(255,-10,c),
(344,-10,o),
(407,33,o),
(431,89,c),
(424,108,l),
(424,-1,l),
(423,-73,o),
(371,-119,o),
(281,-119,c),
(223,-119,o),
(181,-95,o),
(140,-55,c),
(80,-124,l),
(132,-170,o),
(187,-208,o),
(283,-208,c)
);
},
{
closed = 1;
nodes = (
(145,295,o),
(206,353,o),
(284,353,c),
(352,353,o),
(406,314,o),
(424,257,c),
(424,171,l),
(407,113,o),
(354,73,o),
(284,73,c),
(206,73,o),
(145,134,o),
(145,214,c)
);
}
);
width = 604;
}
);
metricLeft = o;
metricRight = n;
unicode = 103;
}
{
glyphname = h;
layers = (
{
anchors = (
{
name = bottom;
pos = (297,0);
},
{
name = center;
pos = (156,625);
},
{
name = top;
pos = (141,789);
}
);
background = {
shapes = (
{
closed = 1;
nodes = (
(188,789,l),
(72,789,l),
(72,0,l),
(188,0,l),
(188,201,ls),
(188,277,o),
(236,334,o),
(311,334,c),
(367,331,o),
(390,299,o),
(392,260,c),
(392,0,l),
(508,0,l),
(508,318,l),
(506,397,o),
(445,450,o),
(354,449,cs),
(268,448,o),
(219,402,o),
(188,332,c)
);
}
);
};
layerId = "A6CBEFC3-C9E0-479E-A224-60A030287C4A";
shapes = (
{
closed = 1;
nodes = (
(212,0,l),
(212,178,l),
(212,271,o),
(253,339,o),
(318,339,c),
(363,339,o),
(380,314,o),
(382,275,c),
(382,0,l),
(522,0,l),
(522,327,l),
(520,404,o),
(458,458,o),
(376,458,c),
(295,458,o),
(239,421,o),
(208,366,c),
(209,349,l),
(209,789,l),
(72,789,l),
(72,0,l)
);
}
);
width = 594;
},
{
anchors = (
{
name = bottom;
pos = (280,0);
},
{
name = center;
pos = (139,605);
},
{
name = top;
pos = (127,772);
}
);
layerId = master01;
shapes = (
{
closed = 1;
nodes = (
(180,0,l),
(180,191,l),
(180,282,o),
(233,348,o),
(304,348,c),
(355,347,o),
(377,317,o),
(379,274,c),
(379,0,l),
(480,0,l),
(480,309,l),
(478,383,o),
(422,434,o),
(344,434,c),
(264,434,o),
(205,395,o),
(176,340,c),
(178,323,l),
(178,777,l),
(79,777,l),
(79,0,l)
);
}
);
width = 559;
}
);
metricLeft = n;
metricRight = n;
unicode = 104;
}
{
glyphname = k;
kernRight = k;
layers = (
{
anchors = (
{
name = bottom;
pos = (272,0);
},
{
name = top;
pos = (272,437);
}
);
layerId = "A6CBEFC3-C9E0-479E-A224-60A030287C4A";
shapes = (
{
closed = 1;
nodes = (
(212,0,l),
(212,789,l),
(72,789,l),
(72,0,l)
);
},
{
closed = 1;
nodes = (
(231,217,l),
(358,0,l),
(521,0,l),
(323,297,l)
);
},
{
closed = 1;
nodes = (
(505,373,l),
(420,448,l),
(156,254,l),
(170,121,l)
);
}
);
width = 546;
},
{
anchors = (
{
name = bottom;
pos = (253,0);
},
{
name = top;
pos = (253,418);
}
);
layerId = master01;
shapes = (
{
closed = 1;
nodes = (
(180,0,l),
(180,777,l),
(79,777,l),
(79,0,l)
);
},
{
closed = 1;
nodes = (
(215,222,l),
(356,0,l),
(474,0,l),
(282,279,l)
);
},
{
closed = 1;
nodes = (
(454,373,l),
(393,427,l),
(139,227,l),
(149,130,l)
);
}
);
width = 506;
}
);
metricLeft = n;
unicode = 107;
}
{
glyphname = l;
layers = (
{
anchors = (
{
name = bottom;
pos = (142,0);
},
{
name = center;
pos = (142,219);
},
{
name = top;
pos = (142,807);
},
{
name = topright;
pos = (267,437);
}
);
layerId = "A6CBEFC3-C9E0-479E-A224-60A030287C4A";
shapes = (
{
closed = 1;
nodes = (
(72,0,l),
(212,0,l),
(212,789,l),
(72,789,l)
);
}
);
width = 284;
},
{
anchors = (
{
name = bottom;
pos = (130,0);
},
{
name = center;
pos = (130,209);
},
{
name = top;
pos = (132,789);
},
{
name = topright;
pos = (240,418);
}
);
layerId = master01;
shapes = (
{
closed = 1;
nodes = (
(79,0,l),
(180,0,l),
(180,777,l),
(79,777,l)
);
}
);
width = 259;
}
);
metricLeft = n;
metricRight = n;
unicode = 108;
}
{
glyphname = m;
kernLeft = n;
layers = (
{
anchors = (
{
name = bottom;
pos = (432,0);
},
{
name = top;
pos = (432,437);
}
);
layerId = "A6CBEFC3-C9E0-479E-A224-60A030287C4A";
shapes = (
{
closed = 1;
nodes = (
(72,437,l),
(72,0,l),
(212,0,l),
(212,181,l),
(212,257,o),
(247,338,o),
(313,338,c),
(352,335,o),
(360,309,o),
(362,270,c),
(362,0,l),
(502,0,l),
(502,179,l),
(502,257,o),
(537,338,o),
(606,338,c),
(644,335,o),
(650,309,o),
(652,270,c),
(652,0,l),
(791,0,l),
(791,328,l),
(789,405,o),
(735,459,o),
(648,459,c),
(590,459,o),
(535,423,o),
(498,368,c),
(503,369,l),
(488,430,o),
(438,459,o),
(367,459,c),
(294,459,o),
(242,425,o),
(208,366,c),
(210,360,l),
(199,437,l)
);
}
);
width = 863;
},
{
anchors = (
{
name = bottom;
pos = (416,0);
},
{
name = top;
pos = (416,418);
}
);
layerId = master01;
shapes = (
{
closed = 1;
nodes = (
(79,418,l),
(79,0,l),
(180,0,l),
(180,193,l),
(180,273,o),
(229,348,o),
(300,348,c),
(347,345,o),
(363,314,o),
(365,272,c),
(365,0,l),
(466,0,l),
(466,194,l),
(468,273,o),
(516,348,o),
(589,348,c),
(635,345,o),
(650,314,o),
(652,272,c),
(652,0,l),
(752,0,l),
(752,310,l),
(750,384,o),
(699,435,o),
(617,435,c),
(555,435,o),
(495,399,o),
(462,339,c),
(467,343,l),
(456,401,o),
(406,435,o),
(337,435,c),
(264,435,o),
(205,398,o),
(174,335,c),
(179,327,l),
(170,418,l)
);
}
);
width = 831;
}
);
metricLeft = n;
metricRight = n;
unicode = 109;
}
{
glyphname = n;
kernLeft = n;
kernRight = n;
layers = (
{
anchors = (
{
name = bottom;
pos = (297,0);
},
{
name = top;
pos = (297,447);
}
);
layerId = "A6CBEFC3-C9E0-479E-A224-60A030287C4A";
shapes = (
{
closed = 1;
nodes = (
(72,437,l),
(72,0,l),
(212,0,l),
(212,178,l),
(212,271,o),
(253,339,o),
(318,339,c),
(363,339,o),
(380,314,o),
(382,275,c),
(382,0,l),
(522,0,l),
(522,327,l),
(520,404,o),
(458,458,o),
(376,458,c),
(295,458,o),
(239,421,o),
(208,366,c),
(210,359,l),
(199,437,l)
);
}
);
width = 594;
},
{
anchors = (
{
name = bottom;
pos = (280,0);
},
{
name = top;
pos = (280,425);
}
);
layerId = master01;
shapes = (
{
closed = 1;
nodes = (
(79,418,l),
(79,0,l),
(180,0,l),
(180,191,l),
(180,283,o),
(233,348,o),
(304,348,c),
(355,347,o),
(377,317,o),
(379,274,c),
(379,0,l),
(480,0,l),
(480,309,l),
(478,383,o),
(422,434,o),
(344,434,c),
(264,434,o),
(202,395,o),
(175,335,c),
(179,321,l),
(170,418,l)
);
}
);
width = 559;
}
);
unicode = 110;
}
{
glyphname = o;
kernLeft = o;
kernRight = o;
layers = (
{
anchors = (
{
name = bottom;
pos = (286,0);
},
{
name = center;
pos = (286,219);
},
{
name = ogonek;
pos = (517,10);
},
{
name = top;
pos = (286,457);
},
{
name = topright;
pos = (450,437);
}
);
layerId = "A6CBEFC3-C9E0-479E-A224-60A030287C4A";
shapes = (
{
closed = 1;
nodes = (
(38,76,o),
(142,-12,o),
(287,-12,c),
(440,-12,o),
(533,90,o),
(533,224,c),
(533,358,o),
(439,458,o),
(289,458,c),
(140,458,o),
(38,358,o),
(38,224,c)
);
},
{
closed = 1;
nodes = (
(179,292,o),
(224,344,o),
(285,344,c),
(350,344,o),
(392,292,o),
(392,223,c),
(392,154,o),
(350,102,o),
(285,102,c),
(224,102,o),
(179,154,o),
(179,223,c)
);
}
);
width = 571;
},
{
anchors = (
{
name = bottom;
pos = (275,0);
},
{
name = center;
pos = (275,209);
},
{
name = ogonek;
pos = (485,10);
},
{
name = top;
pos = (275,432);
},
{
name = topright;
pos = (418,418);
}
);
layerId = master01;
shapes = (
{
closed = 1;
nodes = (
(43,76,o),
(142,-10,o),
(275,-10,c),
(414,-10,o),
(506,87,o),
(506,213,c),
(506,339,o),
(414,435,o),
(277,435,c),
(140,435,o),
(43,339,o),
(43,213,c)
);
},
{
closed = 1;
nodes = (
(145,288,o),
(200,352,o),
(274,352,c),
(350,352,o),
(404,291,o),
(404,212,c),
(404,133,o),
(350,73,o),
(274,73,c),
(201,73,o),
(145,133,o),
(145,212,c)
);
}
);
width = 549;
}
);
unicode = 111;
}
{
glyphname = p;
kernRight = o;
layers = (
{
anchors = (
{
name = bottom;
pos = (313,0);
},
{
name = top;
pos = (313,437);
}
);
layerId = "A6CBEFC3-C9E0-479E-A224-60A030287C4A";
shapes = (
{
closed = 1;
nodes = (
(485,-12,o),
(586,72,o),
(586,220,c),
(586,369,o),
(496,459,o),
(374,459,c),
(301,459,o),
(246,430,o),
(201,392,c),
(212,362,l),
(192,447,l),
(72,447,l),
(72,-210,l),
(211,-210,l),
(211,85,l),
(207,44,l),
(240,8,o),
(294,-12,o),
(346,-12,c)
);
},
{
closed = 1;
nodes = (
(267,98,o),
(227,125,o),
(212,168,c),
(212,275,l),
(236,319,o),
(272,341,o),
(328,341,c),
(392,341,o),
(444,292,o),
(444,218,c),
(444,147,o),
(385,98,o),
(318,98,c)
);
}
);
width = 624;
},
{
anchors = (
{
name = bottom;
pos = (300,0);
},
{
name = top;
pos = (300,418);
}
);
layerId = master01;
shapes = (
{
closed = 1;
nodes = (
(458,-10,o),
(555,74,o),
(555,210,c),
(555,346,o),
(466,435,o),
(348,435,c),
(272,435,o),
(210,400,o),
(170,351,c),
(180,322,l),
(166,425,l),
(79,425,l),
(79,-201,l),
(180,-201,l),
(180,98,l),
(174,67,l),
(206,19,o),
(267,-10,o),
(329,-10,c)
);
},
{
closed = 1;
nodes = (
(244,70,o),
(191,113,o),
(180,173,c),
(180,248,l),
(197,309,o),
(247,350,o),
(316,350,c),
(392,350,o),
(452,291,o),
(452,209,c),
(452,129,o),
(387,70,o),
(309,70,c)
);
}
);
width = 598;
}
);
metricLeft = n;
metricRight = o;
unicode = 112;
}
{
glyphname = q;
kernLeft = o;
layers = (
{
anchors = (
{
name = bottom;
pos = (312,0);
},
{
name = top;
pos = (312,437);
}
);
layerId = "A6CBEFC3-C9E0-479E-A224-60A030287C4A";
shapes = (
{
closed = 1;
nodes = (
(320,-12,o),
(380,11,o),
(415,40,c),
(413,85,l),
(413,-210,l),
(552,-210,l),
(552,447,l),
(412,447,l),
(412,362,l),
(423,392,l),
(386,432,o),
(340,459,o),
(265,459,c),
(145,459,o),
(38,368,o),
(38,219,c),
(38,71,o),
(133,-12,o),
(246,-12,c)
);
},
{
closed = 1;
nodes = (
(234,98,o),
(180,148,o),
(180,218,c),
(180,288,o),
(234,341,o),
(296,341,c),
(352,341,o),
(388,319,o),
(412,275,c),
(412,168,l),
(396,125,o),
(352,98,o),
(296,98,c)
);
}
);
width = 624;
},
{
anchors = (
{
name = bottom;
pos = (299,0);
},
{
name = top;
pos = (299,418);
}
);
layerId = master01;
shapes = (
{
closed = 1;
nodes = (
(324,-10,o),
(389,20,o),
(422,63,c),
(418,103,l),
(418,-201,l),
(519,-201,l),
(519,425,l),
(417,425,l),
(417,322,l),
(428,351,l),
(394,401,o),
(337,435,o),
(263,435,c),
(144,435,o),
(43,346,o),
(43,209,c),
(43,74,o),
(136,-10,o),
(247,-10,c)
);
},
{
closed = 1;
nodes = (
(208,70,o),
(146,130,o),
(146,209,c),
(146,288,o),
(208,350,o),
(281,350,c),
(351,350,o),
(401,309,o),
(417,248,c),
(417,172,l),
(405,112,o),
(350,70,o),
(281,70,c)
);
}
);
width = 598;
}
);
metricLeft = o;
metricRight = n;
unicode = 113;
}
{
glyphname = r;
kernLeft = n;
kernRight = r;
layers = (
{
anchors = (
{
name = bottom;
pos = (127,0);
},
{
name = top;
pos = (194,437);
}
);
layerId = "A6CBEFC3-C9E0-479E-A224-60A030287C4A";
shapes = (
{
closed = 1;
nodes = (
(72,437,l),
(72,0,l),
(211,0,l),
(211,171,l),
(211,247,o),
(270,330,o),
(368,319,c),
(375,459,l),
(340,459,o),
(246,412,o),
(208,335,c),
(211,317,l),
(198,437,l)
);
}
);
width = 410;
},
{
anchors = (
{
name = bottom;
pos = (137,0);
},
{
name = top;
pos = (183,418);
}
);
layerId = master01;
shapes = (
{
closed = 1;
nodes = (
(79,418,l),
(79,0,l),
(180,0,l),
(180,186,l),
(180,265,o),
(244,341,o),
(338,335,c),
(343,435,l),
(296,435,o),
(208,389,o),
(175,314,c),
(179,298,l),
(169,418,l)
);
}
);
width = 381;
}
);
metricLeft = n;
unicode = 114;
}
{
glyphname = s;
kernLeft = s;
layers = (
{
anchors = (
{
name = bottom;
pos = (219,-10);
},
{
name = top;
pos = (225,447);
}
);
layerId = "A6CBEFC3-C9E0-479E-A224-60A030287C4A";
shapes = (
{
closed = 1;
nodes = (
(341,-9,o),
(402,65,o),
(402,146,c),
(402,211,o),
(362,249,o),
(299,270,c),
(252,285,o),
(196,292,o),
(198,331,c),
(198,349,o),
(219,366,o),
(255,365,c),
(282,364,o),
(316,348,o),
(341,328,c),
(394,410,l),
(348,443,o),
(302,457,o),
(229,457,c),
(106,457,o),
(56,378,o),
(56,312,c),
(56,254,o),
(89,202,o),
(169,177,c),
(216,163,o),
(262,154,o),
(262,120,c),
(262,96,o),
(236,86,o),
(202,86,c),
(173,86,o),
(135,101,o),
(93,140,c),
(35,63,l),
(77,17,o),
(142,-9,o),
(214,-9,c)
);
}
);
width = 447;
},
{
anchors = (
{
name = bottom;
pos = (204,-7);
},
{
name = top;
pos = (208,425);
}
);
layerId = master01;
shapes = (
{
closed = 1;
nodes = (
(311,-9,o),
(365,56,o),
(365,132,c),
(365,198,o),
(319,229,o),
(258,249,c),
(212,265,o),
(161,275,o),
(162,318,c),
(162,346,o),
(193,364,o),
(229,364,c),
(256,363,o),
(292,350,o),
(316,326,c),
(355,387,l),
(315,420,o),
(270,433,o),
(211,433,c),
(110,433,o),
(60,369,o),
(60,304,c),
(60,246,o),
(97,204,o),
(167,181,c),
(216,166,o),
(265,155,o),
(265,112,c),
(265,76,o),
(231,62,o),
(192,62,c),
(158,62,o),
(119,79,o),
(84,113,c),
(41,55,l),
(79,13,o),
(139,-9,o),
(200,-9,c)
);
}
);
width = 414;
}
);
unicode = 115;
}
{
glyphname = t;
layers = (
{
anchors = (
{
name = bottom;
pos = (176,0);
},
{
name = center;
pos = (187,190);
},
{
name = top;
pos = (187,437);
},
{
name = topright;
pos = (374,437);
}
);
layerId = "A6CBEFC3-C9E0-479E-A224-60A030287C4A";
shapes = (
{
closed = 1;
nodes = (
(113,439,l),
(45,439,l),
(45,330,l),
(113,330,l),
(113,0,l),
(253,0,l),
(253,330,l),
(359,330,l),
(359,439,l),
(253,439,l),
(253,629,l),
(113,629,l)
);
}
);
width = 394;
},
{
anchors = (
{
name = bottom;
pos = (165,0);
},
{
name = center;
pos = (177,195);
},
{
name = top;
pos = (177,418);
},
{
name = topright;
pos = (343,418);
}
);
layerId = master01;
shapes = (
{
closed = 1;
nodes = (
(119,417,l),
(45,417,l),
(45,338,l),
(119,338,l),
(119,0,l),
(221,0,l),
(221,338,l),
(333,338,l),
(333,417,l),
(221,417,l),
(221,601,l),
(119,601,l)
);
}
);
width = 365;
}
);
unicode = 116;
}
{
glyphname = u;
kernLeft = n;
layers = (
{
anchors = (
{
name = bottom;
pos = (292,0);
},
{
name = ogonek;
pos = (608,10);
},
{
name = top;
pos = (294,457);
},
{
name = topright;
pos = (507,437);
}
);
layerId = "A6CBEFC3-C9E0-479E-A224-60A030287C4A";
shapes = (
{
closed = 1;
nodes = (
(291,-21,o),
(346,16,o),
(376,71,c),
(374,80,l),
(385,0,l),
(512,0,l),
(512,437,l),
(372,437,l),
(372,259,l),
(372,166,o),
(333,98,o),
(271,98,c),
(230,98,o),
(214,123,o),
(212,162,c),
(212,437,l),
(72,437,l),
(72,110,l),
(74,33,o),
(134,-21,o),
(213,-21,c)
);
}
);
width = 584;
},
{
anchors = (
{
name = bottom;
pos = (276,0);
},
{
name = ogonek;
pos = (553,10);
},
{
name = top;
pos = (278,432);
},
{
name = topright;
pos = (478,418);
}
);
layerId = master01;
shapes = (
{
closed = 1;
nodes = (
(289,-17,o),
(352,24,o),
(378,82,c),
(374,98,l),
(382,0,l),
(473,0,l),
(473,418,l),
(372,418,l),
(372,227,l),
(372,136,o),
(321,69,o),
(253,69,c),
(204,71,o),
(182,100,o),
(180,144,c),
(180,418,l),
(79,418,l),
(79,108,l),
(81,35,o),
(136,-17,o),
(213,-17,c)
);
}
);
width = 552;
}
);
metricLeft = n;
metricRight = n;
unicode = 117;
}
{
glyphname = v;
kernLeft = v;
kernRight = v;
layers = (
{
anchors = (
{
name = bottom;
pos = (267,0);
},
{
name = top;
pos = (267,437);
}
);
layerId = "A6CBEFC3-C9E0-479E-A224-60A030287C4A";
shapes = (
{
closed = 1;
nodes = (
(276,-9,l),
(524,437,l),
(368,437,l),
(239,138,l),
(325,135,l),
(176,437,l),
(10,437,l),
(272,-9,l)
);
}
);
width = 534;
},
{
anchors = (
{
name = bottom;
pos = (250,0);
},
{
name = top;
pos = (250,418);
}
);
layerId = master01;
shapes = (
{
closed = 1;
nodes = (
(258,-12,l),
(483,418,l),
(371,418,l),
(230,96,l),
(292,93,l),
(137,418,l),
(18,418,l),
(253,-12,l)
);
}
);
width = 501;
}
);
unicode = 118;
}
{
glyphname = w;
kernLeft = w;
kernRight = v;
layers = (
{
anchors = (
{
name = bottom;
pos = (342,0);
},
{
name = top;
pos = (342,437);
}
);
layerId = "A6CBEFC3-C9E0-479E-A224-60A030287C4A";
shapes = (
{
closed = 1;
nodes = (
(265,437,l),
(288,387,l),
(204,201,l),
(252,194,l),
(146,437,l),
(10,437,l),
(209,-26,l),
(337,264,l),
(477,-26,l),
(674,437,l),
(538,437,l),
(454,210,l),
(480,212,l),
(384,437,l)
);
}
);
width = 684;
},
{
anchors = (
{
name = bottom;
pos = (338,0);
},
{
name = top;
pos = (338,418);
}
);
layerId = master01;
shapes = (
{
closed = 1;
nodes = (
(265,418,l),
(297,350,l),
(206,140,l),
(241,134,l),
(116,418,l),
(18,418,l),
(210,-25,l),
(333,260,l),
(467,-25,l),
(658,418,l),
(559,418,l),
(451,146,l),
(470,147,l),
(353,418,l)
);
}
);
width = 676;
}
);
metricLeft = v;
metricRight = v;
unicode = 119;
}
{
glyphname = x;
kernLeft = x;
layers = (
{
anchors = (
{
name = bottom;
pos = (256,0);
},
{
name = top;
pos = (256,437);
}
);
layerId = "A6CBEFC3-C9E0-479E-A224-60A030287C4A";
shapes = (
{
closed = 1;
nodes = (
(319,197,l),
(492,437,l),
(353,437,l),
(270,298,l)
);
},
{
closed = 1;
nodes = (
(182,437,l),
(10,437,l),
(347,0,l),
(516,0,l)
);
},
{
closed = 1;
nodes = (
(188,234,l),
(15,0,l),
(154,0,l),
(252,140,l)
);
}
);
width = 526;
},
{
anchors = (
{
name = bottom;
pos = (233,0);
},
{
name = top;
pos = (233,418);
}
);
layerId = master01;
shapes = (
{
closed = 1;
nodes = (
(279,193,l),
(440,418,l),
(339,418,l),
(242,266,l)
);
},
{
closed = 1;
nodes = (
(142,418,l),
(18,418,l),
(336,0,l),
(458,0,l)
);
},
{
closed = 1;
nodes = (
(183,219,l),
(23,0,l),
(124,0,l),
(231,152,l)
);
}
);
width = 475;
}
);
unicode = 120;
}
{
glyphname = y;
kernLeft = v;
kernRight = v;
layers = (
{
anchors = (
{
name = bottom;
pos = (437,-10);
},
{
name = top;
pos = (277,437);
}
);
layerId = "A6CBEFC3-C9E0-479E-A224-60A030287C4A";
shapes = (
{
closed = 1;
nodes = (
(242,-210,l),
(524,437,l),
(398,437,l),
(107,-210,l)
);
},
{
closed = 1;
nodes = (
(332,68,l),
(167,437,l),
(10,437,l),
(224,-2,l)
);
}
);
width = 534;
},
{
anchors = (
{
name = bottom;
pos = (402,-7);
},
{
name = top;
pos = (257,418);
}
);
layerId = master01;
shapes = (
{
closed = 1;
nodes = (
(213,-201,l),
(483,418,l),
(390,418,l),
(115,-201,l)
);
},
{
closed = 1;
nodes = (
(298,48,l),
(131,418,l),
(18,418,l),
(219,-3,l)
);
}
);
width = 501;
}
);
metricLeft = v;
metricRight = v;
unicode = 121;
}
{
glyphname = z;
layers = (
{
anchors = (
{
name = bottom;
pos = (261,0);
},
{
name = top;
pos = (261,437);
}
);
layerId = "A6CBEFC3-C9E0-479E-A224-60A030287C4A";
shapes = (
{
closed = 1;
nodes = (
(290,323,l),
(269,363,l),
(20,0,l),
(463,0,l),
(463,114,l),
(198,114,l),
(224,85,l),
(466,437,l),
(189,437,ls),
(164,437,o),
(155,437,o),
(155,465,cs),
(155,479,l),
(50,479,l),
(50,419,ls),
(50,360,o),
(92,323,o),
(140,323,cs)
);
}
);
width = 522;
},
{
anchors = (
{
name = bottom;
pos = (232,0);
},
{
name = top;
pos = (239,418);
}
);
layerId = master01;
shapes = (
{
closed = 1;
nodes = (
(295,335,l),
(279,364,l),
(27,0,l),
(419,0,l),
(419,83,l),
(156,83,l),
(176,62,l),
(423,418,l),
(156,418,ls),
(132,418,o),
(122,421,o),
(122,444,cs),
(122,458,l),
(45,458,l),
(45,415,ls),
(45,363,o),
(80,335,o),
(123,335,cs)
);
}
);
width = 472;
}
);
unicode = 122;
}
{
glyphname = braceleft;
layers = (
{
layerId = "A6CBEFC3-C9E0-479E-A224-60A030287C4A";
shapes = (
{
closed = 1;
nodes = (
(351,639,l),
(351,761,l),
(272,761,ls),
(194,761,o),
(116,767,o),
(116,640,cs),
(116,482,ls),
(116,421,o),
(89,366,o),
(35,365,c),
(35,249,l),
(89,248,o),
(116,192,o),
(116,132,cs),
(116,-33,ls),
(116,-162,o),
(198,-153,o),
(272,-153,cs),
(351,-153,l),
(351,-31,l),
(314,-31,ls),
(272,-31,o),
(261,-23,o),
(261,68,cs),
(261,188,ls),
(261,246,o),
(216,288,o),
(195,305,c),
(220,322,o),
(261,364,o),
(261,441,cs),
(261,539,ls),
(261,630,o),
(272,639,o),
(314,639,cs)
);
}
);
width = 401;
},
{
layerId = master01;
shapes = (
{
closed = 1;
nodes = (
(314,668,l),
(314,756,l),
(248,756,ls),
(181,756,o),
(114,762,o),
(114,636,cs),
(114,471,ls),
(114,412,o),
(91,350,o),
(33,348,c),
(33,261,l),
(91,259,o),
(114,196,o),
(114,138,cs),
(114,-21,ls),
(114,-159,o),
(181,-151,o),
(248,-151,cs),
(314,-151,l),
(314,-63,l),
(271,-63,ls),
(230,-63,o),
(219,-47,o),
(219,40,cs),
(219,170,ls),
(219,248,o),
(178,285,o),
(153,303,c),
(181,321,o),
(219,358,o),
(219,450,cs),
(219,564,ls),
(219,651,o),
(230,668,o),
(271,668,cs)
);
}
);
width = 361;
}
);
unicode = 123;
}
{
glyphname = bar;
layers = (
{
layerId = "A6CBEFC3-C9E0-479E-A224-60A030287C4A";
shapes = (
{
closed = 1;
nodes = (
(88,-237,l),
(214,-237,l),
(214,714,l),
(88,714,l)
);
}
);
width = 306;
},
{
layerId = master01;
shapes = (
{
closed = 1;
nodes = (
(91,-235,l),
(183,-235,l),
(183,710,l),
(91,710,l)
);
}
);
width = 279;
}
);
unicode = 124;
}
{
glyphname = braceright;
layers = (
{
layerId = "A6CBEFC3-C9E0-479E-A224-60A030287C4A";
shapes = (
{
closed = 1;
nodes = (
(50,-31,l),
(50,-153,l),
(129,-153,ls),
(207,-153,o),
(285,-159,o),
(285,-32,cs),
(285,126,ls),
(285,187,o),
(312,242,o),
(366,243,c),
(366,359,l),
(312,360,o),
(285,416,o),
(285,476,cs),
(285,641,ls),
(285,770,o),
(203,761,o),
(129,761,cs),
(50,761,l),
(50,639,l),
(87,639,ls),
(129,639,o),
(140,631,o),
(140,540,cs),
(140,420,ls),
(140,362,o),
(185,320,o),
(206,303,c),
(181,286,o),
(140,244,o),
(140,167,cs),
(140,69,ls),
(140,-22,o),
(129,-31,o),
(87,-31,cs)
);
}
);
width = 401;
},
{
layerId = master01;
shapes = (
{
closed = 1;
nodes = (
(62,-63,l),
(62,-151,l),
(128,-151,ls),
(195,-151,o),
(262,-157,o),
(262,-32,cs),
(262,123,ls),
(262,179,o),
(279,255,o),
(342,256,c),
(342,344,l),
(279,346,o),
(262,422,o),
(262,478,cs),
(262,637,ls),
(262,764,o),
(193,756,o),
(128,756,cs),
(62,756,l),
(62,668,l),
(105,668,ls),
(147,668,o),
(158,652,o),
(158,565,cs),
(158,436,ls),
(158,357,o),
(198,320,o),
(224,302,c),
(199,286,o),
(158,247,o),
(158,167,cs),
(158,41,ls),
(158,-47,o),
(147,-63,o),
(105,-63,cs)
);
}
);
width = 376;
}
);
unicode = 125;
}
{
glyphname = asciitilde;
layers = (
{
layerId = "A6CBEFC3-C9E0-479E-A224-60A030287C4A";
shapes = (
{
closed = 1;
nodes = (
(389,422,o),
(446,501,o),
(428,606,c),
(343,606,l),
(346,567,o),
(344,522,o),
(313,522,c),
(294,522,o),
(275,539,o),
(253,558,c),
(225,582,o),
(193,609,o),
(153,609,c),
(59,609,o),
(11,518,o),
(22,424,c),
(107,424,l),
(103,460,o),
(111,503,o),
(144,503,c),
(162,503,o),
(179,490,o),
(197,475,c),
(227,451,o),
(261,422,o),
(317,422,c)
);
}
);
width = 451;
},
{
layerId = master01;
shapes = (
{
closed = 1;
nodes = (
(362,433,o),
(410,497,o),
(399,594,c),
(336,594,l),
(337,543,o),
(327,507,o),
(297,507,c),
(276,507,o),
(257,525,o),
(236,545,c),
(211,568,o),
(183,594,o),
(144,594,c),
(69,594,o),
(24,522,o),
(31,433,c),
(94,433,l),
(92,481,o),
(108,516,o),
(138,516,c),
(159,516,o),
(176,501,o),
(194,484,c),
(221,461,o),
(250,433,o),
(300,433,c)
);
}
);
width = 430;
}
);
unicode = 126;
}
{
glyphname = exclamdown;
layers = (
{
layerId = "A6CBEFC3-C9E0-479E-A224-60A030287C4A";
shapes = (
{
closed = 1;
nodes = (
(36,352,l),
(161,352,l),
(161,-214,l),
(36,-214,l)
);
},
{
closed = 1;
nodes = (
(150,565,o),
(182,537,o),
(182,494,c),
(182,453,o),
(149,421,o),
(102,421,c),
(55,421,o),
(20,453,o),
(20,494,c),
(20,537,o),
(54,565,o),
(102,565,c)
);
}
);
width = 204;
},
{
layerId = master01;
shapes = (
{
closed = 1;
nodes = (
(54,359,l),
(144,359,l),
(144,-213,l),
(54,-213,l)
);
},
{
closed = 1;
nodes = (
(138,547,o),
(164,524,o),
(164,490,c),
(164,458,o),
(138,433,o),
(102,433,c),
(66,433,o),
(38,458,o),
(38,490,c),
(38,524,o),
(65,547,o),
(102,547,c)
);
}
);
width = 203;
}
);
unicode = 161;
}
{
glyphname = cent;
layers = (
{
layerId = "A6CBEFC3-C9E0-479E-A224-60A030287C4A";
shapes = (
{
closed = 1;
nodes = (
(239,-68,l),
(323,-68,l),
(323,506,l),
(239,506,l)
);
},
{
ref = c;
}
);
width = 479;
},
{
layerId = master01;
shapes = (
{
closed = 1;
nodes = (
(237,-68,l),
(300,-68,l),
(300,485,l),
(237,485,l)
);
},
{
alignment = -1;
ref = c;
}
);
width = 460;
}
);
metricLeft = c;
metricRight = c;
unicode = 162;
}
{
glyphname = sterling;
layers = (
{
layerId = "A6CBEFC3-C9E0-479E-A224-60A030287C4A";
shapes = (
{
closed = 1;
nodes = (
(107,418,l),
(107,278,l),
(462,278,l),
(462,418,l)
);
},
{
closed = 1;
nodes = (
(173,213,ls),
(173,144,o),
(159,140,o),
(120,140,cs),
(75,140,l),
(75,0,l),
(495,0,ls),
(589,0,o),
(637,53,o),
(637,132,cs),
(637,213,l),
(511,212,l),
(511,179,ls),
(511,152,o),
(496,140,o),
(467,140,cs),
(270,140,l),
(290,127,l),
(313,146,o),
(318,178,o),
(318,217,cs),
(318,237,l),
(318,504,ls),
(318,570,o),
(349,597,o),
(414,597,cs),
(475,597,o),
(502,570,o),
(516,555,c),
(621,627,l),
(585,696,o),
(510,737,o),
(411,737,cs),
(269,737,o),
(173,656,o),
(173,560,cs)
);
}
);
width = 672;
},
{
layerId = master01;
shapes = (
{
closed = 1;
nodes = (
(91,389,l),
(91,288,l),
(401,288,l),
(401,389,l)
);
},
{
closed = 1;
nodes = (
(157,198,ls),
(157,115,o),
(146,101,o),
(104,101,cs),
(59,101,l),
(59,0,l),
(456,0,ls),
(558,0,o),
(590,50,o),
(590,118,cs),
(590,185,l),
(499,185,l),
(499,144,ls),
(499,113,o),
(478,101,o),
(434,101,cs),
(220,101,l),
(236,93,l),
(258,112,o),
(261,154,o),
(261,184,cs),
(261,205,l),
(261,504,ls),
(261,568,o),
(293,604,o),
(372,604,cs),
(443,604,o),
(469,577,o),
(488,550,c),
(564,602,l),
(531,666,o),
(466,705,o),
(371,705,cs),
(243,705,o),
(157,637,o),
(157,542,cs)
);
}
);
width = 639;
}
);
unicode = 163;
}
{
glyphname = currency;
layers = (
{
layerId = "A6CBEFC3-C9E0-479E-A224-60A030287C4A";
shapes = (
{
closed = 1;
nodes = (
(174,221,l),
(197,209,o),
(223,202,o),
(252,202,cs),
(281,202,o),
(308,209,o),
(331,222,c),
(340,214,o),
(348,205,o),
(357,197,c),
(416,256,l),
(392,280,l),
(407,304,o),
(415,331,o),
(415,361,cs),
(415,389,o),
(407,417,o),
(393,441,c),
(415,463,l),
(356,522,l),
(332,498,l),
(308,511,o),
(281,519,o),
(252,519,cs),
(223,519,o),
(198,510,o),
(173,498,c),
(149,522,l),
(90,463,l),
(98,455,o),
(105,447,o),
(113,439,c),
(100,416,o),
(92,390,o),
(92,361,cs),
(92,331,o),
(100,303,o),
(114,279,c),
(90,255,l),
(149,196,l)
);
},
{
closed = 1;
nodes = (
(211,283,o),
(176,318,o),
(176,360,cs),
(176,403,o),
(211,438,o),
(253,438,cs),
(296,438,o),
(331,403,o),
(331,360,cs),
(331,318,o),
(296,283,o),
(253,283,cs)
);
}
);
width = 506;
},
{
layerId = master01;
shapes = (
{
closed = 1;
nodes = (
(170,233,l),
(193,219,o),
(220,210,o),
(250,210,cs),
(281,210,o),
(309,219,o),
(332,234,c),
(343,224,o),
(352,214,o),
(362,204,c),
(406,248,l),
(377,277,l),
(394,301,o),
(404,329,o),
(404,361,cs),
(404,391,o),
(395,419,o),
(379,443,c),
(406,470,l),
(362,514,l),
(334,485,l),
(310,501,o),
(281,511,o),
(250,511,cs),
(220,511,o),
(193,501,o),
(168,486,c),
(140,514,l),
(96,470,l),
(106,460,o),
(114,451,o),
(124,442,c),
(108,419,o),
(99,391,o),
(99,361,cs),
(99,329,o),
(109,300,o),
(125,276,c),
(96,247,l),
(140,203,l)
);
},
{
closed = 1;
nodes = (
(202,270,o),
(161,311,o),
(161,360,cs),
(161,411,o),
(202,451,o),
(251,451,cs),
(301,451,o),
(342,411,o),
(342,360,cs),
(342,311,o),
(301,270,o),
(251,270,cs)
);
}
);
width = 504;
}
);
unicode = 164;
}
{
glyphname = yen;
layers = (
{
layerId = "A6CBEFC3-C9E0-479E-A224-60A030287C4A";
shapes = (
{
closed = 1;
nodes = (
(174,202,l),
(563,202,l),
(563,315,l),
(174,315,l)
);
},
{
closed = 1;
nodes = (
(175,64,l),
(563,64,l),
(563,177,l),
(175,177,l)
);
},
{
closed = 1;
nodes = (
(286,0,l),
(431,0,l),
(431,309,l),
(707,736,l),
(528,736,l),
(341,431,l),
(384,434,l),
(194,736,l),
(15,736,l),
(286,309,l)
);
}
);
width = 722;
},
{
layerId = master01;
shapes = (
{
closed = 1;
nodes = (
(166,221,l),
(538,221,l),
(538,303,l),
(166,303,l)
);
},
{
closed = 1;
nodes = (
(167,75,l),
(537,75,l),
(537,158,l),
(167,158,l)
);
},
{
closed = 1;
nodes = (
(294,0,l),
(399,0,l),
(399,304,l),
(670,725,l),
(542,725,l),
(333,391,l),
(366,394,l),
(155,725,l),
(26,725,l),
(294,304,l)
);
}
);
width = 696;
}
);
metricLeft = Y;
metricRight = Y;
unicode = 165;
}
{
glyphname = brokenbar;
layers = (
{
layerId = "A6CBEFC3-C9E0-479E-A224-60A030287C4A";
shapes = (
{
closed = 1;
nodes = (
(51,357,l),
(177,357,l),
(177,714,l),
(51,714,l)
);
},
{
closed = 1;
nodes = (
(51,-238,l),
(177,-238,l),
(177,119,l),
(51,119,l)
);
}
);
width = 219;
},
{
layerId = master01;
shapes = (
{
closed = 1;
nodes = (
(67,355,l),
(158,355,l),
(158,710,l),
(67,710,l)
);
},
{
closed = 1;
nodes = (
(67,-236,l),
(158,-236,l),
(158,119,l),
(67,119,l)
);
}
);
width = 218;
}
);
unicode = 166;
}
{
glyphname = section;
layers = (
{
layerId = "A6CBEFC3-C9E0-479E-A224-60A030287C4A";
shapes = (
{
closed = 1;
nodes = (
(482,160,o),
(529,231,o),
(529,306,cs),
(529,423,o),
(428,458,o),
(347,480,c),
(286,496,o),
(231,515,o),
(231,557,cs),
(231,586,o),
(253,610,o),
(315,610,c),
(353,608,o),
(390,596,o),
(443,551,c),
(506,658,l),
(454,704,o),
(388,735,o),
(300,736,c),
(136,736,o),
(79,630,o),
(79,536,cs),
(79,468,o),
(108,397,o),
(225,360,c),
(236,412,l),
(155,418,o),
(61,375,o),
(61,261,cs),
(61,156,o),
(166,108,o),
(249,88,c),
(306,74,o),
(358,55,o),
(358,12,cs),
(358,-31,o),
(324,-56,o),
(275,-56,cs),
(231,-56,o),
(186,-39,o),
(122,11,c),
(50,-109,l),
(121,-169,o),
(208,-185,o),
(283,-185,cs),
(417,-185,o),
(510,-86,o),
(510,34,cs),
(510,136,o),
(429,191,o),
(329,192,c),
(384,139,l)
);
},
{
closed = 1;
nodes = (
(385,240,o),
(336,216,o),
(291,213,c),
(248,224,o),
(200,255,o),
(203,298,c),
(205,326,o),
(241,351,o),
(293,347,c),
(332,345,o),
(390,314,o),
(387,279,c)
);
}
);
width = 579;
},
{
layerId = master01;
shapes = (
{
closed = 1;
nodes = (
(469,157,o),
(523,225,o),
(523,302,cs),
(523,415,o),
(423,449,o),
(337,472,c),
(261,491,o),
(199,512,o),
(199,567,cs),
(199,606,o),
(235,642,o),
(311,642,c),
(356,640,o),
(402,626,o),
(450,590,c),
(496,667,l),
(445,706,o),
(376,732,o),
(300,732,c),
(154,732,o),
(90,640,o),
(90,554,cs),
(90,480,o),
(133,421,o),
(237,389,c),
(245,425,l),
(158,429,o),
(67,379,o),
(67,273,cs),
(67,167,o),
(171,126,o),
(258,104,c),
(326,87,o),
(390,67,o),
(390,10,cs),
(390,-47,o),
(335,-80,o),
(271,-80,cs),
(215,-80,o),
(159,-56,o),
(102,-13,c),
(50,-99,l),
(106,-145,o),
(190,-174,o),
(277,-174,cs),
(407,-174,o),
(499,-85,o),
(499,24,cs),
(499,119,o),
(425,168,o),
(334,175,c),
(373,137,l)
);
},
{
closed = 1;
nodes = (
(419,228,o),
(355,195,o),
(302,192,c),
(229,211,o),
(168,238,o),
(170,298,c),
(171,344,o),
(220,380,o),
(293,377,c),
(353,367,o),
(422,336,o),
(420,283,c)
);
}
);
width = 573;
}
);
unicode = 167;
}
{
glyphname = dieresis;
layers = (
{
layerId = "A6CBEFC3-C9E0-479E-A224-60A030287C4A";
shapes = (
{
closed = 1;
nodes = (
(50,499,o),
(86,470,o),
(122,470,cs),
(155,470,o),
(192,499,o),
(192,542,cs),
(192,584,o),
(155,615,o),
(122,615,cs),
(86,615,o),
(50,584,o),
(50,542,cs)
);
},
{
closed = 1;
nodes = (
(250,499,o),
(286,470,o),
(322,470,cs),
(355,470,o),
(392,499,o),
(392,542,cs),
(392,584,o),
(355,615,o),
(322,615,cs),
(286,615,o),
(250,584,o),
(250,542,cs)
);
}
);
width = 442;
},
{
layerId = master01;
shapes = (
{
closed = 1;
nodes = (
(60,496,o),
(88,473,o),
(116,473,cs),
(142,473,o),
(171,496,o),
(171,529,cs),
(171,561,o),
(142,586,o),
(116,586,cs),
(88,586,o),
(60,561,o),
(60,529,cs)
);
},
{
closed = 1;
nodes = (
(249,496,o),
(277,473,o),
(305,473,cs),
(331,473,o),
(360,496,o),
(360,529,cs),
(360,561,o),
(331,586,o),
(305,586,cs),
(277,586,o),
(249,561,o),
(249,529,cs)
);
}
);
width = 420;
}
);
unicode = 168;
}
{
glyphname = copyright;
layers = (
{
layerId = "A6CBEFC3-C9E0-479E-A224-60A030287C4A";
shapes = (
{
closed = 1;
nodes = (
(548,277,l),
(525,248,o),
(492,235,o),
(463,235,c),
(415,235,o),
(389,273,o),
(389,317,c),
(389,358,o),
(414,399,o),
(461,399,c),
(486,399,o),
(511,394,o),
(532,372,c),
(588,479,l),
(557,509,o),
(493,521,o),
(450,521,c),
(322,521,o),
(244,434,o),
(244,312,c),
(244,203,o),
(330,111,o),
(439,108,c),
(518,107,o),
(579,146,o),
(612,182,c)
);
},
{
closed = 1;
nodes = (
(653,-71,o),
(830,94,o),
(830,312,c),
(830,533,o),
(653,696,o),
(440,696,c),
(227,696,o),
(50,533,o),
(50,312,c),
(50,94,o),
(227,-71,o),
(440,-71,c)
);
},
{
closed = 1;
nodes = (
(287,41,o),
(170,156,o),
(170,312,c),
(170,469,o),
(287,584,o),
(440,584,c),
(593,584,o),
(709,469,o),
(709,312,c),
(709,156,o),
(593,41,o),
(440,41,c)
);
}
);
width = 880;
},
{
layerId = master01;
shapes = (
{
closed = 1;
nodes = (
(527,268,l),
(504,244,o),
(474,232,o),
(445,232,c),
(386,232,o),
(349,278,o),
(349,334,c),
(349,390,o),
(388,438,o),
(444,438,c),
(470,438,o),
(495,432,o),
(517,413,c),
(557,490,l),
(528,515,o),
(475,526,o),
(437,526,c),
(322,526,o),
(244,444,o),
(244,331,c),
(244,229,o),
(324,143,o),
(429,140,c),
(493,140,o),
(544,170,o),
(574,199,c)
);
},
{
closed = 1;
nodes = (
(622,-13,o),
(775,135,o),
(775,330,c),
(775,529,o),
(618,675,o),
(426,675,c),
(235,675,o),
(78,529,o),
(78,330,c),
(78,135,o),
(235,-13,o),
(426,-13,c)
);
},
{
closed = 1;
nodes = (
(272,69,o),
(165,180,o),
(165,330,c),
(165,482,o),
(279,593,o),
(426,593,c),
(572,593,o),
(686,482,o),
(686,330,c),
(686,180,o),
(572,69,o),
(426,69,c)
);
}
);
width = 852;
}
);
unicode = 169;
}
{
glyphname = ordfeminine;
layers = (
{
layerId = "A6CBEFC3-C9E0-479E-A224-60A030287C4A";
shapes = (
{
closed = 1;
nodes = (
(208,427,o),
(236,471,o),
(239,471,c),
(233,488,l),
(233,434,l),
(339,434,l),
(339,724,l),
(239,724,l),
(232,683,l),
(235,697,l),
(218,717,o),
(196,736,o),
(147,736,c),
(83,736,o),
(25,675,o),
(25,579,c),
(25,474,o),
(80,427,o),
(150,427,c)
);
},
{
closed = 1;
nodes = (
(155,512,o),
(132,543,o),
(132,583,c),
(132,623,o),
(154,651,o),
(183,651,c),
(208,651,o),
(225,636,o),
(233,611,c),
(233,550,l),
(222,526,o),
(209,512,o),
(185,512,c)
);
}
);
width = 389;
},
{
layerId = master01;
shapes = (
{
closed = 1;
nodes = (
(222,423,o),
(260,465,o),
(269,482,c),
(261,496,l),
(261,429,l),
(339,429,l),
(339,716,l),
(266,716,l),
(260,658,l),
(265,673,l),
(247,704,o),
(213,726,o),
(160,726,c),
(92,726,o),
(31,667,o),
(31,573,c),
(31,475,o),
(89,423,o),
(163,423,c)
);
},
{
closed = 1;
nodes = (
(144,486,o),
(109,525,o),
(109,575,c),
(109,628,o),
(143,663,o),
(186,663,c),
(223,663,o),
(252,638,o),
(261,602,c),
(261,551,l),
(254,512,o),
(226,486,o),
(187,486,c)
);
}
);
width = 398;
}
);
unicode = 170;
}
{
glyphname = guillemetleft;
layers = (
{
layerId = "A6CBEFC3-C9E0-479E-A224-60A030287C4A";
shapes = (
{
closed = 1;
nodes = (
(269,39,l),
(269,163,l),
(269,163,o),
(175,244,o),
(175,244,c),
(175,244,o),
(269,323,o),
(269,323,c),
(269,448,l),
(269,448,o),
(15,244,o),
(15,244,c)
);
},
{
closed = 1;
nodes = (
(519,39,l),
(519,163,l),
(519,163,o),
(425,244,o),
(425,244,c),
(425,244,o),
(519,323,o),
(519,323,c),
(519,448,l),
(519,448,o),
(265,244,o),
(265,244,c)
);
}
);
width = 609;
},
{
layerId = master01;
shapes = (
{
closed = 1;
nodes = (
(275,51,l),
(275,142,l),
(260,157,o),
(180,227,o),
(166,242,c),
(180,257,o),
(260,327,o),
(275,341,c),
(275,433,l),
(257,417,o),
(64,259,o),
(47,242,c)
);
},
{
closed = 1;
nodes = (
(501,51,l),
(501,142,l),
(486,157,o),
(406,227,o),
(392,242,c),
(406,257,o),
(486,327,o),
(501,341,c),
(501,433,l),
(483,417,o),
(290,259,o),
(272,242,c)
);
}
);
width = 606;
}
);
unicode = 171;
}
{
glyphname = logicalnot;
layers = (
{
layerId = "A6CBEFC3-C9E0-479E-A224-60A030287C4A";
shapes = (
{
closed = 1;
nodes = (
(50,189,l),
(272,189,l),
(272,91,l),
(417,91,l),
(417,329,l),
(50,329,l)
);
}
);
width = 467;
},
{
layerId = master01;
shapes = (
{
closed = 1;
nodes = (
(66,201,l),
(326,201,l),
(326,109,l),
(430,109,l),
(430,302,l),
(66,302,l)
);
}
);
width = 496;
}
);
unicode = 172;
}
{
glyphname = registered;
layers = (
{
layerId = "A6CBEFC3-C9E0-479E-A224-60A030287C4A";
shapes = (
{
closed = 1;
nodes = (
(424,230,o),
(541,338,o),
(541,482,c),
(541,628,o),
(424,735,o),
(283,735,c),
(142,735,o),
(25,628,o),
(25,482,c),
(25,338,o),
(142,230,o),
(283,230,c)
);
},
{
closed = 1;
nodes = (
(183,305,o),
(107,380,o),
(107,482,c),
(107,585,o),
(183,660,o),
(283,660,c),
(383,660,o),
(459,585,o),
(459,482,c),
(459,380,o),
(383,305,o),
(283,305,c)
);
},
{
closed = 1;
nodes = (
(192,363,l),
(267,363,l),
(267,440,l),
(306,440,l),
(362,440,o),
(389,485,o),
(389,524,c),
(389,574,o),
(362,606,o),
(298,606,c),
(192,606,l)
);
},
{
closed = 1;
nodes = (
(267,497,l),
(267,550,l),
(284,550,l),
(305,550,o),
(309,534,o),
(309,522,c),
(309,507,o),
(304,497,o),
(284,497,c)
);
},
{
closed = 1;
nodes = (
(270,455,l),
(301,363,l),
(387,363,l),
(347,457,l)
);
}
);
width = 566;
},
{
layerId = master01;
shapes = (
{
closed = 1;
nodes = (
(370,291,o),
(469,383,o),
(469,507,c),
(469,632,o),
(370,723,o),
(249,723,c),
(129,723,o),
(30,632,o),
(30,507,c),
(30,383,o),
(129,291,o),
(249,291,c)
);
},
{
closed = 1;
nodes = (
(160,347,o),
(91,415,o),
(91,507,c),
(91,599,o),
(160,667,o),
(249,667,c),
(339,667,o),
(408,599,o),
(408,507,c),
(408,415,o),
(339,347,o),
(249,347,c)
);
},
{
closed = 1;
nodes = (
(171,401,l),
(228,401,l),
(228,475,l),
(263,475,l),
(313,475,o),
(337,511,o),
(337,548,c),
(337,593,o),
(310,619,o),
(259,619,c),
(171,619,l)
);
},
{
closed = 1;
nodes = (
(228,518,l),
(228,576,l),
(249,576,l),
(268,576,o),
(277,563,o),
(277,546,c),
(277,530,o),
(270,518,o),
(247,518,c)
);
},
{
closed = 1;
nodes = (
(240,487,l),
(274,401,l),
(338,401,l),
(298,488,l)
);
}
);
width = 499;
}
);
unicode = 174;
}
{
glyphname = macron;
layers = (
{
layerId = "A6CBEFC3-C9E0-479E-A224-60A030287C4A";
shapes = (
{
closed = 1;
nodes = (
(50,459,l),
(305,459,l),
(305,556,l),
(50,556,l)
);
}
);
width = 355;
},
{
layerId = master01;
shapes = (
{
closed = 1;
nodes = (
(61,469,l),
(308,469,l),
(308,540,l),
(61,540,l)
);
}
);
width = 368;
}
);
unicode = 175;
}
{
glyphname = degree;
layers = (
{
layerId = "A6CBEFC3-C9E0-479E-A224-60A030287C4A";
shapes = (
{
closed = 1;
nodes = (
(22,507,o),
(75,455,o),
(141,455,cs),
(204,455,o),
(256,507,o),
(256,572,cs),
(256,636,o),
(204,687,o),
(141,687,cs),
(75,687,o),
(22,636,o),
(22,572,cs)
);
},
{
closed = 1;
nodes = (
(118,529,o),
(100,547,o),
(100,570,cs),
(100,593,o),
(118,612,o),
(141,612,cs),
(164,612,o),
(183,593,o),
(183,570,cs),
(183,547,o),
(164,529,o),
(141,529,cs)
);
}
);
width = 287;
},
{
layerId = master01;
shapes = (
{
closed = 1;
nodes = (
(34,510,o),
(81,464,o),
(140,464,cs),
(197,464,o),
(243,510,o),
(243,568,cs),
(243,626,o),
(197,671,o),
(140,671,cs),
(81,671,o),
(34,626,o),
(34,568,cs)
);
},
{
closed = 1;
nodes = (
(113,519,o),
(92,540,o),
(92,567,cs),
(92,593,o),
(113,615,o),
(140,615,cs),
(167,615,o),
(188,593,o),
(188,567,cs),
(188,540,o),
(167,519,o),
(140,519,cs)
);
}
);
width = 285;
}
);
unicode = 176;
}
{
glyphname = plusminus;
layers = (
{
layerId = "A6CBEFC3-C9E0-479E-A224-60A030287C4A";
shapes = (
{
closed = 1;
nodes = (
(208,458,l),
(88,458,l),
(88,337,l),
(208,337,l),
(208,215,l),
(335,215,l),
(335,337,l),
(455,337,l),
(455,458,l),
(335,458,l),
(335,582,l),
(208,582,l)
);
},
{
closed = 1;
nodes = (
(88,61,l),
(455,61,l),
(455,183,l),
(88,183,l)
);
}
);
width = 535;
},
{
layerId = master01;
shapes = (
{
closed = 1;
nodes = (
(224,440,l),
(88,440,l),
(88,352,l),
(224,352,l),
(224,214,l),
(316,214,l),
(316,352,l),
(452,352,l),
(452,440,l),
(316,440,l),
(316,579,l),
(224,579,l)
);
},
{
closed = 1;
nodes = (
(88,84,l),
(452,84,l),
(452,173,l),
(88,173,l)
);
}
);
width = 532;
}
);
unicode = 177;
}
{
glyphname = twosuperior;
layers = (
{
layerId = "A6CBEFC3-C9E0-479E-A224-60A030287C4A";
shapes = (
{
closed = 1;
nodes = (
(85,531,l),
(99,553,o),
(137,575,o),
(166,575,cs),
(202,575,o),
(218,554,o),
(218,509,cs),
(218,437,o),
(117,373,o),
(62,346,c),
(62,265,l),
(378,265,l),
(378,381,l),
(165,381,l),
(142,287,l),
(212,341,o),
(364,424,o),
(364,548,cs),
(364,634,o),
(299,689,o),
(205,691,cs),
(141,692,o),
(71,663,o),
(45,623,c)
);
}
);
width = 408;
},
{
layerId = master01;
shapes = (
{
closed = 1;
nodes = (
(95,568,l),
(109,590,o),
(141,609,o),
(172,609,cs),
(211,609,o),
(233,588,o),
(233,538,cs),
(233,468,o),
(138,399,o),
(74,355,c),
(74,299,l),
(353,299,l),
(353,383,l),
(150,383,l),
(136,315,l),
(206,375,o),
(338,456,o),
(338,565,cs),
(338,645,o),
(282,692,o),
(200,694,cs),
(144,695,o),
(87,668,o),
(64,634,c)
);
}
);
width = 404;
}
);
unicode = 178;
}
{
glyphname = threesuperior;
layers = (
{
layerId = "A6CBEFC3-C9E0-479E-A224-60A030287C4A";
shapes = (
{
closed = 1;
nodes = (
(262,260,o),
(326,328,o),
(326,413,cs),
(326,496,o),
(256,533,o),
(199,533,c),
(163,533,o),
(140,519,o),
(122,503,c),
(212,476,l),
(315,680,l),
(57,680,l),
(57,580,l),
(196,580,l),
(167,600,l),
(92,474,l),
(99,462,l),
(106,466,o),
(120,470,o),
(139,470,cs),
(172,470,o),
(200,455,o),
(200,407,cs),
(200,364,o),
(175,350,o),
(147,350,cs),
(114,350,o),
(89,380,o),
(79,392,c),
(40,311,l),
(61,289,o),
(102,260,o),
(163,260,cs)
);
}
);
width = 376;
},
{
layerId = master01;
shapes = (
{
closed = 1;
nodes = (
(253,296,o),
(310,356,o),
(310,434,cs),
(310,509,o),
(247,547,o),
(193,546,c),
(162,546,o),
(140,535,o),
(123,521,c),
(189,503,l),
(294,686,l),
(67,686,l),
(67,613,l),
(207,613,l),
(185,630,l),
(98,498,l),
(104,489,l),
(114,494,o),
(128,499,o),
(151,499,cs),
(188,499,o),
(218,479,o),
(218,431,cs),
(218,386,o),
(191,363,o),
(154,362,cs),
(119,361,o),
(93,388,o),
(82,402,c),
(52,343,l),
(72,322,o),
(110,296,o),
(165,296,cs)
);
}
);
width = 388;
}
);
unicode = 179;
}
{
glyphname = acute;
layers = (
{
layerId = "A6CBEFC3-C9E0-479E-A224-60A030287C4A";
shapes = (
{
closed = 1;
nodes = (
(120,624,l),
(42,489,l),
(127,489,l),
(275,624,l)
);
}
);
width = 317;
},
{
layerId = master01;
shapes = (
{
closed = 1;
nodes = (
(126,620,l),
(45,486,l),
(108,486,l),
(238,620,l)
);
}
);
width = 283;
}
);
unicode = 180;
}
{
glyphname = micro;
layers = (
{
layerId = "A6CBEFC3-C9E0-479E-A224-60A030287C4A";
shapes = (
{
closed = 1;
nodes = (
(291,-21,o),
(346,16,o),
(376,71,c),
(372,87,l),
(385,0,l),
(512,0,l),
(512,437,l),
(372,437,l),
(372,259,l),
(372,166,o),
(333,98,o),
(271,98,c),
(230,98,o),
(214,123,o),
(212,162,c),
(212,437,l),
(72,437,l),
(72,110,l),
(72,-201,l),
(212,-201,l),
(212,96,l),
(76,114,l),
(78,37,o),
(134,-21,o),
(213,-21,c)
);
}
);
width = 584;
},
{
layerId = master01;
shapes = (
{
closed = 1;
nodes = (
(289,-17,o),
(351,24,o),
(377,82,c),
(372,103,l),
(382,0,l),
(473,0,l),
(473,418,l),
(372,418,l),
(372,227,l),
(372,136,o),
(321,69,o),
(253,69,c),
(204,71,o),
(182,100,o),
(180,144,c),
(180,418,l),
(79,418,l),
(79,110,l),
(79,-201,l),
(180,-201,l),
(180,88,l),
(84,99,l),
(90,32,o),
(140,-17,o),
(213,-17,c)
);
}
);
width = 552;
}
);
metricLeft = n;
metricRight = n;
unicode = 181;
}
{
glyphname = paragraph;
layers = (
{
layerId = "A6CBEFC3-C9E0-479E-A224-60A030287C4A";
shapes = (
{
closed = 1;
nodes = (
(205,0,l),
(330,0,l),
(330,644,l),
(372,644,l),
(372,0,l),
(496,0,l),
(496,765,l),
(205,765,ls),
(112,765,o),
(39,691,o),
(39,598,cs),
(39,505,o),
(112,431,o),
(205,431,c)
);
}
);
width = 592;
},
{
layerId = master01;
shapes = (
{
closed = 1;
nodes = (
(204,0,l),
(294,0,l),
(294,673,l),
(369,673,l),
(369,0,l),
(459,0,l),
(459,760,l),
(204,760,ls),
(112,760,o),
(39,687,o),
(39,594,cs),
(39,502,o),
(112,428,o),
(204,428,c)
);
}
);
width = 560;
}
);
unicode = 182;
}
{
glyphname = cedilla;
layers = (
{
layerId = "A6CBEFC3-C9E0-479E-A224-60A030287C4A";
shapes = (
{
closed = 1;
nodes = (
(50,-191,l),
(73,-215,o),
(108,-236,o),
(167,-236,cs),
(246,-236,o),
(323,-201,o),
(323,-125,cs),
(323,-63,o),
(264,-32,o),
(190,-34,cs),
(176,-35,o),
(162,-36,o),
(148,-39,c),
(174,-74,l),
(251,12,l),
(144,12,l),
(75,-39,l),
(94,-105,l),
(112,-100,o),
(133,-94,o),
(154,-94,cs),
(198,-94,o),
(207,-112,o),
(207,-127,cs),
(207,-151,o),
(175,-163,o),
(153,-163,cs),
(128,-163,o),
(106,-152,o),
(93,-136,c)
);
}
);
width = 373;
},
{
layerId = master01;
shapes = (
{
closed = 1;
nodes = (
(77,-193,l),
(99,-214,o),
(133,-232,o),
(185,-232,cs),
(258,-232,o),
(325,-200,o),
(325,-132,cs),
(325,-73,o),
(274,-43,o),
(202,-44,cs),
(183,-45,o),
(162,-48,o),
(148,-54,c),
(170,-79,l),
(243,6,l),
(165,9,l),
(96,-54,l),
(113,-102,l),
(130,-97,o),
(156,-90,o),
(178,-90,cs),
(225,-90,o),
(240,-112,o),
(240,-133,cs),
(240,-162,o),
(207,-177,o),
(174,-177,cs),
(146,-177,o),
(123,-166,o),
(109,-151,c)
);
}
);
width = 397;
}
);
unicode = 184;
}
{
glyphname = onesuperior;
layers = (
{
layerId = "A6CBEFC3-C9E0-479E-A224-60A030287C4A";
shapes = (
{
closed = 1;
nodes = (
(25,538,l),
(93,538,l),
(93,248,l),
(223,248,l),
(223,663,l),
(25,663,l)
);
}
);
width = 283;
},
{
layerId = master01;
shapes = (
{
closed = 1;
nodes = (
(42,570,l),
(103,570,l),
(103,282,l),
(197,282,l),
(197,661,l),
(42,661,l)
);
}
);
width = 273;
}
);
unicode = 185;
}
{
glyphname = ordmasculine;
layers = (
{
layerId = "A6CBEFC3-C9E0-479E-A224-60A030287C4A";
shapes = (
{
closed = 1;
nodes = (
(25,484,o),
(92,426,o),
(187,426,c),
(287,426,o),
(348,492,o),
(348,581,c),
(348,670,o),
(286,735,o),
(188,735,c),
(91,735,o),
(25,670,o),
(25,581,c)
);
},
{
closed = 1;
nodes = (
(133,616,o),
(156,643,o),
(186,643,c),
(219,643,o),
(240,616,o),
(240,580,c),
(240,545,o),
(219,518,o),
(186,518,c),
(156,518,o),
(133,545,o),
(133,580,c)
);
}
);
width = 373;
},
{
layerId = master01;
shapes = (
{
closed = 1;
nodes = (
(31,480,o),
(97,421,o),
(188,421,c),
(282,421,o),
(345,486,o),
(345,572,c),
(345,659,o),
(282,724,o),
(189,724,c),
(97,724,o),
(31,659,o),
(31,572,c)
);
},
{
closed = 1;
nodes = (
(110,618,o),
(143,656,o),
(188,656,c),
(233,656,o),
(266,619,o),
(266,572,c),
(266,525,o),
(233,488,o),
(188,488,c),
(144,488,o),
(110,525,o),
(110,572,c)
);
}
);
width = 376;
}
);
unicode = 186;
}
{
glyphname = guillemetright;
layers = (
{
layerId = "A6CBEFC3-C9E0-479E-A224-60A030287C4A";
shapes = (
{
closed = 1;
nodes = (
(330,39,l),
(330,163,l),
(330,163,o),
(424,244,o),
(424,244,c),
(424,244,o),
(330,323,o),
(330,323,c),
(330,448,l),
(330,448,o),
(584,244,o),
(584,244,c)
);
},
{
closed = 1;
nodes = (
(80,39,l),
(80,163,l),
(80,163,o),
(174,244,o),
(174,244,c),
(174,244,o),
(80,323,o),
(80,323,c),
(80,448,l),
(80,448,o),
(334,244,o),
(334,244,c)
);
}
);
width = 609;
},
{
layerId = master01;
shapes = (
{
closed = 1;
nodes = (
(317,51,l),
(317,142,l),
(332,157,o),
(411,227,o),
(426,242,c),
(411,257,o),
(332,327,o),
(317,341,c),
(317,433,l),
(335,417,o),
(528,259,o),
(545,242,c)
);
},
{
closed = 1;
nodes = (
(91,51,l),
(91,142,l),
(106,157,o),
(186,227,o),
(200,242,c),
(186,257,o),
(106,327,o),
(91,341,c),
(91,433,l),
(109,417,o),
(302,259,o),
(320,242,c)
);
}
);
width = 606;
}
);
unicode = 187;
}
{
glyphname = onequarter;
layers = (
{
layerId = "A6CBEFC3-C9E0-479E-A224-60A030287C4A";
shapes = (
{
closed = 1;
nodes = (
(563,698,l),
(156,0,l),
(286,0,l),
(693,698,l)
);
},
{
alignment = -1;
ref = onesuperior;
},
{
pos = (461,-265);
ref = foursuperior;
}
);
width = 860;
},
{
layerId = master01;
shapes = (
{
closed = 1;
nodes = (
(552,687,l),
(145,0,l),
(239,0,l),
(646,687,l)
);
},
{
alignment = -1;
pos = (3,0);
ref = onesuperior;
},
{
alignment = -1;
pos = (445,-291);
ref = foursuperior;
}
);
width = 819;
}
);
unicode = 188;
}
{
glyphname = questiondown;
layers = (
{
layerId = "A6CBEFC3-C9E0-479E-A224-60A030287C4A";
shapes = (
{
closed = 1;
nodes = (
(186,342,l),
(186,321,l),
(186,245,o),
(155,206,o),
(120,171,cs),
(76,126,o),
(24,87,o),
(24,-22,c),
(24,-153,o),
(113,-207,o),
(226,-208,c),
(381,-209,o),
(443,-88,o),
(458,-40,c),
(343,14,l),
(325,-31,o),
(299,-78,o),
(241,-78,c),
(211,-78,o),
(173,-52,o),
(173,-9,c),
(173,44,o),
(206,72,o),
(242,105,cs),
(282,144,o),
(326,190,o),
(326,289,c),
(326,342,l)
);
},
{
closed = 1;
nodes = (
(208,553,o),
(176,525,o),
(176,482,c),
(176,441,o),
(209,409,o),
(256,409,c),
(303,409,o),
(338,441,o),
(338,482,c),
(338,525,o),
(304,553,o),
(256,553,c)
);
}
);
width = 452;
},
{
layerId = master01;
shapes = (
{
closed = 1;
nodes = (
(199,352,l),
(199,313,l),
(199,234,o),
(165,206,o),
(124,170,cs),
(76,126,o),
(28,83,o),
(28,-14,c),
(28,-138,o),
(116,-203,o),
(228,-203,c),
(362,-204,o),
(427,-103,o),
(446,-46,c),
(362,-8,l),
(343,-62,o),
(303,-110,o),
(238,-110,c),
(186,-110,o),
(135,-68,o),
(135,-6,c),
(135,55,o),
(169,87,o),
(211,121,cs),
(254,160,o),
(300,193,o),
(300,291,c),
(300,352,l)
);
},
{
closed = 1;
nodes = (
(211,538,o),
(186,515,o),
(186,482,c),
(186,450,o),
(212,425,o),
(248,425,c),
(284,425,o),
(312,450,o),
(312,482,c),
(312,515,o),
(285,538,o),
(248,538,c)
);
}
);
width = 439;
}
);
unicode = 191;
}
{
glyphname = AE;
layers = (
{
anchors = (
{
name = bottom;
pos = (563,0);
},
{
name = top;
pos = (673,756);
}
);
layerId = "A6CBEFC3-C9E0-479E-A224-60A030287C4A";
shapes = (
{
closed = 1;
nodes = (
(486,0,l),
(912,0,l),
(912,140,l),
(631,140,l),
(631,297,l),
(857,297,l),
(857,437,l),
(631,437,l),
(631,596,l),
(898,596,l),
(898,736,l),
(486,736,l)
);
},
{
closed = 1;
nodes = (
(486,736,l),
(5,0,l),
(173,0,l),
(490,524,l),
(490,524,o),
(498,550,o),
(501,565,c)
);
},
{
closed = 1;
nodes = (
(227,161,l),
(503,161,l),
(503,276,l),
(272,276,l)
);
}
);
width = 967;
},
{
anchors = (
{
name = bottom;
pos = (535,0);
},
{
name = top;
pos = (657,739);
}
);
layerId = master01;
shapes = (
{
closed = 1;
nodes = (
(478,0,l),
(890,0,l),
(890,101,l),
(583,101,l),
(583,312,l),
(836,312,l),
(836,413,l),
(583,413,l),
(583,624,l),
(876,624,l),
(876,725,l),
(478,725,l)
);
},
{
closed = 1;
nodes = (
(478,725,l),
(11,0,l),
(132,0,l),
(482,571,l),
(484,573,o),
(490,594,o),
(493,607,c)
);
},
{
closed = 1;
nodes = (
(206,176,l),
(493,176,l),
(493,259,l),
(238,259,l)
);
}
);
width = 953;
}
);
metricRight = E;
unicode = 198;
}
{
glyphname = multiply;
layers = (
{
layerId = "A6CBEFC3-C9E0-479E-A224-60A030287C4A";
shapes = (
{
closed = 1;
nodes = (
(203,380,l),
(94,269,l),
(177,187,l),
(150,159,o),
(124,135,o),
(98,108,c),
(133,73,o),
(169,38,o),
(206,2,c),
(230,27,o),
(258,53,o),
(282,79,c),
(309,52,o),
(337,27,o),
(363,0,c),
(474,109,l),
(446,137,o),
(422,164,o),
(395,190,c),
(419,216,o),
(446,244,o),
(470,268,c),
(435,303,o),
(401,341,o),
(366,376,c),
(338,348,o),
(314,324,o),
(287,296,c)
);
}
);
width = 528;
},
{
layerId = master01;
shapes = (
{
closed = 1;
nodes = (
(184,344,l),
(105,264,l),
(200,170,l),
(169,138,o),
(139,109,o),
(108,78,c),
(133,52,o),
(159,27,o),
(185,2,c),
(215,31,o),
(247,62,o),
(276,92,c),
(307,61,o),
(339,31,o),
(370,0,c),
(450,78,l),
(417,111,o),
(388,142,o),
(357,172,c),
(386,203,o),
(417,235,o),
(447,264,c),
(422,289,o),
(397,317,o),
(372,342,c),
(340,310,o),
(311,281,o),
(279,249,c)
);
}
);
width = 519;
}
);
unicode = 215;
}
{
glyphname = Oslash;
layers = (
{
anchors = (
{
name = bottom;
pos = (429,0);
},
{
name = top;
pos = (429,736);
}
);
layerId = "A6CBEFC3-C9E0-479E-A224-60A030287C4A";
shapes = (
{
closed = 1;
nodes = (
(681,759,l),
(76,60,l),
(168,-23,l),
(771,675,l)
);
},
{
ref = O;
}
);
width = 858;
},
{
anchors = (
{
name = bottom;
pos = (429,0);
},
{
name = top;
pos = (429,725);
}
);
layerId = master01;
shapes = (
{
closed = 1;
nodes = (
(691,746,l),
(90,44,l),
(156,-16,l),
(756,685,l)
);
},
{
alignment = -1;
ref = O;
}
);
width = 858;
}
);
unicode = 216;
}
{
glyphname = Thorn;
kernRight = P;
layers = (
{
anchors = (
{
name = bottom;
pos = (272,0);
},
{
name = top;
pos = (272,736);
}
);
layerId = "A6CBEFC3-C9E0-479E-A224-60A030287C4A";
shapes = (
{
closed = 1;
nodes = (
(245,616,l),
(245,732,l),
(95,732,l),
(95,0,l),
(245,0,l),
(245,113,l),
(354,113,ls),
(546,113,o),
(601,247,o),
(601,368,cs),
(601,519,o),
(530,616,o),
(348,616,cs)
);
},
{
closed = 1;
nodes = (
(245,254,l),
(245,476,l),
(339,476,ls),
(429,476,o),
(451,413,o),
(451,364,cs),
(451,306,o),
(414,254,o),
(338,254,cs)
);
}
);
width = 636;
},
{
anchors = (
{
name = bottom;
pos = (276,0);
},
{
name = top;
pos = (276,725);
}
);
layerId = master01;
shapes = (
{
closed = 1;
nodes = (
(211,591,l),
(211,720,l),
(103,720,l),
(103,0,l),
(211,0,l),
(211,126,l),
(321,126,ls),
(499,126,o),
(557,248,o),
(557,363,cs),
(557,510,o),
(470,591,o),
(321,591,cs)
);
},
{
closed = 1;
nodes = (
(211,228,l),
(211,490,l),
(312,490,ls),
(408,490,o),
(449,426,o),
(449,361,cs),
(449,298,o),
(411,228,o),
(311,228,cs)
);
}
);
width = 602;
}
);
metricLeft = H;
metricRight = P;
unicode = 222;
}
{
glyphname = germandbls;
layers = (
{
layerId = "A6CBEFC3-C9E0-479E-A224-60A030287C4A";
shapes = (
{
closed = 1;
nodes = (
(105,441,l),
(40,441,l),
(40,327,l),
(105,327,l),
(105,0,l),
(245,0,l),
(245,419,ls),
(245,508,o),
(263,556,o),
(330,556,cs),
(374,556,o),
(400,536,o),
(400,496,cs),
(400,467,o),
(379,447,o),
(345,447,c),
(346,326,l),
(352,326,l),
(409,328,o),
(440,287,o),
(440,205,cs),
(440,142,o),
(425,94,o),
(372,94,cs),
(355,94,o),
(340,97,o),
(322,113,c),
(268,29,l),
(281,13,o),
(322,-10,o),
(386,-10,cs),
(503,-10,o),
(581,54,o),
(581,197,cs),
(581,316,o),
(539,368,o),
(477,398,c),
(522,423,o),
(541,475,o),
(541,527,cs),
(541,607,o),
(465,670,o),
(329,670,c),
(212,672,o),
(105,594,o),
(105,468,cs)
);
}
);
width = 626;
},
{
layerId = master01;
shapes = (
{
closed = 1;
nodes = (
(108,423,l),
(43,423,l),
(43,340,l),
(108,340,l),
(108,0,l),
(209,0,l),
(209,422,ls),
(209,524,o),
(239,583,o),
(318,583,cs),
(377,583,o),
(408,549,o),
(408,502,cs),
(408,459,o),
(376,431,o),
(331,431,c),
(332,343,l),
(337,343,l),
(409,344,o),
(456,290,o),
(456,202,cs),
(456,127,o),
(418,67,o),
(349,67,cs),
(326,67,o),
(305,72,o),
(284,88,c),
(245,27,l),
(263,10,o),
(303,-10,o),
(359,-10,cs),
(474,-10,o),
(557,63,o),
(557,197,cs),
(557,308,o),
(508,368,o),
(437,395,c),
(485,419,o),
(510,468,o),
(510,525,cs),
(510,601,o),
(443,666,o),
(316,666,c),
(201,667,o),
(108,588,o),
(108,455,cs)
);
}
);
width = 606;
}
);
metricLeft = f;
metricRight = s;
unicode = 223;
}
{
glyphname = ae;
layers = (
{
anchors = (
{
name = bottom;
pos = (423,0);
},
{
name = top;
pos = (423,437);
}
);
layerId = "A6CBEFC3-C9E0-479E-A224-60A030287C4A";
shapes = (
{
closed = 1;
nodes = (
(294,-11,o),
(359,19,o),
(399,73,c),
(399,173,l),
(347,173,l),
(347,135,l),
(329,111,o),
(287,85,o),
(250,85,c),
(215,85,o),
(192,101,o),
(192,131,c),
(192,161,o),
(219,174,o),
(262,174,cs),
(304,174,o),
(321,169,o),
(358,150,c),
(380,230,l),
(350,247,o),
(287,264,o),
(229,264,cs),
(130,264,o),
(38,212,o),
(38,128,c),
(38,46,o),
(92,-11,o),
(210,-11,c)
);
},
{
closed = 1;
nodes = (
(469,281,l),
(469,301,ls),
(469,406,o),
(375,458,o),
(268,458,cs),
(175,458,o),
(110,415,o),
(66,368,c),
(136,280,l),
(155,308,o),
(195,344,o),
(248,344,cs),
(269,344,o),
(334,328,o),
(334,263,c),
(334,227,l)
);
},
{
pos = (296,0);
ref = e;
}
);
width = 849;
},
{
anchors = (
{
name = bottom;
pos = (409,0);
},
{
name = top;
pos = (409,418);
}
);
layerId = master01;
shapes = (
{
closed = 1;
nodes = (
(273,-11,o),
(347,11,o),
(388,65,c),
(388,168,l),
(345,168,l),
(345,109,l),
(322,81,o),
(272,60,o),
(235,60,c),
(182,60,o),
(155,85,o),
(155,122,c),
(155,164,o),
(193,182,o),
(239,182,cs),
(288,182,o),
(318,168,o),
(358,137,c),
(375,195,l),
(342,226,o),
(278,248,o),
(216,248,cs),
(127,248,o),
(43,201,o),
(43,119,c),
(43,46,o),
(94,-11,o),
(207,-11,c)
);
},
{
closed = 1;
nodes = (
(436,261,l),
(436,291,ls),
(436,385,o),
(362,434,o),
(260,434,cs),
(174,434,o),
(113,396,o),
(70,351,c),
(121,286,l),
(151,322,o),
(193,351,o),
(246,351,cs),
(279,351,o),
(338,335,o),
(338,263,c),
(338,202,l)
);
},
{
alignment = -1;
pos = (295,0);
ref = e;
}
);
width = 820;
}
);
metricLeft = a;
metricRight = e;
unicode = 230;
}
{
glyphname = eth;
layers = (
{
layerId = "A6CBEFC3-C9E0-479E-A224-60A030287C4A";
shapes = (
{
closed = 1;
nodes = (
(448,-12,o),
(533,135,o),
(533,270,c),
(533,473,o),
(420,686,o),
(259,789,c),
(155,697,l),
(314,569,o),
(392,477,o),
(392,254,c),
(445,224,l),
(445,328,o),
(377,458,o),
(252,458,c),
(132,458,o),
(38,358,o),
(38,224,c),
(38,76,o),
(142,-12,o),
(273,-12,c)
);
},
{
closed = 1;
nodes = (
(224,102,o),
(179,154,o),
(179,223,c),
(179,292,o),
(224,344,o),
(285,344,c),
(350,344,o),
(392,292,o),
(392,223,c),
(392,154,o),
(350,102,o),
(285,102,c)
);
},
{
closed = 1;
nodes = (
(447,760,l),
(169,590,l),
(214,497,l),
(492,667,l)
);
}
);
width = 571;
},
{
layerId = master01;
shapes = (
{
closed = 1;
nodes = (
(419,-10,o),
(506,119,o),
(506,250,c),
(506,444,o),
(381,662,o),
(222,770,c),
(148,703,l),
(298,586,o),
(397,454,o),
(403,254,c),
(440,241,l),
(430,331,o),
(364,435,o),
(251,435,c),
(135,435,o),
(43,339,o),
(43,213,c),
(43,76,o),
(142,-10,o),
(265,-10,c)
);
},
{
closed = 1;
nodes = (
(201,73,o),
(145,133,o),
(145,212,c),
(145,288,o),
(200,352,o),
(274,352,c),
(350,352,o),
(404,291,o),
(404,212,c),
(404,133,o),
(350,73,o),
(274,73,c)
);
},
{
closed = 1;
nodes = (
(402,739,l),
(159,589,l),
(193,522,l),
(436,673,l)
);
}
);
width = 549;
}
);
metricLeft = o;
metricRight = o;
unicode = 240;
}
{
glyphname = divide;
layers = (
{
layerId = "A6CBEFC3-C9E0-479E-A224-60A030287C4A";
shapes = (
{
closed = 1;
nodes = (
(184,385,o),
(220,357,o),
(256,357,cs),
(289,357,o),
(326,385,o),
(326,429,cs),
(326,470,o),
(289,502,o),
(256,502,cs),
(220,502,o),
(184,470,o),
(184,429,cs)
);
},
{
closed = 1;
nodes = (
(184,70,o),
(220,42,o),
(256,42,cs),
(289,42,o),
(326,70,o),
(326,114,cs),
(326,155,o),
(289,187,o),
(256,187,cs),
(220,187,o),
(184,155,o),
(184,114,cs)
);
},
{
closed = 1;
nodes = (
(69,208,l),
(436,208,l),
(436,329,l),
(69,329,l)
);
}
);
width = 510;
},
{
layerId = master01;
shapes = (
{
closed = 1;
nodes = (
(199,368,o),
(226,346,o),
(254,346,cs),
(281,346,o),
(309,368,o),
(309,402,cs),
(309,433,o),
(281,458,o),
(254,458,cs),
(226,458,o),
(199,433,o),
(199,402,cs)
);
},
{
closed = 1;
nodes = (
(199,73,o),
(226,51,o),
(254,51,cs),
(281,51,o),
(309,73,o),
(309,107,cs),
(309,139,o),
(281,163,o),
(254,163,cs),
(226,163,o),
(199,139,o),
(199,107,cs)
);
},
{
closed = 1;
nodes = (
(69,208,l),
(433,208,l),
(433,297,l),
(69,297,l)
);
}
);
width = 507;
}
);
unicode = 247;
}
{
glyphname = oslash;
kernRight = o;
layers = (
{
anchors = (
{
name = top;
pos = (273,437);
}
);
layerId = "A6CBEFC3-C9E0-479E-A224-60A030287C4A";
shapes = (
{
closed = 1;
nodes = (
(448,484,l),
(42,24,l),
(109,-37,l),
(518,426,l)
);
},
{
ref = o;
}
);
width = 546;
},
{
anchors = (
{
name = top;
pos = (263,418);
}
);
layerId = master01;
shapes = (
{
closed = 1;
nodes = (
(430,450,l),
(55,20,l),
(104,-26,l),
(481,408,l)
);
},
{
alignment = -1;
ref = o;
}
);
width = 525;
}
);
unicode = 248;
}
{
glyphname = thorn;
kernRight = o;
layers = (
{
layerId = "A6CBEFC3-C9E0-479E-A224-60A030287C4A";
shapes = (
{
closed = 1;
nodes = (
(488,-12,o),
(589,72,o),
(589,220,c),
(589,369,o),
(499,459,o),
(377,459,c),
(304,459,o),
(249,430,o),
(204,392,c),
(215,362,l),
(215,789,l),
(75,789,l),
(75,-210,l),
(214,-210,l),
(214,85,l),
(214,41,l),
(247,5,o),
(297,-12,o),
(349,-12,c)
);
},
{
closed = 1;
nodes = (
(270,98,o),
(230,125,o),
(215,168,c),
(215,275,l),
(239,319,o),
(275,341,o),
(331,341,c),
(393,341,o),
(447,288,o),
(447,218,c),
(447,148,o),
(388,98,o),
(321,98,c)
);
}
);
width = 625;
},
{
layerId = master01;
shapes = (
{
closed = 1;
nodes = (
(457,-10,o),
(553,74,o),
(553,210,c),
(553,346,o),
(465,435,o),
(347,435,c),
(271,435,o),
(205,398,o),
(168,347,c),
(179,324,l),
(179,777,l),
(78,777,l),
(78,-201,l),
(178,-201,l),
(178,103,l),
(176,67,l),
(204,19,o),
(266,-10,o),
(328,-10,c)
);
},
{
closed = 1;
nodes = (
(244,70,o),
(191,112,o),
(179,171,c),
(179,248,l),
(196,309,o),
(246,350,o),
(315,350,c),
(388,350,o),
(451,290,o),
(451,209,c),
(451,130,o),
(385,70,o),
(308,70,c)
);
}
);
width = 591;
}
);
unicode = 254;
}
{
glyphname = aogonek;
kernLeft = o;
layers = (
{
anchors = (
{
name = bottom;
pos = (311,0);
},
{
name = ogonek;
pos = (633,10);
},
{
name = top;
pos = (331,437);
}
);
layerId = "A6CBEFC3-C9E0-479E-A224-60A030287C4A";
shapes = (
{
closed = 1;
nodes = (
(349,-12,o),
(395,47,o),
(417,65,c),
(406,95,l),
(406,-26,l),
(422,-7,l),
(410,10,l),
(355,-12,o),
(325,-59,o),
(325,-103,cs),
(325,-181,o),
(389,-232,o),
(471,-232,c),
(517,-232,o),
(576,-201,o),
(606,-157,c),
(556,-85,l),
(534,-118,o),
(511,-134,o),
(484,-134,c),
(461,-134,o),
(440,-126,o),
(440,-92,cs),
(440,-49,o),
(484,-25,o),
(546,0,c),
(546,437,l),
(416,437,l),
(407,390,l),
(378,425,o),
(342,459,o),
(255,459,c),
(144,459,o),
(42,366,o),
(42,218,c),
(42,59,o),
(136,-12,o),
(255,-12,c)
);
},
{
closed = 1;
nodes = (
(235,102,o),
(184,155,o),
(184,225,c),
(184,295,o),
(235,345,o),
(295,345,c),
(348,345,o),
(390,318,o),
(406,275,c),
(406,168,l),
(383,124,o),
(348,102,o),
(295,102,c)
);
}
);
width = 621;
},
{
anchors = (
{
name = bottom;
pos = (298,0);
},
{
name = ogonek;
pos = (586,10);
},
{
name = top;
pos = (312,418);
}
);
layerId = master01;
shapes = (
{
closed = 1;
nodes = (
(344,-10,o),
(397,47,o),
(421,81,c),
(414,105,l),
(414,-18,l),
(426,-4,l),
(417,10,l),
(364,-14,o),
(329,-60,o),
(329,-106,cs),
(329,-173,o),
(384,-218,o),
(452,-218,c),
(493,-218,o),
(543,-189,o),
(567,-149,c),
(530,-98,l),
(510,-129,o),
(487,-146,o),
(461,-146,c),
(436,-146,o),
(414,-133,o),
(414,-98,cs),
(414,-56,o),
(454,-28,o),
(515,0,c),
(515,418,l),
(421,418,l),
(414,350,l),
(385,396,o),
(339,435,o),
(253,435,c),
(144,435,o),
(46,349,o),
(46,209,c),
(46,65,o),
(138,-10,o),
(253,-10,c)
);
},
{
closed = 1;
nodes = (
(209,73,o),
(148,134,o),
(148,214,c),
(148,296,o),
(209,353,o),
(281,353,c),
(345,353,o),
(398,313,o),
(414,258,c),
(414,172,l),
(398,111,o),
(348,73,o),
(281,73,c)
);
}
);
width = 596;
}
);
unicode = 261;
}
{
glyphname = eogonek;
kernLeft = o;
layers = (
{
layerId = "A6CBEFC3-C9E0-479E-A224-60A030287C4A";
shapes = (
{
closed = 1;
nodes = (
(368,-232,o),
(427,-201,o),
(457,-157,c),
(407,-85,l),
(385,-118,o),
(362,-134,o),
(335,-134,cs),
(312,-134,o),
(286,-115,o),
(286,-81,cs),
(286,-16,o),
(370,-8,o),
(443,32,c),
(381,136,l),
(353,118,o),
(325,107,o),
(294,107,c),
(230,107,o),
(180,149,o),
(180,231,c),
(180,303,o),
(220,349,o),
(283,349,c),
(338,349,o),
(362,318,o),
(373,284,c),
(402,297,l),
(156,214,l),
(187,138,l),
(527,246,l),
(503,383,o),
(419,458,o),
(294,458,c),
(154,458,o),
(42,354,o),
(42,223,c),
(42,85,o),
(131,-12,o),
(291,-12,c),
(317,-12,o),
(385,7,o),
(404,32,c),
(256,10,l),
(201,-12,o),
(171,-59,o),
(171,-103,cs),
(171,-181,o),
(229,-232,o),
(322,-232,cs)
);
}
);
width = 557;
},
{
layerId = master01;
shapes = (
{
closed = 1;
nodes = (
(367,-218,o),
(414,-192,o),
(439,-157,c),
(402,-103,l),
(382,-131,o),
(362,-146,o),
(337,-146,cs),
(311,-146,o),
(283,-124,o),
(283,-87,cs),
(283,-18,o),
(360,-4,o),
(425,36,c),
(378,111,l),
(349,89,o),
(316,76,o),
(280,76,c),
(204,76,o),
(146,132,o),
(146,218,c),
(146,298,o),
(198,355,o),
(273,355,c),
(332,355,o),
(365,320,o),
(382,276,c),
(404,288,l),
(130,189,l),
(153,132,l),
(493,250,l),
(468,367,o),
(392,435,o),
(280,435,c),
(150,435,o),
(46,336,o),
(46,212,c),
(46,83,o),
(134,-10,o),
(278,-10,c),
(304,-10,o),
(360,4,o),
(378,24,c),
(274,10,l),
(225,-15,o),
(199,-60,o),
(199,-103,cs),
(199,-172,o),
(250,-218,o),
(327,-218,cs)
);
}
);
width = 528;
}
);
unicode = 281;
}
{
glyphname = gcommaaccent;
kernLeft = o;
layers = (
{
layerId = "A6CBEFC3-C9E0-479E-A224-60A030287C4A";
shapes = (
{
closed = 1;
nodes = (
(346,507,l),
(373,578,o),
(398,647,o),
(425,717,c),
(313,717,l),
(284,647,o),
(255,578,o),
(225,507,c)
);
},
{
ref = g;
}
);
width = 598;
},
{
layerId = master01;
shapes = (
{
closed = 1;
nodes = (
(320,507,l),
(347,578,o),
(372,646,o),
(399,716,c),
(317,716,l),
(288,646,o),
(259,578,o),
(230,507,c)
);
},
{
alignment = -1;
ref = g;
}
);
width = 572;
},
{
associatedMasterId = "A6CBEFC3-C9E0-479E-A224-60A030287C4A";
attr = {
colorPalette = 0;
};
layerId = "B686C8D2-2E8C-4FC0-9AC5-A2E180FBC207";
name = "4 Nov 24 at 11:23";
shapes = (
{
closed = 1;
nodes = (
(346,507,l),
(373,578,o),
(398,647,o),
(425,717,c),
(313,717,l),
(284,647,o),
(255,578,o),
(225,507,c)
);
}
);
width = 598;
},
{
associatedMasterId = "A6CBEFC3-C9E0-479E-A224-60A030287C4A";
attr = {
colorPalette = "*";
};
layerId = "C1CBC844-79BD-435E-9A20-A1D166D9057F";
name = "Color 0 4 Nov 24 at 11:23";
shapes = (
{
alignment = -1;
ref = g;
}
);
width = 598;
},
{
associatedMasterId = master01;
attr = {
colorPalette = 0;
};
layerId = "4C62D788-7050-4AC0-9B7E-05ED5CB73312";
name = "4 Nov 24 at 11:23";
shapes = (
{
closed = 1;
nodes = (
(320,507,l),
(347,578,o),
(372,646,o),
(399,716,c),
(317,716,l),
(288,646,o),
(259,578,o),
(230,507,c)
);
}
);
width = 572;
},
{
associatedMasterId = master01;
attr = {
colorPalette = "*";
};
layerId = "95C3127F-5A22-48E7-9663-3CAC061DB7A5";
name = "Color 0 4 Nov 24 at 11:24";
shapes = (
{
alignment = -1;
ref = g;
}
);
width = 572;
}
);
unicode = 291;
}
{
glyphname = Hbar;
kernRight = z;
layers = (
{
layerId = "A6CBEFC3-C9E0-479E-A224-60A030287C4A";
shapes = (
{
closed = 1;
nodes = (
(95,499,l),
(880,499,l),
(880,606,l),
(95,606,l)
);
},
{
pos = (92,0);
ref = H;
}
);
width = 975;
},
{
layerId = master01;
shapes = (
{
closed = 1;
nodes = (
(103,497,l),
(846,497,l),
(846,575,l),
(103,575,l)
);
},
{
alignment = -1;
pos = (79,0);
ref = H;
}
);
width = 949;
}
);
metricLeft = H;
metricRight = H;
unicode = 294;
}
{
glyphname = Iogonek;
layers = (
{
layerId = "A6CBEFC3-C9E0-479E-A224-60A030287C4A";
shapes = (
{
closed = 1;
nodes = (
(199,-232,o),
(258,-201,o),
(288,-157,c),
(238,-85,l),
(216,-118,o),
(193,-134,o),
(166,-134,c),
(143,-134,o),
(122,-126,o),
(122,-92,cs),
(122,-50,o),
(167,-26,o),
(235,0,c),
(210,6,l),
(92,0,l),
(37,-22,o),
(7,-69,o),
(7,-113,cs),
(7,-191,o),
(71,-232,o),
(153,-232,c)
);
},
{
ref = I;
}
);
width = 285;
},
{
layerId = master01;
shapes = (
{
closed = 1;
nodes = (
(177,-218,o),
(226,-189,o),
(251,-149,c),
(213,-98,l),
(193,-129,o),
(171,-146,o),
(145,-146,c),
(120,-146,o),
(97,-133,o),
(97,-98,cs),
(97,-57,o),
(138,-29,o),
(203,0,c),
(185,6,l),
(102,4,l),
(48,-20,o),
(13,-66,o),
(13,-113,cs),
(13,-180,o),
(67,-218,o),
(135,-218,c)
);
},
{
alignment = -1;
ref = I;
}
);
width = 275;
}
);
unicode = 302;
}
{
glyphname = iogonek;
layers = (
{
layerId = "A6CBEFC3-C9E0-479E-A224-60A030287C4A";
shapes = (
{
closed = 1;
nodes = (
(187,-232,o),
(246,-201,o),
(276,-157,c),
(226,-85,l),
(204,-118,o),
(181,-134,o),
(154,-134,c),
(131,-134,o),
(110,-126,o),
(110,-92,cs),
(110,-48,o),
(151,-26,o),
(214,0,c),
(188,10,l),
(80,10,l),
(25,-12,o),
(-5,-59,o),
(-5,-103,cs),
(-5,-181,o),
(59,-232,o),
(141,-232,c)
);
},
{
ref = idotless;
},
{
pos = (24,-10);
ref = dotaccentcomb;
}
);
width = 290;
},
{
layerId = master01;
shapes = (
{
closed = 1;
nodes = (
(162,-218,o),
(211,-189,o),
(236,-149,c),
(197,-98,l),
(178,-129,o),
(156,-146,o),
(129,-146,c),
(105,-146,o),
(81,-133,o),
(81,-98,cs),
(81,-56,o),
(120,-29,o),
(182,0,c),
(162,9,l),
(87,10,l),
(33,-13,o),
(-2,-59,o),
(-2,-106,cs),
(-2,-173,o),
(52,-218,o),
(120,-218,c)
);
},
{
alignment = -1;
ref = idotless;
},
{
alignment = -1;
pos = (21,-19);
ref = dotaccentcomb;
}
);
width = 264;
},
{
associatedMasterId = master01;
attr = {
colorPalette = 0;
};
layerId = "022432CB-EAAF-4D84-AD0D-19FC60A86DE6";
name = "4 Nov 24 at 11:09";
shapes = (
{
alignment = -1;
pos = (21,-19);
ref = dotaccentcomb;
}
);
width = 264;
},
{
associatedMasterId = master01;
attr = {
colorPalette = "*";
};
layerId = "C0BB5D47-2981-4F5B-83E7-E9204238EF8F";
name = "Color 0 4 Nov 24 at 11:09";
shapes = (
{
closed = 1;
nodes = (
(162,-218,o),
(211,-189,o),
(236,-149,c),
(197,-98,l),
(178,-129,o),
(156,-146,o),
(129,-146,c),
(105,-146,o),
(81,-133,o),
(81,-98,cs),
(81,-56,o),
(120,-29,o),
(182,0,c),
(162,9,l),
(87,10,l),
(33,-13,o),
(-2,-59,o),
(-2,-106,cs),
(-2,-173,o),
(52,-218,o),
(120,-218,c)
);
},
{
alignment = -1;
ref = idotless;
}
);
width = 264;
},
{
associatedMasterId = "A6CBEFC3-C9E0-479E-A224-60A030287C4A";
attr = {
colorPalette = 0;
};
layerId = "40B1EA68-F691-47D1-9D4F-6F0F6E1FFFB3";
name = "4 Nov 24 at 11:10";
shapes = (
{
pos = (24,-10);
ref = dotaccentcomb;
}
);
width = 290;
},
{
associatedMasterId = "A6CBEFC3-C9E0-479E-A224-60A030287C4A";
attr = {
colorPalette = "*";
};
layerId = "95DE69D4-EE92-48A6-A049-41B5704D16ED";
name = "Color 0 4 Nov 24 at 11:11";
shapes = (
{
closed = 1;
nodes = (
(187,-232,o),
(246,-201,o),
(276,-157,c),
(226,-85,l),
(204,-118,o),
(181,-134,o),
(154,-134,c),
(131,-134,o),
(110,-126,o),
(110,-92,cs),
(110,-48,o),
(151,-26,o),
(214,0,c),
(188,10,l),
(80,10,l),
(25,-12,o),
(-5,-59,o),
(-5,-103,cs),
(-5,-181,o),
(59,-232,o),
(141,-232,c)
);
},
{
ref = idotless;
}
);
width = 290;
}
);
unicode = 303;
}
{
glyphname = idotless;
layers = (
{
anchors = (
{
name = bottom;
pos = (130,0);
},
{
name = ogonek;
pos = (300,10);
},
{
name = top;
pos = (144,437);
}
);
layerId = "A6CBEFC3-C9E0-479E-A224-60A030287C4A";
shapes = (
{
closed = 1;
nodes = (
(72,0,l),
(212,0,l),
(212,437,l),
(72,437,l)
);
}
);
width = 284;
},
{
anchors = (
{
name = bottom;
pos = (121,0);
},
{
name = ogonek;
pos = (261,10);
},
{
name = top;
pos = (131,418);
}
);
layerId = master01;
shapes = (
{
closed = 1;
nodes = (
(79,0,l),
(180,0,l),
(180,418,l),
(79,418,l)
);
}
);
width = 259;
}
);
metricLeft = n;
metricRight = n;
unicode = 305;
}
{
glyphname = kgreenlandic;
layers = (
{
layerId = "A6CBEFC3-C9E0-479E-A224-60A030287C4A";
shapes = (
{
closed = 1;
nodes = (
(527,437,l),
(359,437,l),
(182,239,l),
(203,116,l)
);
},
{
closed = 1;
nodes = (
(212,437,l),
(72,437,l),
(72,0,l),
(212,0,l)
);
},
{
closed = 1;
nodes = (
(222,194,l),
(362,0,l),
(523,0,l),
(330,254,l)
);
}
);
width = 562;
},
{
layerId = master01;
shapes = (
{
closed = 1;
nodes = (
(472,418,l),
(350,418,l),
(157,213,l),
(172,124,l)
);
},
{
closed = 1;
nodes = (
(180,418,l),
(79,418,l),
(79,0,l),
(180,0,l)
);
},
{
closed = 1;
nodes = (
(199,195,l),
(354,0,l),
(472,0,l),
(276,240,l)
);
}
);
width = 516;
}
);
metricLeft = n;
unicode = 312;
}
{
glyphname = Lslash;
layers = (
{
layerId = "A6CBEFC3-C9E0-479E-A224-60A030287C4A";
shapes = (
{
closed = 1;
nodes = (
(5,368,l),
(35,255,l),
(441,381,l),
(411,494,l)
);
},
{
ref = L;
}
);
width = 640;
},
{
layerId = master01;
shapes = (
{
closed = 1;
nodes = (
(14,345,l),
(35,263,l),
(412,385,l),
(391,468,l)
);
},
{
alignment = -1;
ref = L;
}
);
width = 619;
}
);
unicode = 321;
}
{
glyphname = lslash;
layers = (
{
layerId = "A6CBEFC3-C9E0-479E-A224-60A030287C4A";
shapes = (
{
closed = 1;
nodes = (
(15,346,l),
(15,225,l),
(300,292,l),
(300,413,l)
);
},
{
pos = (10,0);
ref = l;
}
);
width = 315;
},
{
layerId = master01;
shapes = (
{
closed = 1;
nodes = (
(19,330,l),
(19,242,l),
(263,305,l),
(263,393,l)
);
},
{
alignment = -1;
pos = (7,0);
ref = l;
}
);
width = 275;
}
);
unicode = 322;
}
{
glyphname = Eng;
layers = (
{
layerId = "A6CBEFC3-C9E0-479E-A224-60A030287C4A";
shapes = (
{
closed = 1;
nodes = (
(733,4,l),
(733,736,l),
(587,736,l),
(590,277,l),
(622,263,l),
(76,765,l),
(70,765,l),
(70,0,l),
(217,0,l),
(214,450,l),
(171,474,l),
(729,-30,l)
);
},
{
closed = 1;
nodes = (
(594,163,l),
(594,8,l),
(594,-53,o),
(571,-95,o),
(531,-124,c),
(611,-211,l),
(695,-167,o),
(733,-96,o),
(733,0,c),
(733,30,l)
);
}
);
width = 803;
},
{
layerId = master01;
shapes = (
{
closed = 1;
nodes = (
(720,-1,l),
(720,725,l),
(616,725,l),
(618,196,l),
(642,189,l),
(90,748,l),
(86,748,l),
(86,0,l),
(191,0,l),
(188,523,l),
(158,534,l),
(717,-25,l)
);
},
{
closed = 1;
nodes = (
(620,132,l),
(620,2,l),
(620,-61,o),
(597,-107,o),
(559,-139,c),
(618,-201,l),
(687,-159,o),
(720,-92,o),
(720,-2,c),
(720,40,l)
);
}
);
width = 806;
}
);
unicode = 330;
}
{
glyphname = eng;
layers = (
{
anchors = (
{
name = bottom;
pos = (297,0);
},
{
name = top;
pos = (297,447);
}
);
layerId = "A6CBEFC3-C9E0-479E-A224-60A030287C4A";
shapes = (
{
closed = 1;
nodes = (
(522,327,l),
(520,404,o),
(458,458,o),
(376,458,c),
(295,458,o),
(240,421,o),
(209,366,c),
(199,437,l),
(72,437,l),
(72,0,l),
(212,0,l),
(212,178,l),
(212,271,o),
(253,339,o),
(318,339,c),
(363,339,o),
(380,314,o),
(382,275,c),
(382,8,ls),
(382,-53,o),
(360,-95,o),
(320,-124,c),
(400,-211,l),
(484,-167,o),
(522,-89,o),
(522,7,cs)
);
}
);
width = 594;
},
{
anchors = (
{
name = bottom;
pos = (280,0);
},
{
name = top;
pos = (280,425);
}
);
layerId = master01;
shapes = (
{
closed = 1;
nodes = (
(480,309,l),
(478,383,o),
(422,434,o),
(344,434,c),
(264,434,o),
(206,395,o),
(178,335,c),
(170,418,l),
(79,418,l),
(79,0,l),
(180,0,l),
(180,191,l),
(180,283,o),
(233,348,o),
(304,348,c),
(355,347,o),
(377,317,o),
(379,274,c),
(379,2,ls),
(379,-61,o),
(357,-107,o),
(320,-139,c),
(379,-201,l),
(447,-159,o),
(480,-87,o),
(480,3,cs)
);
}
);
width = 559;
}
);
metricLeft = n;
metricRight = n;
unicode = 331;
}
{
glyphname = OE;
kernLeft = O;
layers = (
{
anchors = (
{
name = bottom;
pos = (511,0);
},
{
name = top;
pos = (511,736);
}
);
layerId = "A6CBEFC3-C9E0-479E-A224-60A030287C4A";
shapes = (
{
closed = 1;
nodes = (
(529,731,l),
(499,739,o),
(467,744,o),
(434,744,cs),
(227,744,o),
(59,570,o),
(59,367,cs),
(59,160,o),
(227,-8,o),
(434,-8,cs),
(466,-8,o),
(496,-4,o),
(526,4,c),
(489,139,l),
(473,135,o),
(456,133,o),
(439,133,cs),
(311,133,o),
(209,238,o),
(209,367,cs),
(209,496,o),
(309,600,o),
(435,600,cs),
(452,600,o),
(468,598,o),
(484,594,c)
);
},
{
closed = 1;
nodes = (
(477,0,l),
(963,0,l),
(963,139,l),
(627,139,l),
(627,299,l),
(908,299,l),
(908,437,l),
(627,437,l),
(627,601,l),
(949,601,l),
(949,736,l),
(477,736,l)
);
}
);
width = 1021;
},
{
anchors = (
{
name = bottom;
pos = (509,0);
},
{
name = top;
pos = (509,725);
}
);
layerId = master01;
shapes = (
{
closed = 1;
nodes = (
(529,720,l),
(499,728,o),
(467,733,o),
(435,733,cs),
(231,733,o),
(65,563,o),
(65,362,cs),
(65,157,o),
(231,-8,o),
(435,-8,cs),
(466,-8,o),
(496,-4,o),
(526,4,c),
(496,100,l),
(477,96,o),
(458,94,o),
(439,94,cs),
(291,94,o),
(173,214,o),
(173,361,cs),
(173,509,o),
(290,629,o),
(435,629,cs),
(455,629,o),
(474,627,o),
(493,623,c)
);
},
{
closed = 1;
nodes = (
(486,0,l),
(945,0,l),
(945,100,l),
(594,100,l),
(594,314,l),
(891,314,l),
(891,413,l),
(594,413,l),
(594,627,l),
(931,627,l),
(931,725,l),
(486,725,l)
);
}
);
width = 1017;
}
);
unicode = 338;
}
{
glyphname = Uogonek;
kernLeft = U;
kernRight = U;
layers = (
{
background = {
shapes = (
{
closed = 1;
nodes = (
(225,736,l),
(80,736,l),
(80,269,ls),
(80,107,o),
(212,-8,o),
(377,-8,cs),
(377,-8,ls),
(543,-8,o),
(676,107,o),
(676,269,cs),
(676,736,l),
(533,736,l),
(533,272,ls),
(533,202,o),
(466,133,o),
(377,133,cs),
(295,133,o),
(225,202,o),
(225,272,cs)
);
},
{
closed = 1;
nodes = (
(584,0,c),
(426,0,l),
(371,-22,o),
(341,-69,o),
(341,-113,cs),
(341,-191,o),
(403,-226,o),
(485,-226,cs),
(542,-226,o),
(605,-193,o),
(625,-144,c),
(555,-92,l),
(549,-110,o),
(527,-134,o),
(500,-134,cs),
(477,-134,o),
(456,-126,o),
(456,-92,cs),
(456,-53,o),
(508,-29,o)
);
}
);
};
layerId = "A6CBEFC3-C9E0-479E-A224-60A030287C4A";
shapes = (
{
closed = 1;
nodes = (
(533,-232,o),
(592,-201,o),
(622,-157,c),
(572,-85,l),
(550,-118,o),
(527,-134,o),
(500,-134,c),
(477,-134,o),
(456,-126,o),
(456,-92,cs),
(456,-44,o),
(495,-11,o),
(539,26,cs),
(602,78,o),
(676,139,o),
(676,260,cs),
(676,736,l),
(533,736,l),
(533,272,ls),
(533,202,o),
(466,133,o),
(377,133,cs),
(295,133,o),
(225,202,o),
(225,272,cs),
(225,736,l),
(80,736,l),
(80,269,ls),
(80,109,o),
(196,-8,o),
(377,-8,cs),
(415,-8,o),
(450,-2,o),
(483,9,c),
(467,69,l),
(426,10,l),
(371,-12,o),
(341,-59,o),
(341,-103,cs),
(341,-181,o),
(405,-232,o),
(487,-232,c)
);
}
);
width = 756;
},
{
layerId = master01;
shapes = (
{
closed = 1;
nodes = (
(514,-218,o),
(563,-189,o),
(588,-149,c),
(549,-98,l),
(530,-129,o),
(508,-146,o),
(481,-146,c),
(456,-146,o),
(433,-133,o),
(433,-98,cs),
(433,-49,o),
(471,-12,o),
(519,27,cs),
(581,74,o),
(643,137,o),
(643,250,cs),
(643,725,l),
(540,725,l),
(540,259,ls),
(540,166,o),
(466,94,o),
(367,94,cs),
(272,94,o),
(197,166,o),
(197,259,cs),
(197,725,l),
(92,725,l),
(92,256,ls),
(92,98,o),
(202,-8,o),
(367,-8,cs),
(404,-8,o),
(438,-2,o),
(468,9,c),
(458,51,l),
(428,10,l),
(379,-14,o),
(349,-62,o),
(349,-106,cs),
(349,-173,o),
(404,-218,o),
(471,-218,c)
);
}
);
width = 735;
}
);
metricLeft = U;
metricRight = U;
unicode = 370;
}
{
glyphname = uogonek;
layers = (
{
layerId = "A6CBEFC3-C9E0-479E-A224-60A030287C4A";
shapes = (
{
closed = 1;
nodes = (
(495,-232,o),
(554,-201,o),
(584,-157,c),
(534,-85,l),
(512,-118,o),
(489,-134,o),
(462,-134,c),
(439,-134,o),
(418,-126,o),
(418,-92,cs),
(418,-48,o),
(457,-25,o),
(515,0,c),
(466,23,l),
(388,10,l),
(333,-12,o),
(303,-59,o),
(303,-103,cs),
(303,-181,o),
(367,-232,o),
(449,-232,c)
);
},
{
ref = u;
}
);
width = 590;
},
{
layerId = master01;
shapes = (
{
closed = 1;
nodes = (
(463,-218,o),
(512,-189,o),
(537,-149,c),
(498,-98,l),
(479,-129,o),
(457,-146,o),
(430,-146,c),
(405,-146,o),
(382,-133,o),
(382,-98,cs),
(382,-56,o),
(419,-28,o),
(476,0,c),
(440,17,l),
(385,10,l),
(332,-14,o),
(298,-60,o),
(298,-106,cs),
(298,-173,o),
(353,-218,o),
(420,-218,c)
);
},
{
alignment = -1;
ref = u;
}
);
width = 557;
}
);
unicode = 371;
}
{
glyphname = Schwa;
layers = (
{
layerId = "A6CBEFC3-C9E0-479E-A224-60A030287C4A";
shapes = (
{
closed = 1;
nodes = (
(296,743,o),
(170,692,o),
(114,635,c),
(186,517,l),
(224,565,o),
(306,601,o),
(373,601,c),
(473,601,o),
(581,516,o),
(581,377,c),
(581,235,o),
(488,129,o),
(384,129,c),
(288,129,o),
(233,200,o),
(210,294,c),
(165,251,l),
(639,410,l),
(608,516,l),
(40,332,l),
(74,123,o),
(194,0,o),
(373,0,c),
(569,0,o),
(735,164,o),
(735,385,c),
(735,589,o),
(600,743,o),
(376,743,c)
);
}
);
width = 785;
},
{
layerId = master01;
shapes = (
{
closed = 1;
nodes = (
(291,733,o),
(177,685,o),
(118,627,c),
(170,542,l),
(215,592,o),
(300,630,o),
(373,630,c),
(507,630,o),
(625,519,o),
(625,368,c),
(625,212,o),
(513,91,o),
(381,91,c),
(274,91,o),
(202,165,o),
(169,269,c),
(136,236,l),
(660,426,l),
(637,503,l),
(46,295,l),
(86,112,o),
(202,-3,o),
(373,-3,c),
(572,-3,o),
(736,160,o),
(736,373,c),
(736,576,o),
(593,733,o),
(376,733,c)
);
}
);
width = 794;
}
);
metricRight = O;
unicode = 399;
}
{
glyphname = florin;
layers = (
{
layerId = "A6CBEFC3-C9E0-479E-A224-60A030287C4A";
shapes = (
{
closed = 1;
nodes = (
(97,439,l),
(23,439,l),
(23,305,l),
(97,305,l),
(97,115,ls),
(97,31,o),
(65,-18,o),
(-43,-26,c),
(-43,-164,l),
(156,-159,o),
(243,-76,o),
(243,110,cs),
(243,305,l),
(375,305,l),
(375,439,l),
(243,439,l),
(243,510,ls),
(243,594,o),
(275,642,o),
(383,650,c),
(383,789,l),
(213,784,o),
(97,701,o),
(97,515,cs)
);
}
);
width = 366;
},
{
layerId = master01;
shapes = (
{
closed = 1;
nodes = (
(97,418,l),
(25,418,l),
(25,321,l),
(97,321,l),
(97,97,ls),
(97,-2,o),
(49,-62,o),
(-53,-67,c),
(-53,-167,l),
(116,-162,o),
(201,-80,o),
(201,94,cs),
(201,321,l),
(333,321,l),
(333,418,l),
(201,418,l),
(201,514,ls),
(201,612,o),
(249,671,o),
(351,676,c),
(351,777,l),
(203,772,o),
(97,690,o),
(97,516,cs)
);
}
);
width = 340;
}
);
unicode = 402;
}
{
glyphname = Nhookleft;
layers = (
{
layerId = "A6CBEFC3-C9E0-479E-A224-60A030287C4A";
shapes = (
{
closed = 1;
nodes = (
(733,4,l),
(733,736,l),
(587,736,l),
(590,277,l),
(622,263,l),
(76,765,l),
(70,765,l),
(70,0,l),
(217,0,l),
(214,450,l),
(171,474,l),
(729,-30,l)
);
},
{
closed = 1;
nodes = (
(70,163,l),
(70,8,l),
(70,-53,o),
(47,-95,o),
(7,-124,c),
(95,-211,l),
(179,-167,o),
(217,-96,o),
(217,0,c),
(217,30,l)
);
}
);
width = 828;
},
{
layerId = master01;
shapes = (
{
closed = 1;
nodes = (
(720,-1,l),
(720,725,l),
(616,725,l),
(618,196,l),
(642,190,l),
(90,748,l),
(86,748,l),
(86,0,l),
(191,0,l),
(188,523,l),
(158,534,l),
(717,-25,l)
);
},
{
closed = 1;
nodes = (
(86,132,l),
(86,2,l),
(86,-61,o),
(63,-107,o),
(25,-139,c),
(90,-201,l),
(158,-159,o),
(191,-92,o),
(191,-2,c),
(191,40,l)
);
}
);
width = 823;
}
);
metricRight = N;
unicode = 413;
}
{
glyphname = Oogonek;
kernLeft = O;
kernRight = O;
layers = (
{
background = {
shapes = (
{
closed = 1;
nodes = (
(481,0,l),
(426,-22,o),
(396,-69,o),
(396,-113,cs),
(396,-191,o),
(458,-226,o),
(540,-226,cs),
(597,-226,o),
(660,-193,o),
(680,-144,c),
(610,-92,l),
(604,-110,o),
(582,-134,o),
(555,-134,cs),
(532,-134,o),
(511,-126,o),
(511,-71,cs),
(511,-9,o),
(554,11,o),
(620,47,cs),
(732,108,o),
(802,231,o),
(802,367,c),
(802,570,o),
(630,744,o),
(425,744,c),
(218,744,o),
(50,570,o),
(50,367,c),
(50,160,o),
(218,-8,o),
(425,-8,c),
(496,-8,o),
(555,12,o),
(613,47,c)
);
},
{
closed = 1;
nodes = (
(200,496,o),
(298,600,o),
(426,600,c),
(553,600,o),
(652,496,o),
(652,367,c),
(652,237,o),
(556,133,o),
(430,133,c),
(300,133,o),
(200,238,o),
(200,367,c)
);
}
);
};
layerId = "A6CBEFC3-C9E0-479E-A224-60A030287C4A";
shapes = (
{
closed = 1;
nodes = (
(496,-8,o),
(555,12,o),
(613,47,c),
(481,0,l),
(426,-22,o),
(396,-69,o),
(396,-113,cs),
(396,-191,o),
(460,-232,o),
(542,-232,c),
(588,-232,o),
(647,-201,o),
(677,-157,c),
(627,-85,l),
(605,-118,o),
(582,-134,o),
(555,-134,c),
(532,-134,o),
(511,-126,o),
(511,-90,cs),
(511,-38,o),
(588,-3,o),
(663,64,cs),
(734,126,o),
(802,214,o),
(802,367,c),
(802,570,o),
(630,744,o),
(425,744,c),
(218,744,o),
(50,570,o),
(50,367,c),
(50,160,o),
(218,-8,o),
(425,-8,c)
);
},
{
closed = 1;
nodes = (
(300,133,o),
(200,238,o),
(200,367,c),
(200,496,o),
(298,600,o),
(426,600,c),
(553,600,o),
(652,496,o),
(652,367,c),
(652,237,o),
(556,133,o),
(430,133,c)
);
}
);
width = 852;
},
{
layerId = master01;
shapes = (
{
closed = 1;
nodes = (
(487,-8,o),
(545,9,o),
(593,36,c),
(503,6,l),
(449,-16,o),
(408,-60,o),
(408,-113,cs),
(408,-180,o),
(463,-218,o),
(530,-218,c),
(572,-218,o),
(621,-189,o),
(646,-149,c),
(608,-98,l),
(589,-129,o),
(566,-146,o),
(539,-146,c),
(515,-146,o),
(492,-133,o),
(492,-96,cs),
(492,-33,o),
(577,-3,o),
(658,64,cs),
(730,124,o),
(799,213,o),
(799,362,c),
(799,563,o),
(630,733,o),
(427,733,c),
(223,733,o),
(58,563,o),
(58,362,c),
(58,154,o),
(223,-8,o),
(427,-8,c)
);
},
{
closed = 1;
nodes = (
(282,94,o),
(166,214,o),
(166,361,c),
(166,507,o),
(279,629,o),
(428,629,c),
(574,629,o),
(691,509,o),
(691,362,c),
(691,213,o),
(576,94,o),
(430,94,c)
);
}
);
width = 856;
}
);
unicode = 490;
}
{
glyphname = oogonek;
kernLeft = o;
kernRight = o;
layers = (
{
background = {
shapes = (
{
closed = 1;
nodes = (
(456,0,c),
(298,0,l),
(243,-22,o),
(213,-69,o),
(213,-113,cs),
(213,-191,o),
(275,-226,o),
(357,-226,cs),
(414,-226,o),
(477,-193,o),
(497,-144,c),
(427,-92,l),
(421,-110,o),
(399,-134,o),
(372,-134,cs),
(349,-134,o),
(328,-126,o),
(328,-92,cs),
(328,-53,o),
(380,-29,o)
);
},
{
closed = 1;
nodes = (
(42,76,o),
(146,-12,o),
(291,-12,c),
(444,-12,o),
(537,90,o),
(537,224,c),
(537,358,o),
(443,458,o),
(293,458,c),
(144,458,o),
(42,358,o),
(42,224,c)
);
},
{
closed = 1;
nodes = (
(183,292,o),
(228,344,o),
(289,344,c),
(354,344,o),
(396,292,o),
(396,223,c),
(396,154,o),
(354,102,o),
(289,102,c),
(228,102,o),
(183,154,o),
(183,223,c)
);
}
);
};
layerId = "A6CBEFC3-C9E0-479E-A224-60A030287C4A";
shapes = (
{
closed = 1;
nodes = (
(405,-232,o),
(464,-201,o),
(494,-157,c),
(444,-85,l),
(422,-118,o),
(399,-134,o),
(372,-134,c),
(349,-134,o),
(328,-120,o),
(328,-92,cs),
(328,-48,o),
(359,-29,o),
(406,1,cs),
(484,51,o),
(537,128,o),
(537,224,c),
(537,358,o),
(443,458,o),
(293,458,c),
(144,457,o),
(42,357,o),
(42,224,c),
(42,76,o),
(146,-12,o),
(291,-12,c),
(300,-12,o),
(326,-2,o),
(332,2,c),
(298,10,l),
(243,-12,o),
(213,-59,o),
(213,-103,cs),
(213,-191,o),
(277,-232,o),
(349,-232,cs)
);
},
{
closed = 1;
nodes = (
(228,102,o),
(183,154,o),
(183,223,c),
(183,292,o),
(228,344,o),
(289,344,c),
(354,344,o),
(396,292,o),
(396,223,c),
(396,154,o),
(354,102,o),
(289,102,c)
);
}
);
width = 579;
},
{
layerId = master01;
shapes = (
{
closed = 1;
nodes = (
(397,-218,o),
(446,-189,o),
(471,-149,c),
(433,-98,l),
(414,-129,o),
(391,-146,o),
(364,-146,c),
(340,-146,o),
(317,-128,o),
(317,-94,cs),
(317,-46,o),
(353,-19,o),
(401,17,cs),
(466,64,o),
(508,133,o),
(508,213,c),
(508,339,o),
(416,435,o),
(279,435,c),
(143,435,o),
(46,338,o),
(46,213,c),
(46,76,o),
(144,-10,o),
(278,-10,c),
(307,-10,o),
(341,4,o),
(360,21,c),
(322,21,l),
(268,-5,o),
(233,-49,o),
(233,-101,cs),
(233,-178,o),
(288,-218,o),
(349,-218,cs)
);
},
{
closed = 1;
nodes = (
(203,73,o),
(147,133,o),
(147,212,c),
(147,288,o),
(202,352,o),
(276,352,c),
(352,352,o),
(406,291,o),
(406,212,c),
(406,133,o),
(352,73,o),
(276,73,c)
);
}
);
width = 554;
}
);
unicode = 491;
}
{
glyphname = jdotless;
layers = (
{
anchors = (
{
name = bottom;
pos = (153,0);
},
{
name = top;
pos = (153,437);
}
);
layerId = "A6CBEFC3-C9E0-479E-A224-60A030287C4A";
shapes = (
{
closed = 1;
nodes = (
(189,-171,o),
(223,-104,o),
(223,0,c),
(223,437,l),
(83,437,l),
(83,8,l),
(83,-53,o),
(60,-95,o),
(20,-124,c),
(101,-211,l)
);
}
);
width = 295;
},
{
anchors = (
{
name = bottom;
pos = (139,0);
},
{
name = top;
pos = (140,418);
}
);
layerId = master01;
shapes = (
{
closed = 1;
nodes = (
(161,-162,o),
(191,-98,o),
(191,-2,c),
(191,418,l),
(90,418,l),
(90,2,l),
(90,-61,o),
(67,-107,o),
(29,-139,c),
(89,-201,l)
);
}
);
width = 265;
}
);
metricLeft = j;
unicode = 567;
}
{
glyphname = schwa;
kernRight = o;
layers = (
{
layerId = "A6CBEFC3-C9E0-479E-A224-60A030287C4A";
shapes = (
{
closed = 1;
nodes = (
(218,449,o),
(161,432,o),
(114,405,c),
(176,301,l),
(204,319,o),
(232,330,o),
(263,330,c),
(327,330,o),
(377,288,o),
(377,206,c),
(377,134,o),
(337,88,o),
(274,88,c),
(219,88,o),
(195,119,o),
(184,153,c),
(155,140,l),
(401,223,l),
(370,299,l),
(30,191,l),
(54,54,o),
(138,-21,o),
(263,-21,c),
(403,-21,o),
(515,83,o),
(515,214,c),
(515,352,o),
(426,449,o),
(266,449,c)
);
}
);
width = 553;
},
{
layerId = master01;
shapes = (
{
closed = 1;
nodes = (
(201,428,o),
(147,410,o),
(104,381,c),
(150,307,l),
(179,328,o),
(212,342,o),
(248,342,c),
(326,342,o),
(382,285,o),
(382,200,c),
(382,119,o),
(330,62,o),
(256,62,c),
(195,62,o),
(162,99,o),
(146,141,c),
(125,128,l),
(399,227,l),
(375,286,l),
(35,167,l),
(60,51,o),
(136,-18,o),
(248,-18,c),
(378,-18,o),
(482,82,o),
(482,206,c),
(482,334,o),
(394,428,o),
(250,428,c)
);
}
);
width = 525;
}
);
unicode = 601;
}
{
glyphname = circumflex;
layers = (
{
layerId = "A6CBEFC3-C9E0-479E-A224-60A030287C4A";
shapes = (
{
closed = 1;
nodes = (
(385,489,l),
(196,673,l),
(195,673,l),
(10,489,l),
(136,489,l),
(215,573,l),
(181,563,l),
(259,489,l)
);
}
);
width = 405;
},
{
layerId = master01;
shapes = (
{
closed = 1;
nodes = (
(379,495,l),
(208,669,l),
(207,669,l),
(39,495,l),
(131,495,l),
(223,597,l),
(195,589,l),
(286,495,l)
);
}
);
width = 419;
}
);
unicode = 710;
}
{
glyphname = caron;
layers = (
{
layerId = "A6CBEFC3-C9E0-479E-A224-60A030287C4A";
shapes = (
{
closed = 1;
nodes = (
(10,673,l),
(199,489,l),
(200,489,l),
(385,673,l),
(259,673,l),
(180,589,l),
(214,599,l),
(136,673,l)
);
}
);
width = 405;
},
{
layerId = master01;
shapes = (
{
closed = 1;
nodes = (
(38,660,l),
(209,486,l),
(210,486,l),
(378,660,l),
(285,660,l),
(193,558,l),
(222,565,l),
(131,660,l)
);
}
);
width = 417;
}
);
unicode = 711;
}
{
glyphname = breve;
layers = (
{
layerId = "A6CBEFC3-C9E0-479E-A224-60A030287C4A";
shapes = (
{
closed = 1;
nodes = (
(311,470,o),
(363,527,o),
(385,657,c),
(292,657,l),
(280,600,o),
(265,563,o),
(218,563,c),
(171,563,o),
(155,600,o),
(143,657,c),
(50,657,l),
(72,531,o),
(124,470,o),
(218,470,c)
);
}
);
width = 435;
},
{
layerId = master01;
shapes = (
{
closed = 1;
nodes = (
(289,479,o),
(342,540,o),
(357,657,c),
(288,657,l),
(280,594,o),
(255,548,o),
(204,548,c),
(153,548,o),
(127,594,o),
(118,657,c),
(50,657,l),
(66,542,o),
(118,479,o),
(204,479,c)
);
}
);
width = 407;
}
);
unicode = 728;
}
{
glyphname = dotaccent;
layers = (
{
layerId = "A6CBEFC3-C9E0-479E-A224-60A030287C4A";
shapes = (
{
closed = 1;
nodes = (
(43,570,o),
(82,542,o),
(120,542,c),
(157,542,o),
(195,570,o),
(195,612,c),
(195,653,o),
(157,683,o),
(120,683,c),
(82,683,o),
(43,653,o),
(43,612,c)
);
}
);
width = 238;
},
{
layerId = master01;
shapes = (
{
closed = 1;
nodes = (
(51,545,o),
(80,523,o),
(110,523,c),
(139,523,o),
(168,545,o),
(168,578,c),
(168,609,o),
(139,633,o),
(110,633,c),
(80,633,o),
(51,609,o),
(51,578,c)
);
}
);
width = 222;
}
);
unicode = 729;
}
{
glyphname = ring;
layers = (
{
layerId = "A6CBEFC3-C9E0-479E-A224-60A030287C4A";
shapes = (
{
closed = 1;
nodes = (
(23,503,o),
(71,461,o),
(135,461,c),
(198,461,o),
(246,503,o),
(246,566,c),
(246,630,o),
(198,670,o),
(135,670,c),
(70,670,o),
(23,630,o),
(23,566,c)
);
},
{
closed = 1;
nodes = (
(96,592,o),
(111,606,o),
(135,606,c),
(159,606,o),
(174,592,o),
(174,564,c),
(174,539,o),
(159,523,o),
(135,523,c),
(111,523,o),
(96,539,o),
(96,564,c)
);
}
);
width = 289;
},
{
layerId = master01;
shapes = (
{
closed = 1;
nodes = (
(68,481,o),
(109,444,o),
(165,444,c),
(219,444,o),
(261,482,o),
(261,536,c),
(261,591,o),
(219,628,o),
(165,628,c),
(109,628,o),
(68,591,o),
(68,536,c)
);
},
{
closed = 1;
nodes = (
(122,562,o),
(140,579,o),
(165,579,c),
(189,579,o),
(207,562,o),
(207,535,c),
(207,509,o),
(189,491,o),
(165,491,c),
(140,491,o),
(122,509,o),
(122,535,c)
);
}
);
width = 331;
}
);
unicode = 730;
}
{
glyphname = ogonek;
layers = (
{
layerId = "A6CBEFC3-C9E0-479E-A224-60A030287C4A";
shapes = (
{
closed = 1;
nodes = (
(242,-232,o),
(301,-201,o),
(331,-157,c),
(281,-85,l),
(259,-118,o),
(236,-134,o),
(209,-134,c),
(186,-134,o),
(165,-126,o),
(165,-92,cs),
(165,-53,o),
(217,-29,o),
(293,0,c),
(135,10,l),
(80,-12,o),
(50,-59,o),
(50,-103,cs),
(50,-181,o),
(114,-232,o),
(196,-232,c)
);
}
);
width = 384;
},
{
layerId = master01;
shapes = (
{
closed = 1;
nodes = (
(221,-218,o),
(270,-189,o),
(295,-149,c),
(257,-98,l),
(238,-129,o),
(215,-146,o),
(188,-146,c),
(164,-146,o),
(141,-133,o),
(141,-98,cs),
(141,-59,o),
(187,-31,o),
(258,0,c),
(146,10,l),
(92,-13,o),
(57,-59,o),
(57,-106,cs),
(57,-173,o),
(111,-218,o),
(179,-218,c)
);
}
);
width = 347;
}
);
unicode = 731;
}
{
glyphname = hungarumlaut;
layers = (
{
background = {
shapes = (
{
closed = 1;
nodes = (
(142,624,l),
(111,579,o),
(81,533,o),
(50,489,c),
(135,489,l),
(179,533,o),
(224,579,o),
(267,624,c)
);
},
{
closed = 1;
nodes = (
(324,624,l),
(293,579,o),
(263,533,o),
(232,489,c),
(317,489,l),
(361,533,o),
(406,579,o),
(449,624,c)
);
}
);
};
layerId = "A6CBEFC3-C9E0-479E-A224-60A030287C4A";
shapes = (
{
alignment = -1;
ref = acute;
},
{
alignment = -1;
pos = (194,0);
ref = acute;
}
);
width = 634;
},
{
layerId = master01;
shapes = (
{
alignment = -1;
ref = acute;
},
{
alignment = -1;
pos = (155,-2);
ref = acute;
}
);
width = 438;
}
);
unicode = 733;
}
{
glyphname = tildecomb;
layers = (
{
anchors = (
{
name = _top;
pos = (240,437);
},
{
name = top;
pos = (254,642);
}
);
layerId = "A6CBEFC3-C9E0-479E-A224-60A030287C4A";
shapes = (
{
closed = 1;
nodes = (
(378.559,466.454,o),
(425.578,531.621,o),
(410.73,618.236,c),
(340.614,618.236,l),
(343.088,586.064,o),
(341.439,548.944,o),
(315.867,548.944,c),
(300.194,548.944,o),
(284.521,562.967,o),
(266.373,578.64,c),
(243.276,598.438,o),
(216.879,620.71,o),
(183.883,620.71,c),
(106.342,620.71,o),
(66.747,545.644,o),
(75.821,468.104,c),
(145.937,468.104,l),
(142.638,497.8,o),
(149.237,533.271,o),
(176.459,533.271,c),
(191.307,533.271,o),
(205.33,522.547,o),
(220.178,510.174,c),
(244.925,490.376,o),
(272.972,466.454,o),
(319.166,466.454,c)
);
}
);
width = 485;
},
{
anchors = (
{
name = _top;
pos = (225,418);
},
{
name = top;
pos = (235,607);
}
);
layerId = master01;
shapes = (
{
closed = 1;
nodes = (
(356,460,o),
(398,515,o),
(389,600,c),
(335,600,l),
(336,555,o),
(326,523,o),
(300,523,c),
(281,523,o),
(265,539,o),
(246,556,c),
(225,577,o),
(200,600,o),
(166,600,c),
(101,600,o),
(62,538,o),
(68,460,c),
(121,460,l),
(120,503,o),
(135,534,o),
(161,534,c),
(180,534,o),
(195,520,o),
(210,505,c),
(234,484,o),
(259,460,o),
(303,460,c)
);
}
);
width = 454;
}
);
unicode = 771;
}
{
glyphname = hookabovecomb;
layers = (
{
anchors = (
{
name = _top;
pos = (193,530);
},
{
name = top;
pos = (163,750);
}
);
layerId = "A6CBEFC3-C9E0-479E-A224-60A030287C4A";
shapes = (
{
closed = 1;
nodes = (
(193,576,l),
(240,601,o),
(280,634,o),
(280,686,cs),
(280,726,o),
(256,774,o),
(193,774,cs),
(151,774,o),
(108,751,o),
(85,702,c),
(135,672,l),
(142,687,o),
(156,699,o),
(174,699,cs),
(195,699,o),
(203,685,o),
(203,666,c),
(203,643,o),
(187,629,o),
(164,613,c)
);
}
);
width = 347;
},
{
anchors = (
{
name = _top;
pos = (175,511);
},
{
name = top;
pos = (160,749);
}
);
layerId = master01;
shapes = (
{
closed = 1;
nodes = (
(177,558,l),
(220,584,o),
(255,614,o),
(255,661,cs),
(255,703,o),
(230,740,o),
(178,740,cs),
(140,740,o),
(104,720,o),
(82,677,c),
(119,653,l),
(131,671,o),
(144,683,o),
(165,683,cs),
(186,683,o),
(197,669,o),
(197,648,c),
(197,624,o),
(179,608,o),
(153,589,c)
);
}
);
width = 336;
},
{
associatedMasterId = master01;
attr = {
colorPalette = 0;
};
layerId = "09DB544F-FB34-4240-BFB5-6DA262E401E5";
shapes = (
{
closed = 1;
nodes = (
(177,558,l),
(220,584,o),
(255,614,o),
(255,661,cs),
(255,703,o),
(230,740,o),
(178,740,cs),
(140,740,o),
(104,720,o),
(82,677,c),
(119,653,l),
(131,671,o),
(144,683,o),
(165,683,cs),
(186,683,o),
(197,669,o),
(197,648,c),
(197,624,o),
(179,608,o),
(153,589,c)
);
}
);
width = 600;
},
{
associatedMasterId = "A6CBEFC3-C9E0-479E-A224-60A030287C4A";
attr = {
colorPalette = 0;
};
layerId = "719556F9-9BD2-4871-B733-34B26A33B7E5";
shapes = (
{
closed = 1;
nodes = (
(193,576,l),
(240,601,o),
(280,634,o),
(280,686,cs),
(280,726,o),
(256,774,o),
(193,774,cs),
(151,774,o),
(108,751,o),
(85,702,c),
(135,672,l),
(142,687,o),
(156,699,o),
(174,699,cs),
(195,699,o),
(203,685,o),
(203,666,c),
(203,643,o),
(187,629,o),
(164,613,c)
);
}
);
width = 600;
}
);
unicode = 777;
}
{
glyphname = breveinvertedcomb;
layers = (
{
anchors = (
{
name = _top;
pos = (213,467);
},
{
name = top;
pos = (213,687);
}
);
layerId = "A6CBEFC3-C9E0-479E-A224-60A030287C4A";
shapes = (
{
closed = 1;
nodes = (
(124,687,o),
(72,630,o),
(50,500,c),
(143,500,l),
(155,557,o),
(170,594,o),
(217,594,c),
(264,594,o),
(280,557,o),
(292,500,c),
(385,500,l),
(363,626,o),
(311,687,o),
(217,687,c)
);
}
);
width = 435;
},
{
anchors = (
{
name = _top;
pos = (199,457);
},
{
name = top;
pos = (199,678);
}
);
layerId = master01;
shapes = (
{
closed = 1;
nodes = (
(118,678,o),
(65,617,o),
(50,500,c),
(119,500,l),
(127,563,o),
(152,609,o),
(203,609,c),
(254,609,o),
(280,563,o),
(289,500,c),
(357,500,l),
(341,615,o),
(289,678,o),
(203,678,c)
);
}
);
width = 407;
},
{
associatedMasterId = master01;
attr = {
colorPalette = 0;
};
layerId = "BFF200EF-C1F3-452E-BD32-8ECDE3D6080E";
shapes = (
{
closed = 1;
nodes = (
(118,678,o),
(65,617,o),
(50,500,c),
(119,500,l),
(127,563,o),
(152,609,o),
(203,609,c),
(254,609,o),
(280,563,o),
(289,500,c),
(357,500,l),
(341,615,o),
(289,678,o),
(203,678,c)
);
}
);
width = 407;
},
{
associatedMasterId = "A6CBEFC3-C9E0-479E-A224-60A030287C4A";
attr = {
colorPalette = 0;
};
layerId = "90EFD2D9-5DEB-4A71-A3AC-BF2D7064CAFE";
shapes = (
{
closed = 1;
nodes = (
(124,687,o),
(72,630,o),
(50,500,c),
(143,500,l),
(155,557,o),
(170,594,o),
(217,594,c),
(264,594,o),
(280,557,o),
(292,500,c),
(385,500,l),
(363,626,o),
(311,687,o),
(217,687,c)
);
}
);
width = 435;
}
);
unicode = 785;
}
{
glyphname = commaturnedabovecomb;
layers = (
{
anchors = (
{
name = _top;
pos = (129,437);
},
{
name = top;
pos = (129,699);
}
);
layerId = "A6CBEFC3-C9E0-479E-A224-60A030287C4A";
shapes = (
{
closed = 1;
nodes = (
(77,640,o),
(41,552,o),
(52,495,c),
(174,494,l),
(165,541,o),
(179,603,o),
(208,631,c),
(136,679,l)
);
}
);
width = 258;
},
{
anchors = (
{
name = _top;
pos = (117,418);
},
{
name = top;
pos = (117,692);
}
);
layerId = master01;
shapes = (
{
closed = 1;
nodes = (
(72,628,o),
(45,550,o),
(54,495,c),
(144,494,l),
(136,544,o),
(150,600,o),
(182,628,c),
(130,663,l)
);
}
);
width = 240;
},
{
associatedMasterId = master01;
attr = {
colorPalette = 0;
};
layerId = "7488E53E-6375-4920-8CC1-88F3B8D49A4F";
shapes = (
{
closed = 1;
nodes = (
(72,628,o),
(45,550,o),
(54,495,c),
(144,494,l),
(136,544,o),
(150,600,o),
(182,628,c),
(130,663,l)
);
}
);
width = 600;
},
{
associatedMasterId = "A6CBEFC3-C9E0-479E-A224-60A030287C4A";
attr = {
colorPalette = 0;
};
layerId = "CC0A757F-1025-45FD-8BD3-BEB880277AE7";
shapes = (
{
closed = 1;
nodes = (
(77,640,o),
(41,552,o),
(52,495,c),
(174,494,l),
(165,541,o),
(179,603,o),
(208,631,c),
(136,679,l)
);
}
);
width = 600;
}
);
unicode = 786;
}
{
glyphname = horncomb;
layers = (
{
anchors = (
{
name = _topright;
pos = (130,736);
},
{
name = topright;
pos = (50,470);
}
);
layerId = "A6CBEFC3-C9E0-479E-A224-60A030287C4A";
shapes = (
{
closed = 1;
nodes = (
(56,653,l),
(149,653,o),
(222,692,o),
(244,822,c),
(141,822,l),
(129,765,o),
(103,736,o),
(56,736,c)
);
}
);
width = 267;
},
{
anchors = (
{
name = _topright;
pos = (130,725);
},
{
name = topright;
pos = (76,441);
}
);
layerId = master01;
shapes = (
{
closed = 1;
nodes = (
(67,664,l),
(153,664,o),
(218,695,o),
(233,817,c),
(157,817,l),
(149,752,o),
(121,725,o),
(67,725,c)
);
}
);
width = 267;
}
);
unicode = 795;
}
{
glyphname = dotbelowcomb;
layers = (
{
anchors = (
{
name = _bottom;
pos = (120,0);
},
{
name = bottom;
pos = (120,-179);
}
);
layerId = "A6CBEFC3-C9E0-479E-A224-60A030287C4A";
shapes = (
{
closed = 1;
nodes = (
(56.471,-143.807,o),
(88.642,-166.904,o),
(119.988,-166.904,c),
(150.509,-166.904,o),
(181.856,-143.807,o),
(181.856,-109.161,c),
(181.856,-75.34,o),
(150.509,-50.593,o),
(119.988,-50.593,c),
(88.642,-50.593,o),
(56.471,-75.34,o),
(56.471,-109.161,c)
);
}
);
width = 238;
},
{
anchors = (
{
name = _bottom;
pos = (111,0);
},
{
name = bottom;
pos = (111,-161);
}
);
layerId = master01;
shapes = (
{
closed = 1;
nodes = (
(60,-132,o),
(85,-152,o),
(111,-152,c),
(135,-152,o),
(160,-133,o),
(160,-105,c),
(160,-77,o),
(135,-58,o),
(111,-58,c),
(85,-58,o),
(60,-77,o),
(60,-105,c)
);
}
);
width = 222;
}
);
unicode = 803;
}
{
glyphname = commaaccentcomb;
layers = (
{
anchors = (
{
name = _bottom;
pos = (146,0);
},
{
name = bottom;
pos = (142,-194);
}
);
layerId = "A6CBEFC3-C9E0-479E-A224-60A030287C4A";
shapes = (
{
closed = 1;
nodes = (
(181,-175,o),
(217,-87,o),
(206,-30,c),
(84,-29,l),
(93,-76,o),
(79,-138,o),
(50,-166,c),
(122,-214,l)
);
}
);
width = 258;
},
{
anchors = (
{
name = _bottom;
pos = (136,0);
},
{
name = bottom;
pos = (122,-189);
}
);
layerId = master01;
shapes = (
{
closed = 1;
nodes = (
(162,-168,o),
(189,-90,o),
(180,-35,c),
(90,-34,l),
(98,-84,o),
(84,-141,o),
(53,-169,c),
(104,-204,l)
);
}
);
width = 240;
}
);
unicode = 806;
}
{
glyphname = strokeshortcomb;
layers = (
{
anchors = (
{
name = _center;
pos = (182,371);
}
);
layerId = "A6CBEFC3-C9E0-479E-A224-60A030287C4A";
shapes = (
{
closed = 1;
nodes = (
(20,302,l),
(335,302,l),
(335,432,l),
(20,432,l)
);
}
);
width = 355;
},
{
anchors = (
{
name = _center;
pos = (188,332);
}
);
layerId = master01;
shapes = (
{
closed = 1;
nodes = (
(43,282,l),
(327,282,l),
(327,376,l),
(43,376,l)
);
}
);
width = 368;
},
{
associatedMasterId = master01;
attr = {
colorPalette = 0;
};
layerId = "B5C9CBB0-3758-451E-9ABF-3A6A310D1320";
shapes = (
{
closed = 1;
nodes = (
(43,282,l),
(327,282,l),
(327,376,l),
(43,376,l)
);
}
);
width = 600;
},
{
associatedMasterId = "A6CBEFC3-C9E0-479E-A224-60A030287C4A";
attr = {
colorPalette = 0;
};
layerId = "4E5C8457-BA8F-4E1F-B25D-A836D4E5370C";
shapes = (
{
closed = 1;
nodes = (
(20,302,l),
(335,302,l),
(335,432,l),
(20,432,l)
);
}
);
width = 600;
}
);
unicode = 821;
}
{
glyphname = "comma-ar";
layers = (
{
layerId = master01;
shapes = (
{
closed = 1;
nodes = (
(153,258,l),
(67,205,o),
(50,132,o),
(50,93,cs),
(50,51,o),
(64,0,o),
(117,0,cs),
(150,0,o),
(176,23,o),
(176,59,cs),
(176,109,o),
(114,131,o),
(89,103,c),
(118,99,l),
(100,123,o),
(120,187,o),
(180,222,c)
);
}
);
width = 205;
},
{
layerId = "A6CBEFC3-C9E0-479E-A224-60A030287C4A";
shapes = (
{
closed = 1;
nodes = (
(143,271,l),
(73,229,o),
(30,164,o),
(30,93,cs),
(30,23,o),
(63,-20,o),
(117,-20,cs),
(162,-20,o),
(196,14,o),
(196,59,cs),
(196,108,o),
(150,145,o),
(102,133,c),
(114,113,l),
(105,141,o),
(135,201,o),
(180,221,c)
);
}
);
width = 221;
}
);
unicode = 1548;
}
{
category = Mark;
glyphname = "tahabove-ar";
layers = (
{
anchors = (
{
name = _hamzaAbove;
pos = (150,0);
}
);
attr = {
colorPalette = 0;
};
layerId = master01;
shapes = (
{
closed = 1;
nodes = (
(284,0,l),
(284,0,o),
(300,-1,o),
(300,9,cs),
(300,57,o),
(307,140,o),
(224,140,cs),
(82,140,l),
(82,90,l),
(219,90,ls),
(249,90,o),
(249,72,o),
(250,50,c),
(24,50,l),
(0,0,l)
);
},
{
closed = 1;
nodes = (
(114,20,l),
(114,300,l),
(64,291,l),
(64,20,l)
);
}
);
width = 300;
},
{
anchors = (
{
name = _hamzaAbove;
pos = (150,0);
}
);
attr = {
colorPalette = 0;
};
layerId = "A6CBEFC3-C9E0-479E-A224-60A030287C4A";
shapes = (
{
closed = 1;
nodes = (
(284,0,l),
(284,0,o),
(300,-1,o),
(300,9,cs),
(300,57,o),
(307,140,o),
(224,140,cs),
(82,140,l),
(82,90,l),
(219,90,ls),
(249,90,o),
(249,72,o),
(250,50,c),
(24,50,l),
(0,0,l)
);
},
{
closed = 1;
nodes = (
(114,20,l),
(114,300,l),
(64,291,l),
(64,20,l)
);
}
);
width = 300;
}
);
subCategory = Nonspacing;
unicode = 1557;
}
{
glyphname = "semicolon-ar";
layers = (
{
layerId = master01;
shapes = (
{
closed = 1;
nodes = (
(154,0,o),
(180,26,o),
(180,58,cs),
(180,90,o),
(154,116,o),
(122,116,cs),
(90,116,o),
(64,90,o),
(64,58,cs),
(64,26,o),
(90,0,o),
(122,0,cs)
);
},
{
pos = (0,189);
ref = "comma-ar";
}
);
width = 205;
},
{
layerId = "A6CBEFC3-C9E0-479E-A224-60A030287C4A";
shapes = (
{
closed = 1;
nodes = (
(161,0,o),
(196,35,o),
(196,78,cs),
(196,121,o),
(161,156,o),
(118,156,cs),
(75,156,o),
(40,121,o),
(40,78,cs),
(40,35,o),
(75,0,o),
(118,0,cs)
);
},
{
pos = (0,209);
ref = "comma-ar";
}
);
width = 221;
}
);
metricLeft = "=comma-ar";
metricWidth = "=comma-ar";
unicode = 1563;
}
{
glyphname = "question-ar";
layers = (
{
layerId = master01;
shapes = (
{
closed = 1;
nodes = (
(288,187,l),
(288,248,ls),
(288,342,o),
(249,379,o),
(205,418,cs),
(164,452,o),
(117,484,o),
(117,545,cs),
(117,607,o),
(169,652,o),
(233,652,cs),
(280,652,o),
(313,624,o),
(336,590,cs),
(344,577,o),
(357,546,o),
(358,530,c),
(467,602,l),
(453,607,o),
(426,623,o),
(411,644,cs),
(377,693,o),
(317,747,o),
(223,746,cs),
(111,746,o),
(26,646,o),
(25,554,cs),
(24,466,o),
(70,413,o),
(119,369,cs),
(160,333,o),
(193,305,o),
(193,226,cs),
(193,187,l)
);
},
{
closed = 1;
nodes = (
(273,0,o),
(299,26,o),
(299,58,cs),
(299,90,o),
(273,116,o),
(241,116,cs),
(209,116,o),
(183,90,o),
(183,58,cs),
(183,26,o),
(209,0,o),
(241,0,cs)
);
}
);
width = 477;
},
{
layerId = "A6CBEFC3-C9E0-479E-A224-60A030287C4A";
shapes = (
{
closed = 1;
nodes = (
(328,187,l),
(328,248,ls),
(328,351,o),
(283,394,o),
(238,433,cs),
(196,468,o),
(157,495,o),
(157,545,cs),
(157,594,o),
(198,632,o),
(253,632,cs),
(287,632,o),
(315,615,o),
(339,579,cs),
(347,566,o),
(357,539,o),
(360,494,c),
(531,607,l),
(478,627,o),
(457,642,o),
(447,656,cs),
(397,728,o),
(325,767,o),
(243,766,cs),
(128,766,o),
(26,665,o),
(25,554,cs),
(24,477,o),
(54,418,o),
(126,354,cs),
(167,318,o),
(193,296,o),
(193,226,cs),
(193,187,l)
);
},
{
closed = 1;
nodes = (
(302,0,o),
(337,35,o),
(337,78,cs),
(337,121,o),
(302,156,o),
(259,156,cs),
(216,156,o),
(181,121,o),
(181,78,cs),
(181,35,o),
(216,0,o),
(259,0,cs)
);
}
);
width = 541;
}
);
unicode = 1567;
}
{
glyphname = "hamza-ar";
layers = (
{
anchors = (
{
name = markAbove;
pos = (255,550);
},
{
name = markBelow;
pos = (245,-150);
}
);
layerId = master01;
shapes = (
{
closed = 1;
nodes = (
(382,46,l),
(381,100,l),
(348,100,ls),
(315,100,o),
(265,112,o),
(265,166,cs),
(265,214,o),
(302,237,o),
(334,237,cs),
(371,237,o),
(399,220,o),
(409,214,c),
(400,246,o),
(371,294,o),
(289,294,cs),
(212,294,o),
(156,219,o),
(158,116,cs),
(158,46,l)
);
},
{
closed = 1;
nodes = (
(435,0,l),
(495,100,l),
(85,100,l),
(25,0,l)
);
}
);
width = 520;
},
{
anchors = (
{
name = markAbove;
pos = (255,550);
},
{
name = markBelow;
pos = (245,-150);
}
);
layerId = "A6CBEFC3-C9E0-479E-A224-60A030287C4A";
shapes = (
{
closed = 1;
nodes = (
(402,46,l),
(401,140,l),
(348,140,ls),
(300,140,o),
(279,166,o),
(279,194,cs),
(279,217,o),
(299,243,o),
(334,243,cs),
(366,243,o),
(408,225,o),
(442,191,c),
(435,281,o),
(377,334,o),
(289,334,cs),
(201,334,o),
(138,251,o),
(138,136,cs),
(138,46,l)
);
},
{
closed = 1;
nodes = (
(412,0,l),
(495,140,l),
(108,140,l),
(25,0,l)
);
}
);
width = 520;
}
);
unicode = 1569;
}
{
glyphname = "dal-ar";
layers = (
{
anchors = (
{
name = dotAbove;
pos = (435,500);
},
{
name = hamzaAbove;
pos = (435,440);
},
{
name = markAbove;
pos = (435,500);
},
{
name = markBelow;
pos = (435,-150);
}
);
layerId = master01;
shapes = (
{
closed = 1;
nodes = (
(805,0,l),
(805,0,o),
(845,-2,o),
(845,23,cs),
(845,143,o),
(862,300,o),
(655,300,cs),
(225,300,l),
(277,413,l),
(267,420,l),
(135,200,l),
(655,200,ls),
(730,200,o),
(746,156,o),
(745,100,c),
(85,100,l),
(25,0,l)
);
}
);
width = 870;
},
{
anchors = (
{
name = dotAbove;
pos = (475,500);
},
{
name = hamzaAbove;
pos = (475,440);
},
{
name = markAbove;
pos = (475,500);
},
{
name = markBelow;
pos = (435,-150);
}
);
layerId = "A6CBEFC3-C9E0-479E-A224-60A030287C4A";
shapes = (
{
closed = 1;
nodes = (
(805,0,l),
(805,0,o),
(845,-2,o),
(845,23,cs),
(845,143,o),
(862,340,o),
(615,340,cs),
(249,340,l),
(301,453,l),
(291,460,l),
(135,200,l),
(615,200,ls),
(690,200,o),
(706,176,o),
(705,140,c),
(109,140,l),
(25,0,l)
);
}
);
width = 870;
}
);
unicode = 1583;
}
{
glyphname = "reh-ar";
layers = (
{
anchors = (
{
name = dotAbove;
pos = (150,500);
},
{
name = dotBelow;
pos = (110,-284);
},
{
name = hamzaAbove;
pos = (140,440);
},
{
name = markAbove;
pos = (150,500);
},
{
name = markBelow;
pos = (110,-270);
}
);
layerId = master01;
shapes = (
{
closed = 1;
nodes = (
(-19,-244,o),
(200,-237,o),
(200,-60,cs),
(200,300,l),
(100,278,l),
(100,-70,ls),
(100,-127,o),
(68,-191,o),
(-85,-150,c)
);
}
);
width = 225;
},
{
anchors = (
{
name = dotAbove;
pos = (130,500);
},
{
name = dotBelow;
pos = (110,-284);
},
{
name = hamzaAbove;
pos = (120,440);
},
{
name = markAbove;
pos = (130,500);
},
{
name = markBelow;
pos = (110,-270);
}
);
layerId = "A6CBEFC3-C9E0-479E-A224-60A030287C4A";
shapes = (
{
closed = 1;
nodes = (
(-19,-244,o),
(200,-237,o),
(200,-60,cs),
(200,340,l),
(60,309,l),
(60,-60,ls),
(60,-127,o),
(33,-181,o),
(-85,-150,c)
);
}
);
width = 225;
}
);
unicode = 1585;
}
{
glyphname = "sad-ar";
layers = (
{
layerId = master01;
shapes = (
{
closed = 1;
nodes = (
(445,240,l),
(445,400,l),
(345,378,l),
(345,240,l)
);
},
{
ref = _seen.bowel;
},
{
pos = (160,0);
ref = _sad.body;
}
);
width = 1170;
},
{
layerId = "A6CBEFC3-C9E0-479E-A224-60A030287C4A";
shapes = (
{
closed = 1;
nodes = (
(445,240,l),
(445,440,l),
(305,409,l),
(305,240,l)
);
},
{
ref = _seen.bowel;
},
{
pos = (160,0);
ref = _sad.body;
}
);
width = 1170;
}
);
unicode = 1589;
}
{
glyphname = "tah-ar";
layers = (
{
layerId = master01;
shapes = (
{
closed = 1;
nodes = (
(285,50,l),
(285,800,l),
(185,778,l),
(185,50,l)
);
},
{
closed = 1;
nodes = (
(345,0,l),
(345,100,l),
(85,100,l),
(25,0,l)
);
},
{
ref = _sad.body;
}
);
width = 1010;
},
{
layerId = "A6CBEFC3-C9E0-479E-A224-60A030287C4A";
shapes = (
{
closed = 1;
nodes = (
(325,50,l),
(325,800,l),
(185,769,l),
(185,50,l)
);
},
{
closed = 1;
nodes = (
(345,0,l),
(345,140,l),
(109,140,l),
(25,0,l)
);
},
{
ref = _sad.body;
}
);
width = 1010;
}
);
unicode = 1591;
}
{
glyphname = "kashida-ar";
layers = (
{
anchors = (
{
name = markAbove;
pos = (150,550);
},
{
name = markBelow;
pos = (150,-150);
}
);
layerId = master01;
shapes = (
{
closed = 1;
nodes = (
(320,0,l),
(320,100,l),
(-20,100,l),
(-20,0,l)
);
}
);
width = 300;
},
{
anchors = (
{
name = markAbove;
pos = (150,550);
},
{
name = markBelow;
pos = (150,-150);
}
);
layerId = "A6CBEFC3-C9E0-479E-A224-60A030287C4A";
shapes = (
{
closed = 1;
nodes = (
(320,0,l),
(320,140,l),
(-20,140,l),
(-20,0,l)
);
}
);
width = 300;
}
);
unicode = 1600;
}
{
category = Mark;
glyphname = "dammatan-ar";
layers = (
{
anchors = (
{
name = _markAbove;
pos = (140,0);
}
);
attr = {
colorPalette = 2;
};
layerId = master01;
shapes = (
{
closed = 1;
nodes = (
(57,70,l),
(33,201,l),
(0,195,l),
(23,63,l)
);
},
{
pos = (40,6);
ref = "damma-ar";
}
);
width = 250;
},
{
anchors = (
{
name = _markAbove;
pos = (140,0);
}
);
attr = {
colorPalette = 2;
};
layerId = "A6CBEFC3-C9E0-479E-A224-60A030287C4A";
shapes = (
{
closed = 1;
nodes = (
(57,70,l),
(33,201,l),
(0,195,l),
(23,63,l)
);
},
{
pos = (40,6);
ref = "damma-ar";
}
);
width = 250;
}
);
subCategory = Nonspacing;
unicode = 1612;
}
{
category = Mark;
glyphname = "fatha-ar";
layers = (
{
anchors = (
{
name = _markAbove;
pos = (121,0);
}
);
attr = {
colorPalette = 2;
};
layerId = master01;
shapes = (
{
closed = 1;
nodes = (
(242,194,l),
(225,224,l),
(0,94,l),
(17,64,l)
);
}
);
width = 242;
},
{
anchors = (
{
name = _markAbove;
pos = (121,0);
}
);
attr = {
colorPalette = 2;
};
layerId = "A6CBEFC3-C9E0-479E-A224-60A030287C4A";
shapes = (
{
closed = 1;
nodes = (
(242,194,l),
(225,224,l),
(0,94,l),
(17,64,l)
);
}
);
width = 242;
}
);
subCategory = Nonspacing;
unicode = 1614;
}
{
category = Mark;
glyphname = "damma-ar";
layers = (
{
anchors = (
{
name = _markAbove;
pos = (110,0);
}
);
attr = {
colorPalette = 2;
};
layerId = master01;
shapes = (
{
closed = 1;
nodes = (
(208,174,o),
(222,229,o),
(199,270,cs),
(174,312,o),
(120,327,o),
(77,302,cs),
(37,279,o),
(24,225,o),
(48,183,cs),
(72,142,o),
(125,127,o),
(165,150,cs)
);
},
{
closed = 1;
nodes = (
(165,150,l),
(150,180,l),
(0,94,l),
(17,64,l)
);
},
{
closed = 1;
nodes = (
(124,165,o),
(93,174,o),
(78,200,cs),
(64,227,o),
(70,259,o),
(96,273,cs),
(124,288,o),
(154,279,o),
(169,253,cs),
(184,227,o),
(176,195,o),
(150,180,cs)
);
}
);
width = 210;
},
{
anchors = (
{
name = _markAbove;
pos = (110,0);
}
);
attr = {
colorPalette = 2;
};
layerId = "A6CBEFC3-C9E0-479E-A224-60A030287C4A";
shapes = (
{
closed = 1;
nodes = (
(208,174,o),
(222,229,o),
(199,270,cs),
(174,312,o),
(120,327,o),
(77,302,cs),
(37,279,o),
(24,225,o),
(48,183,cs),
(72,142,o),
(125,127,o),
(165,150,cs)
);
},
{
closed = 1;
nodes = (
(165,150,l),
(150,180,l),
(0,94,l),
(17,64,l)
);
},
{
closed = 1;
nodes = (
(124,165,o),
(93,174,o),
(78,200,cs),
(64,227,o),
(70,259,o),
(96,273,cs),
(124,288,o),
(154,279,o),
(169,253,cs),
(184,227,o),
(176,195,o),
(150,180,cs)
);
}
);
width = 210;
}
);
subCategory = Nonspacing;
unicode = 1615;
}
{
category = Mark;
glyphname = "shadda-ar";
layers = (
{
anchors = (
{
name = _markAbove;
pos = (130,0);
},
{
name = markAbove;
pos = (130,200);
}
);
attr = {
colorPalette = 2;
};
layerId = master01;
shapes = (
{
closed = 1;
nodes = (
(227,74,o),
(260,108,o),
(260,148,c),
(226,148,l),
(226,126,o),
(207,108,o),
(186,108,cs),
(166,108,o),
(147,126,o),
(147,148,c),
(113,148,l),
(113,108,o),
(146,74,o),
(185,74,cs)
);
},
{
closed = 1;
nodes = (
(114,74,o),
(147,108,o),
(147,148,c),
(113,148,l),
(113,126,o),
(94,108,o),
(73,108,cs),
(53,108,o),
(34,126,o),
(34,148,c),
(0,148,l),
(0,108,o),
(33,74,o),
(72,74,cs)
);
},
{
closed = 1;
nodes = (
(34,148,l),
(34,200,l),
(0,200,l),
(0,148,l)
);
},
{
closed = 1;
nodes = (
(147,148,l),
(147,200,l),
(113,200,l),
(113,148,l)
);
},
{
closed = 1;
nodes = (
(260,148,l),
(260,200,l),
(226,200,l),
(226,148,l)
);
}
);
width = 260;
},
{
anchors = (
{
name = _markAbove;
pos = (130,0);
},
{
name = markAbove;
pos = (130,200);
}
);
attr = {
colorPalette = 2;
};
layerId = "A6CBEFC3-C9E0-479E-A224-60A030287C4A";
shapes = (
{
closed = 1;
nodes = (
(227,74,o),
(260,108,o),
(260,148,c),
(226,148,l),
(226,126,o),
(207,108,o),
(186,108,cs),
(166,108,o),
(147,126,o),
(147,148,c),
(113,148,l),
(113,108,o),
(146,74,o),
(185,74,cs)
);
},
{
closed = 1;
nodes = (
(114,74,o),
(147,108,o),
(147,148,c),
(113,148,l),
(113,126,o),
(94,108,o),
(73,108,cs),
(53,108,o),
(34,126,o),
(34,148,c),
(0,148,l),
(0,108,o),
(33,74,o),
(72,74,cs)
);
},
{
closed = 1;
nodes = (
(34,148,l),
(34,200,l),
(0,200,l),
(0,148,l)
);
},
{
closed = 1;
nodes = (
(147,148,l),
(147,200,l),
(113,200,l),
(113,148,l)
);
},
{
closed = 1;
nodes = (
(260,148,l),
(260,200,l),
(226,200,l),
(226,148,l)
);
}
);
width = 260;
}
);
subCategory = Nonspacing;
unicode = 1617;
}
{
category = Mark;
glyphname = "sukun-ar";
layers = (
{
anchors = (
{
name = _markAbove;
pos = (98,0);
}
);
attr = {
colorPalette = 2;
};
layerId = master01;
shapes = (
{
closed = 1;
nodes = (
(153,74,o),
(198,119,o),
(198,174,cs),
(198,229,o),
(153,274,o),
(98,274,cs),
(44,274,o),
(0,229,o),
(0,174,cs),
(0,119,o),
(44,74,o),
(98,74,cs)
);
},
{
closed = 1;
nodes = (
(61,109,o),
(33,138,o),
(33,175,cs),
(33,212,o),
(61,243,o),
(99,242,cs),
(137,241,o),
(165,212,o),
(165,175,cs),
(165,138,o),
(136,109,o),
(99,109,cs)
);
}
);
width = 198;
},
{
anchors = (
{
name = _markAbove;
pos = (98,0);
}
);
attr = {
colorPalette = 2;
};
layerId = "A6CBEFC3-C9E0-479E-A224-60A030287C4A";
shapes = (
{
closed = 1;
nodes = (
(153,74,o),
(198,119,o),
(198,174,cs),
(198,229,o),
(153,274,o),
(98,274,cs),
(44,274,o),
(0,229,o),
(0,174,cs),
(0,119,o),
(44,74,o),
(98,74,cs)
);
},
{
closed = 1;
nodes = (
(61,109,o),
(33,138,o),
(33,175,cs),
(33,212,o),
(61,243,o),
(99,242,cs),
(137,241,o),
(165,212,o),
(165,175,cs),
(165,138,o),
(136,109,o),
(99,109,cs)
);
}
);
width = 198;
}
);
subCategory = Nonspacing;
unicode = 1618;
}
{
category = Mark;
glyphname = "madda-ar";
layers = (
{
anchors = (
{
name = _hamzaAbove;
pos = (150,0);
},
{
name = _markAbove;
pos = (150,-50);
}
);
layerId = master01;
shapes = (
{
closed = 1;
nodes = (
(14,-41,o),
(78,-57,o),
(78,16,cs),
(78,80,l),
(28,72,l),
(28,16,ls),
(28,-12,o),
(30,-34,o),
(0,-38,c)
);
},
{
closed = 1;
nodes = (
(234,0,l),
(234,50,l),
(46,50,l),
(46,0,l)
);
},
{
closed = 1;
nodes = (
(315,0,l),
(277,66,l),
(272,55,o),
(260,50,o),
(250,50,cs),
(215,50,l),
(215,0,l)
);
}
);
width = 315;
},
{
anchors = (
{
name = _hamzaAbove;
pos = (150,0);
},
{
name = _markAbove;
pos = (150,-50);
}
);
layerId = "A6CBEFC3-C9E0-479E-A224-60A030287C4A";
shapes = (
{
closed = 1;
nodes = (
(14,-41,o),
(78,-57,o),
(78,16,cs),
(78,80,l),
(28,72,l),
(28,16,ls),
(28,-12,o),
(30,-34,o),
(0,-38,c)
);
},
{
closed = 1;
nodes = (
(234,0,l),
(234,50,l),
(46,50,l),
(46,0,l)
);
},
{
closed = 1;
nodes = (
(315,0,l),
(277,66,l),
(272,55,o),
(260,50,o),
(250,50,cs),
(215,50,l),
(215,0,l)
);
}
);
width = 315;
},
{
associatedMasterId = master01;
attr = {
colorPalette = 1;
};
layerId = "C88B12C8-C134-47F7-B475-85A7598E5F70";
name = "Regular 23 Jan 22, 19:41";
shapes = (
{
closed = 1;
nodes = (
(83,2,o),
(105,19,o),
(105,42,cs),
(105,56,o),
(96,70,o),
(83,70,cs),
(72,70,o),
(66,59,o),
(64,53,c),
(62,59,o),
(56,70,o),
(45,70,cs),
(32,70,o),
(23,56,o),
(23,42,cs),
(23,19,o),
(45,2,o),
(64,-1,c)
);
},
{
closed = 1;
nodes = (
(170,2,o),
(192,19,o),
(192,42,cs),
(192,56,o),
(183,70,o),
(170,70,cs),
(159,70,o),
(153,59,o),
(151,53,c),
(149,59,o),
(143,70,o),
(132,70,cs),
(119,70,o),
(110,56,o),
(110,42,cs),
(110,19,o),
(132,2,o),
(151,-1,c)
);
},
{
closed = 1;
nodes = (
(258,2,o),
(280,19,o),
(280,42,cs),
(280,56,o),
(271,70,o),
(258,70,cs),
(247,70,o),
(241,59,o),
(239,53,c),
(237,59,o),
(231,70,o),
(220,70,cs),
(207,70,o),
(198,56,o),
(198,42,cs),
(198,19,o),
(220,2,o),
(239,-1,c)
);
}
);
width = 315;
},
{
associatedMasterId = "A6CBEFC3-C9E0-479E-A224-60A030287C4A";
attr = {
colorPalette = 1;
};
layerId = "F8608FFF-0D05-48F1-BA9C-8A44D8639200";
name = "Bold 23 Jan 22, 19:41";
shapes = (
{
closed = 1;
nodes = (
(83,2,o),
(105,19,o),
(105,42,cs),
(105,56,o),
(96,70,o),
(83,70,cs),
(72,70,o),
(66,59,o),
(64,53,c),
(62,59,o),
(56,70,o),
(45,70,cs),
(32,70,o),
(23,56,o),
(23,42,cs),
(23,19,o),
(45,2,o),
(64,-1,c)
);
},
{
closed = 1;
nodes = (
(170,2,o),
(192,19,o),
(192,42,cs),
(192,56,o),
(183,70,o),
(170,70,cs),
(159,70,o),
(153,59,o),
(151,53,c),
(149,59,o),
(143,70,o),
(132,70,cs),
(119,70,o),
(110,56,o),
(110,42,cs),
(110,19,o),
(132,2,o),
(151,-1,c)
);
},
{
closed = 1;
nodes = (
(258,2,o),
(280,19,o),
(280,42,cs),
(280,56,o),
(271,70,o),
(258,70,cs),
(247,70,o),
(241,59,o),
(239,53,c),
(237,59,o),
(231,70,o),
(220,70,cs),
(207,70,o),
(198,56,o),
(198,42,cs),
(198,19,o),
(220,2,o),
(239,-1,c)
);
}
);
width = 315;
}
);
subCategory = Nonspacing;
unicode = (1619,1764);
}
{
category = Mark;
glyphname = "hamzaabove-ar";
layers = (
{
anchors = (
{
name = _hamzaAbove;
pos = (135,0);
},
{
name = markAbove;
pos = (135,250);
}
);
attr = {
colorPalette = 1;
};
layerId = master01;
shapes = (
{
closed = 1;
nodes = (
(224,9,l),
(223,50,l),
(197,50,ls),
(172,50,o),
(135,49,o),
(135,89,cs),
(135,96,o),
(134,128,o),
(167,137,cs),
(186,142,o),
(219,132,o),
(227,128,c),
(214,159,o),
(182,168,o),
(164,168,cs),
(112,168,o),
(90,139,o),
(79,99,cs),
(74,79,o),
(73,67,o),
(73,42,cs),
(73,9,l)
);
},
{
closed = 1;
nodes = (
(240,0,l),
(270,50,l),
(30,50,l),
(0,0,l)
);
}
);
width = 270;
},
{
anchors = (
{
name = _hamzaAbove;
pos = (135,0);
},
{
name = markAbove;
pos = (135,250);
}
);
attr = {
colorPalette = 1;
};
layerId = "A6CBEFC3-C9E0-479E-A224-60A030287C4A";
shapes = (
{
closed = 1;
nodes = (
(224,9,l),
(223,50,l),
(197,50,ls),
(172,50,o),
(135,49,o),
(135,89,cs),
(135,96,o),
(134,128,o),
(167,137,cs),
(186,142,o),
(219,132,o),
(227,128,c),
(214,159,o),
(182,168,o),
(164,168,cs),
(112,168,o),
(90,139,o),
(79,99,cs),
(74,79,o),
(73,67,o),
(73,42,cs),
(73,9,l)
);
},
{
closed = 1;
nodes = (
(240,0,l),
(270,50,l),
(30,50,l),
(0,0,l)
);
}
);
width = 270;
}
);
subCategory = Nonspacing;
unicode = 1620;
}
{
category = Mark;
glyphname = "vabove-ar";
layers = (
{
anchors = (
{
name = _dotAbove;
pos = (124,0);
},
{
name = markAbove;
pos = (124,200);
}
);
attr = {
colorPalette = 0;
};
layerId = master01;
shapes = (
{
closed = 1;
nodes = (
(125,-50,l),
(248,76,l),
(201,124,l),
(109,22,l),
(138,29,l),
(47,124,l),
(0,77,l)
);
}
);
width = 248;
},
{
anchors = (
{
name = _dotAbove;
pos = (124,0);
},
{
name = markAbove;
pos = (124,200);
}
);
attr = {
colorPalette = 0;
};
layerId = "A6CBEFC3-C9E0-479E-A224-60A030287C4A";
shapes = (
{
closed = 1;
nodes = (
(125,-50,l),
(248,76,l),
(201,124,l),
(109,22,l),
(138,29,l),
(47,124,l),
(0,77,l)
);
}
);
width = 248;
}
);
subCategory = Nonspacing;
unicode = 1626;
}
{
glyphname = "zero-ar";
layers = (
{
layerId = master01;
shapes = (
{
closed = 1;
nodes = (
(289,230,o),
(320,261,o),
(320,300,cs),
(320,339,o),
(289,370,o),
(250,370,cs),
(211,370,o),
(180,339,o),
(180,300,cs),
(180,261,o),
(211,230,o),
(250,230,cs)
);
}
);
width = 500;
},
{
layerId = "A6CBEFC3-C9E0-479E-A224-60A030287C4A";
shapes = (
{
closed = 1;
nodes = (
(307,196,o),
(354,243,o),
(354,300,cs),
(354,357,o),
(307,404,o),
(250,404,cs),
(193,404,o),
(146,357,o),
(146,300,cs),
(146,243,o),
(193,196,o),
(250,196,cs)
);
}
);
width = 500;
}
);
unicode = (1632,1776);
}
{
glyphname = "one-ar";
layers = (
{
layerId = master01;
shapes = (
{
closed = 1;
nodes = (
(300,0,l),
(300,600,l),
(200,578,l),
(200,0,l)
);
}
);
width = 500;
},
{
layerId = "A6CBEFC3-C9E0-479E-A224-60A030287C4A";
shapes = (
{
closed = 1;
nodes = (
(320,0,l),
(320,600,l),
(180,569,l),
(180,0,l)
);
}
);
width = 500;
}
);
unicode = (1633,1777);
}
{
glyphname = "two-ar";
layers = (
{
layerId = master01;
shapes = (
{
closed = 1;
nodes = (
(210,0,l),
(210,410,ls),
(210,485,o),
(254,500,o),
(310,500,cs),
(390,500,l),
(390,600,l),
(270,600,o),
(110,617,o),
(110,410,cs),
(110,0,l)
);
}
);
width = 500;
},
{
layerId = "A6CBEFC3-C9E0-479E-A224-60A030287C4A";
shapes = (
{
closed = 1;
nodes = (
(230,0,l),
(230,390,ls),
(230,442,o),
(251,460,o),
(310,460,cs),
(410,460,l),
(410,600,l),
(293,597,o),
(90,633,o),
(90,390,cs),
(90,0,l)
);
}
);
width = 500;
}
);
unicode = 1634;
}
{
glyphname = "three-ar";
layers = (
{
layerId = master01;
shapes = (
{
closed = 1;
nodes = (
(440,300,l),
(440,300,o),
(480,298,o),
(480,323,cs),
(480,600,l),
(380,578,l),
(380,400,l),
(300,400,l),
(300,600,l),
(200,577,l),
(200,400,l),
(50,400,l),
(50,300,l)
);
},
{
pos = (-180,0);
ref = "one-ar";
}
);
width = 500;
},
{
layerId = "A6CBEFC3-C9E0-479E-A224-60A030287C4A";
shapes = (
{
closed = 1;
nodes = (
(440,280,l),
(440,280,o),
(480,278,o),
(480,303,cs),
(480,600,l),
(340,569,l),
(340,420,l),
(320,420,l),
(320,600,l),
(180,568,l),
(180,420,l),
(50,420,l),
(50,280,l)
);
},
{
pos = (-160,0);
ref = "one-ar";
}
);
width = 500;
}
);
unicode = (1635,1779);
}
{
glyphname = "four-ar";
layers = (
{
layerId = master01;
shapes = (
{
closed = 1;
nodes = (
(84,0,o),
(134,0,cs),
(440,0,l),
(440,100,l),
(138,100,l),
(152,67,l),
(349,275,l),
(150,443,l),
(148,387,l),
(359,542,l),
(299,622,l),
(125,494,ls),
(97,473,o),
(79,450,o),
(79,416,cs),
(79,377,o),
(104,349,o),
(121,336,cs),
(209,267,l),
(98,155,ls),
(80,137,o),
(60,104,o),
(60,71,cs),
(60,38,o)
);
}
);
width = 500;
},
{
layerId = "A6CBEFC3-C9E0-479E-A224-60A030287C4A";
shapes = (
{
closed = 1;
nodes = (
(85,0,o),
(152,0,cs),
(460,0,l),
(460,140,l),
(185,140,l),
(199,87,l),
(378,277,l),
(182,442,l),
(180,358,l),
(387,510,l),
(303,622,l),
(129,494,ls),
(98,471,o),
(75,440,o),
(75,401,cs),
(75,365,o),
(95,326,o),
(124,305,cs),
(179,265,l),
(104,189,ls),
(75,160,o),
(60,125,o),
(60,93,cs),
(60,52,o)
);
}
);
width = 500;
}
);
unicode = 1636;
}
{
glyphname = "five-ar";
layers = (
{
layerId = master01;
shapes = (
{
closed = 1;
nodes = (
(332,50,o),
(398,117,o),
(398,200,cs),
(398,400,ls),
(398,483,o),
(332,550,o),
(250,550,cs),
(168,550,o),
(102,483,o),
(102,400,cs),
(102,200,ls),
(102,117,o),
(168,50,o),
(250,50,cs)
);
},
{
closed = 1;
nodes = (
(250,50,l),
(102,281,l),
(102,73,ls),
(102,48,o),
(142,50,o),
(142,50,c)
);
},
{
closed = 1;
nodes = (
(200,400,ls),
(200,428,o),
(222,450,o),
(250,450,cs),
(300,450,l),
(300,200,ls),
(300,172,o),
(278,150,o),
(250,150,cs),
(200,150,l)
);
},
{
closed = 1;
nodes = (
(398,600,l),
(371,548,o),
(285,550,o),
(250,550,c),
(398,400,l)
);
}
);
width = 500;
},
{
layerId = "A6CBEFC3-C9E0-479E-A224-60A030287C4A";
shapes = (
{
closed = 1;
nodes = (
(344,50,o),
(420,126,o),
(420,220,cs),
(420,380,ls),
(420,474,o),
(344,550,o),
(251,550,cs),
(158,550,o),
(80,473,o),
(80,380,cs),
(80,220,ls),
(80,127,o),
(158,50,o),
(251,50,cs)
);
},
{
closed = 1;
nodes = (
(251,50,l),
(80,281,l),
(80,73,ls),
(80,48,o),
(120,50,o),
(120,50,c)
);
},
{
closed = 1;
nodes = (
(220,380,ls),
(220,397,o),
(234,410,o),
(251,410,c),
(280,410,l),
(280,220,ls),
(280,203,o),
(266,190,o),
(249,190,c),
(220,190,l)
);
},
{
closed = 1;
nodes = (
(420,606,l),
(393,554,o),
(286,550,o),
(251,550,c),
(420,380,l)
);
}
);
width = 500;
}
);
unicode = (1637,1781);
}
{
glyphname = "six-ar";
layers = (
{
layerId = master01;
shapes = (
{
closed = 1;
nodes = (
(420,0,l),
(420,560,l),
(420,560,o),
(422,600,o),
(397,600,cs),
(80,600,l),
(102,500,l),
(321,500,l),
(321,0,l)
);
}
);
width = 500;
},
{
layerId = "A6CBEFC3-C9E0-479E-A224-60A030287C4A";
shapes = (
{
closed = 1;
nodes = (
(440,-20,l),
(440,540,ls),
(440,573,o),
(426,600,o),
(397,600,cs),
(55,600,l),
(86,460,l),
(301,460,l),
(301,-20,l)
);
}
);
width = 500;
}
);
unicode = 1638;
}
{
glyphname = "seven-ar";
layers = (
{
layerId = master01;
shapes = (
{
closed = 1;
nodes = (
(447,565,l),
(357,612,l),
(199,26,l),
(295,0,l)
);
},
{
closed = 1;
nodes = (
(295,0,l),
(295,19,l),
(205,19,l),
(205,0,l)
);
},
{
closed = 1;
nodes = (
(301,26,l),
(143,612,l),
(53,565,l),
(205,0,l)
);
}
);
width = 500;
},
{
layerId = "A6CBEFC3-C9E0-479E-A224-60A030287C4A";
shapes = (
{
closed = 1;
nodes = (
(460,546,l),
(335,611,l),
(179,37,l),
(314,0,l)
);
},
{
closed = 1;
nodes = (
(314,0,l),
(314,19,l),
(187,19,l),
(187,0,l)
);
},
{
closed = 1;
nodes = (
(322,37,l),
(167,611,l),
(40,545,l),
(187,0,l)
);
}
);
width = 500;
}
);
unicode = 1639;
}
{
glyphname = "eight-ar";
layers = (
{
layerId = master01;
shapes = (
{
closed = 1;
nodes = (
(456,0,l),
(294,600,l),
(198,574,l),
(352,0,l)
);
},
{
closed = 1;
nodes = (
(148,0,l),
(302,574,l),
(204,600,l),
(44,0,l)
);
},
{
closed = 1;
nodes = (
(294,581,l),
(294,600,l),
(204,600,l),
(204,581,l)
);
}
);
width = 500;
},
{
layerId = "A6CBEFC3-C9E0-479E-A224-60A030287C4A";
shapes = (
{
closed = 1;
nodes = (
(475,0,l),
(313,600,l),
(178,563,l),
(330,0,l)
);
},
{
closed = 1;
nodes = (
(168,0,l),
(321,563,l),
(186,600,l),
(25,0,l)
);
},
{
closed = 1;
nodes = (
(313,581,l),
(313,600,l),
(186,600,l),
(186,581,l)
);
}
);
width = 500;
}
);
unicode = (1640,1784);
}
{
glyphname = "nine-ar";
layers = (
{
layerId = master01;
shapes = (
{
closed = 1;
nodes = (
(440,0,l),
(440,435,ls),
(440,541,o),
(362,615,o),
(255,615,cs),
(144,615,o),
(60,534,o),
(60,428,cs),
(60,312,o),
(151,242,o),
(276,242,cs),
(302,242,o),
(325,244,o),
(340,246,c),
(340,0,l)
);
},
{
closed = 1;
nodes = (
(332,346,o),
(307,342,o),
(279,342,cs),
(213,342,o),
(159,367,o),
(159,426,cs),
(159,474,o),
(195,513,o),
(253,513,cs),
(302,513,o),
(340,490,o),
(340,435,cs),
(340,346,l)
);
}
);
width = 500;
},
{
layerId = "A6CBEFC3-C9E0-479E-A224-60A030287C4A";
shapes = (
{
closed = 1;
nodes = (
(460,0,l),
(460,415,ls),
(460,531,o),
(374,615,o),
(255,615,cs),
(133,615,o),
(40,525,o),
(40,408,cs),
(40,285,o),
(135,202,o),
(276,202,cs),
(290,202,o),
(306,203,o),
(320,204,c),
(320,0,l)
);
},
{
closed = 1;
nodes = (
(309,343,o),
(294,342,o),
(279,342,cs),
(214,342,o),
(179,365,o),
(179,406,cs),
(179,446,o),
(209,473,o),
(253,473,cs),
(297,473,o),
(320,443,o),
(320,405,cs),
(320,344,l)
);
}
);
width = 500;
}
);
unicode = (1641,1785);
}
{
glyphname = "behDotless-ar";
layers = (
{
anchors = (
{
name = dotAbove;
pos = (410,390);
},
{
name = dotBelow;
pos = (410,-150);
},
{
name = hamzaAbove;
pos = (400,332);
},
{
name = markAbove;
pos = (410,550);
},
{
name = markBelow;
pos = (410,-150);
}
);
layerId = master01;
shapes = (
{
closed = 1;
nodes = (
(725,0,l),
(725,100,l),
(85,100,l),
(25,0,l)
);
},
{
pos = (625,0);
ref = "behDotless-ar.init";
}
);
width = 850;
},
{
anchors = (
{
name = dotAbove;
pos = (410,390);
},
{
name = dotBelow;
pos = (410,-150);
},
{
name = hamzaAbove;
pos = (400,332);
},
{
name = markAbove;
pos = (410,550);
},
{
name = markBelow;
pos = (410,-150);
}
);
layerId = "A6CBEFC3-C9E0-479E-A224-60A030287C4A";
shapes = (
{
closed = 1;
nodes = (
(685,0,l),
(685,140,l),
(109,140,l),
(25,0,l)
);
},
{
pos = (625,0);
ref = "behDotless-ar.init";
}
);
width = 850;
}
);
unicode = 1646;
}
{
category = Mark;
glyphname = "alefabove-ar";
layers = (
{
anchors = (
{
name = _markAbove;
pos = (44,0);
}
);
attr = {
colorPalette = 0;
};
layerId = master01;
shapes = (
{
closed = 1;
nodes = (
(69,0,l),
(69,233,l),
(0,165,l),
(13,171,o),
(21,164,o),
(21,155,cs),
(21,0,l)
);
}
);
width = 69;
},
{
anchors = (
{
name = _markAbove;
pos = (44,0);
}
);
attr = {
colorPalette = 0;
};
layerId = "A6CBEFC3-C9E0-479E-A224-60A030287C4A";
shapes = (
{
closed = 1;
nodes = (
(69,0,l),
(69,233,l),
(0,165,l),
(13,171,o),
(21,164,o),
(21,155,cs),
(21,0,l)
);
}
);
width = 69;
}
);
subCategory = Nonspacing;
unicode = 1648;
}
{
glyphname = "yehbarree-ar";
layers = (
{
anchors = (
{
name = hamzaAbove;
pos = (184,630);
},
{
name = markAbove;
pos = (184,630);
},
{
name = markBelow;
pos = (490,-270);
}
);
layerId = master01;
shapes = (
{
closed = 1;
nodes = (
(409,-200,l),
(151,252,ls),
(114,317,o),
(128,383,o),
(177,410,c),
(414,0,l),
(529,0,l),
(190,591,l),
(190,539,o),
(166,523,o),
(125,493,cs),
(44,433,o),
(-18,345,o),
(64,203,cs),
(295,-200,l)
);
},
{
closed = 1;
nodes = (
(1020,-200,l),
(960,-100,l),
(320,-100,l),
(320,-200,l)
);
},
{
closed = 1;
nodes = (
(602,0,l),
(518,140,l),
(505,113,o),
(474,100,o),
(450,100,cs),
(397,100,l),
(427,0,l)
);
}
);
width = 1045;
},
{
anchors = (
{
name = hamzaAbove;
pos = (184,630);
},
{
name = markAbove;
pos = (184,630);
},
{
name = markBelow;
pos = (490,-270);
}
);
layerId = "A6CBEFC3-C9E0-479E-A224-60A030287C4A";
shapes = (
{
closed = 1;
nodes = (
(449,-200,l),
(180,272,ls),
(166,296,o),
(167,325,o),
(175,340,c),
(372,0,l),
(528,0,l),
(189,591,l),
(189,539,o),
(165,523,o),
(124,493,cs),
(43,433,o),
(-18,345,o),
(63,203,cs),
(294,-200,l)
);
},
{
closed = 1;
nodes = (
(1020,-200,l),
(960,-60,l),
(320,-60,l),
(320,-200,l)
);
},
{
closed = 1;
nodes = (
(602,0,l),
(494,180,l),
(481,153,o),
(450,140,o),
(426,140,cs),
(359,140,l),
(429,0,l)
);
}
);
width = 1045;
}
);
unicode = 1746;
}
{
glyphname = "fullstop-ar";
layers = (
{
layerId = master01;
shapes = (
{
closed = 1;
nodes = (
(201,0,l),
(261,100,l),
(91,100,l),
(31,0,l)
);
}
);
width = 289;
},
{
layerId = "A6CBEFC3-C9E0-479E-A224-60A030287C4A";
shapes = (
{
closed = 1;
nodes = (
(231,0,l),
(291,140,l),
(91,140,l),
(31,0,l)
);
}
);
width = 322;
}
);
unicode = 1748;
}
{
category = Mark;
glyphname = "hahabove-ar";
layers = (
{
anchors = (
{
name = _markAbove;
pos = (129,0);
}
);
attr = {
colorPalette = 2;
};
layerId = master01;
shapes = (
{
closed = 1;
nodes = (
(229,239,l),
(229,274,l),
(31,274,l),
(31,239,l)
);
},
{
closed = 1;
nodes = (
(62,259,l),
(31,274,l),
(0,211,l),
(31,196,l)
);
},
{
closed = 1;
nodes = (
(115,91,o),
(195,164,o),
(229,239,c),
(197,253,l),
(165,183,o),
(92,123,o),
(27,112,c),
(33,77,l)
);
}
);
width = 229;
},
{
anchors = (
{
name = _markAbove;
pos = (129,0);
}
);
attr = {
colorPalette = 2;
};
layerId = "A6CBEFC3-C9E0-479E-A224-60A030287C4A";
shapes = (
{
closed = 1;
nodes = (
(229,239,l),
(229,274,l),
(31,274,l),
(31,239,l)
);
},
{
closed = 1;
nodes = (
(62,259,l),
(31,274,l),
(0,211,l),
(31,196,l)
);
},
{
closed = 1;
nodes = (
(115,91,o),
(195,164,o),
(229,239,c),
(197,253,l),
(165,183,o),
(92,123,o),
(27,112,c),
(33,77,l)
);
}
);
width = 229;
},
{
associatedMasterId = master01;
layerId = "EC91252F-3242-49C3-B29E-4240540A89DE";
name = "Nov 12 20, 01:14";
shapes = (
{
closed = 1;
nodes = (
(153,74,o),
(198,119,o),
(198,174,cs),
(198,229,o),
(153,274,o),
(98,274,cs),
(44,274,o),
(0,229,o),
(0,174,cs),
(0,119,o),
(44,74,o),
(98,74,cs)
);
},
{
closed = 1;
nodes = (
(61,109,o),
(33,138,o),
(33,175,cs),
(33,212,o),
(61,243,o),
(99,242,cs),
(137,241,o),
(165,212,o),
(165,175,cs),
(165,138,o),
(136,109,o),
(99,109,cs)
);
}
);
visible = 1;
width = 198;
}
);
subCategory = Nonspacing;
unicode = 1761;
}
{
glyphname = "two-persian";
layers = (
{
layerId = master01;
shapes = (
{
closed = 1;
nodes = (
(390,350,l),
(390,350,o),
(430,348,o),
(430,373,cs),
(430,600,l),
(330,578,l),
(330,450,l),
(100,450,l),
(100,350,l)
);
},
{
pos = (-130,0);
ref = "one-ar";
}
);
width = 500;
},
{
layerId = "A6CBEFC3-C9E0-479E-A224-60A030287C4A";
shapes = (
{
closed = 1;
nodes = (
(410,330,l),
(410,330,o),
(450,328,o),
(450,353,cs),
(450,600,l),
(310,569,l),
(310,470,l),
(100,470,l),
(100,330,l)
);
},
{
pos = (-130,0);
ref = "one-ar";
}
);
width = 500;
}
);
unicode = 1778;
}
{
glyphname = "four-persian";
layers = (
{
layerId = master01;
shapes = (
{
closed = 1;
nodes = (
(412,346,l),
(411,400,l),
(378,400,ls),
(345,400,o),
(295,412,o),
(295,466,cs),
(295,514,o),
(332,537,o),
(364,537,cs),
(401,537,o),
(429,520,o),
(439,514,c),
(430,546,o),
(401,594,o),
(319,594,cs),
(242,594,o),
(188,519,o),
(188,416,cs),
(188,346,l)
);
},
{
closed = 1;
nodes = (
(458,300,l),
(480,400,l),
(50,400,l),
(50,300,l)
);
},
{
pos = (-180,0);
ref = "one-ar";
}
);
width = 500;
},
{
layerId = "A6CBEFC3-C9E0-479E-A224-60A030287C4A";
shapes = (
{
closed = 1;
nodes = (
(452,306,l),
(451,400,l),
(398,400,ls),
(350,400,o),
(329,426,o),
(329,454,cs),
(329,477,o),
(349,503,o),
(384,503,cs),
(409,503,o),
(439,492,o),
(467,472,c),
(453,544,o),
(413,594,o),
(339,594,cs),
(251,594,o),
(188,511,o),
(188,396,cs),
(188,306,l)
);
},
{
closed = 1;
nodes = (
(449,260,l),
(480,400,l),
(50,400,l),
(50,260,l)
);
},
{
pos = (-160,0);
ref = "one-ar";
}
);
width = 500;
}
);
unicode = 1780;
}
{
glyphname = "six-persian";
layers = (
{
layerId = master01;
shapes = (
{
closed = 1;
nodes = (
(96,108,o),
(223,295,o),
(402,340,c),
(440,440,l),
(308,400,ls),
(269,388,o),
(219,433,o),
(219,484,cs),
(219,517,o),
(247,549,o),
(280,554,cs),
(308,559,o),
(344,549,o),
(373,524,c),
(351,573,o),
(308,600,o),
(259,600,cs),
(144,600,o),
(68,428,o),
(192,350,c),
(64,216,o),
(60,26,o),
(60,0,c)
);
}
);
width = 500;
},
{
layerId = "A6CBEFC3-C9E0-479E-A224-60A030287C4A";
shapes = (
{
closed = 1;
nodes = (
(114,179,o),
(229,276,o),
(395,318,c),
(450,464,l),
(302,419,ls),
(276,411,o),
(239,448,o),
(239,484,cs),
(239,507,o),
(260,531,o),
(283,534,cs),
(309,539,o),
(348,534,o),
(383,507,c),
(373,567,o),
(331,620,o),
(259,620,cs),
(117,620,o),
(59,435,o),
(162,347,c),
(49,214,o),
(58,32,o),
(60,0,c)
);
}
);
width = 500;
}
);
unicode = 1782;
}
{
glyphname = Germandbls;
layers = (
{
layerId = "A6CBEFC3-C9E0-479E-A224-60A030287C4A";
shapes = (
{
closed = 1;
nodes = (
(718,-8,o),
(799,91,o),
(799,203,c),
(799,333,o),
(709,379,o),
(634,423,c),
(588,452,o),
(537,478,o),
(537,530,c),
(537,568,o),
(558,595,o),
(594,595,c),
(615,595,o),
(630,587,o),
(639,580,c),
(677,687,l),
(631,736,o),
(504,786,o),
(398,786,c),
(207,786,o),
(95,637,o),
(95,421,c),
(95,0,l),
(241,0,l),
(241,417,l),
(241,594,o),
(307,671,o),
(413,671,c),
(479,671,o),
(542,649,o),
(592,597,c),
(637,669,l),
(622,685,o),
(602,693,o),
(571,693,c),
(463,685,o),
(393,620,o),
(393,506,c),
(393,399,o),
(481,339,o),
(551,302,c),
(602,274,o),
(648,247,o),
(648,203,c),
(648,139,o),
(596,120,o),
(554,120,c),
(502,120,o),
(430,146,o),
(379,184,c),
(315,71,l),
(392,16,o),
(483,-8,o),
(567,-8,c)
);
}
);
width = 839;
},
{
layerId = master01;
shapes = (
{
closed = 1;
nodes = (
(708,-8,o),
(786,82,o),
(786,185,c),
(786,302,o),
(699,344,o),
(623,387,c),
(565,421,o),
(505,452,o),
(505,516,c),
(505,567,o),
(541,605,o),
(591,605,c),
(623,605,o),
(646,590,o),
(656,582,c),
(685,659,l),
(638,710,o),
(519,762,o),
(407,762,c),
(209,762,o),
(103,613,o),
(103,397,c),
(103,0,l),
(208,0,l),
(208,393,l),
(208,591,o),
(290,679,o),
(418,679,c),
(490,679,o),
(563,653,o),
(615,601,c),
(648,652,l),
(632,666,o),
(612,677,o),
(575,677,c),
(463,669,o),
(401,599,o),
(401,498,c),
(401,396,o),
(487,339,o),
(563,300,c),
(621,267,o),
(677,240,o),
(677,185,c),
(677,113,o),
(613,84,o),
(563,84,c),
(506,84,o),
(438,109,o),
(389,142,c),
(343,60,l),
(407,16,o),
(487,-8,o),
(571,-8,c)
);
}
);
width = 842;
}
);
metricLeft = H;
metricRight = S;
unicode = 7838;
}
{
glyphname = ohorntilde;
kernLeft = o;
kernRight = o;
layers = (
{
layerId = "A6CBEFC3-C9E0-479E-A224-60A030287C4A";
shapes = (
{
closed = 1;
nodes = (
(371.273,496.778,o),
(410.059,550.534,o),
(397.811,621.983,c),
(339.972,621.983,l),
(342.013,595.444,o),
(340.653,564.824,o),
(319.559,564.824,c),
(306.63,564.824,o),
(293.701,576.391,o),
(278.731,589.32,c),
(259.678,605.652,o),
(237.903,624.024,o),
(210.685,624.024,c),
(146.722,624.024,o),
(114.06,562.102,o),
(121.545,498.139,c),
(179.383,498.139,l),
(176.662,522.635,o),
(182.106,551.895,o),
(204.561,551.895,c),
(216.809,551.895,o),
(228.377,543.049,o),
(240.625,532.843,c),
(261.039,516.511,o),
(284.175,496.778,o),
(322.28,496.778,c)
);
},
{
ref = ohorn;
}
);
width = 571;
},
{
layerId = master01;
shapes = (
{
closed = 1;
nodes = (
(373,479,o),
(409,527,o),
(401,601,c),
(356,601,l),
(356,560,o),
(347,533,o),
(324,533,c),
(307,533,o),
(293,547,o),
(277,562,c),
(258,581,o),
(236,601,o),
(206,601,c),
(150,601,o),
(116,547,o),
(121,479,c),
(166,479,l),
(165,518,o),
(179,544,o),
(202,544,c),
(219,544,o),
(232,532,o),
(246,519,c),
(266,500,o),
(288,479,o),
(326,479,c)
);
},
{
alignment = -1;
ref = ohorn;
}
);
width = 549;
}
);
unicode = 7905;
}
{
glyphname = endash;
layers = (
{
layerId = "A6CBEFC3-C9E0-479E-A224-60A030287C4A";
shapes = (
{
closed = 1;
nodes = (
(102,165,l),
(409,165,l),
(409,286,l),
(102,286,l)
);
}
);
width = 519;
},
{
layerId = master01;
shapes = (
{
closed = 1;
nodes = (
(102,169,l),
(406,169,l),
(406,257,l),
(102,257,l)
);
}
);
width = 516;
}
);
unicode = 8211;
}
{
glyphname = emdash;
layers = (
{
layerId = "A6CBEFC3-C9E0-479E-A224-60A030287C4A";
shapes = (
{
closed = 1;
nodes = (
(101,165,l),
(613,165,l),
(613,286,l),
(101,286,l)
);
}
);
width = 714;
},
{
layerId = master01;
shapes = (
{
closed = 1;
nodes = (
(101,169,l),
(609,169,l),
(609,257,l),
(101,257,l)
);
}
);
width = 710;
}
);
unicode = 8212;
}
{
glyphname = quoteleft;
layers = (
{
layerId = "A6CBEFC3-C9E0-479E-A224-60A030287C4A";
shapes = (
{
closed = 1;
nodes = (
(51,715,o),
(7,654,o),
(22,579,c),
(129,586,l),
(120,633,o),
(143,690,o),
(172,717,c),
(100,745,l)
);
}
);
width = 192;
},
{
layerId = master01;
shapes = (
{
closed = 1;
nodes = (
(56,703,o),
(20,645,o),
(34,577,c),
(113,584,l),
(105,628,o),
(125,679,o),
(154,709,c),
(102,735,l)
);
}
);
width = 183;
}
);
unicode = 8216;
}
{
glyphname = quoteright;
layers = (
{
layerId = "A6CBEFC3-C9E0-479E-A224-60A030287C4A";
shapes = (
{
closed = 1;
nodes = (
(139,586,o),
(181,668,o),
(170,725,c),
(63,718,l),
(72,671,o),
(49,614,o),
(20,587,c),
(92,559,l)
);
}
);
width = 197;
},
{
layerId = master01;
shapes = (
{
closed = 1;
nodes = (
(128,592,o),
(163,665,o),
(152,721,c),
(72,714,l),
(81,667,o),
(61,615,o),
(32,588,c),
(84,563,l)
);
}
);
width = 187;
}
);
unicode = 8217;
}
{
glyphname = dagger;
layers = (
{
layerId = "A6CBEFC3-C9E0-479E-A224-60A030287C4A";
shapes = (
{
closed = 1;
nodes = (
(18,361,l),
(281,361,l),
(281,483,l),
(18,483,l)
);
},
{
closed = 1;
nodes = (
(87,-29,l),
(213,-29,l),
(213,634,l),
(87,634,l)
);
}
);
width = 300;
},
{
layerId = master01;
shapes = (
{
closed = 1;
nodes = (
(30,380,l),
(269,380,l),
(269,469,l),
(30,469,l)
);
},
{
closed = 1;
nodes = (
(104,3,l),
(196,3,l),
(196,615,l),
(104,615,l)
);
}
);
width = 300;
}
);
unicode = 8224;
}
